<svg version="1.1" xmlns="http://www.w3.org/2000/svg" viewBox="0 0 1188.3659169834893 602.7886580291922" width="1188.3659169834893" height="602.7886580291922">
  <!-- svg-source:excalidraw -->
  
  <defs>
    <style class="style-fonts">
      @font-face {
        font-family: "Virgil";
        src: url("https://file%2B.vscode-resource.vscode-cdn.net/Users/pete/.vscode/extensions/pomdtr.excalidraw-editor-3.7.4/public//dist/excalidraw-assets/Virgil.woff2");
      }
      @font-face {
        font-family: "Cascadia";
        src: url("https://file%2B.vscode-resource.vscode-cdn.net/Users/pete/.vscode/extensions/pomdtr.excalidraw-editor-3.7.4/public//dist/excalidraw-assets/Cascadia.woff2");
      }
      @font-face {
        font-family: "Assistant";
        src: url("https://file%2B.vscode-resource.vscode-cdn.net/Users/pete/.vscode/extensions/pomdtr.excalidraw-editor-3.7.4/public//dist/excalidraw-assets/Assistant-Regular.woff2");
      }
    </style>
    
  </defs>
  <g stroke-linecap="round" transform="translate(197.97306262286747 81.5480466782376) rotate(0 167.41697692871094 98.00943756103516)"><path d="M0 0 C69.78 -1.07, 141.77 -1.91, 334.83 0 M334.83 0 C332.16 51.58, 332.97 100.56, 334.83 196.02 M334.83 196.02 C202.45 194.52, 68.1 195.74, 0 196.02 M0 196.02 C-0.41 123.6, 2.61 55.54, 0 0" stroke="#846358" stroke-width="1.5" fill="none" stroke-dasharray="8 9"></path></g><g stroke-linecap="round" transform="translate(351.8109837654456 124.7322507798001) rotate(0 78.6474609375 22.355148315429688)"><path d="M2.98 2.59 C2.98 2.59, 2.98 2.59, 2.98 2.59 M2.98 2.59 C2.98 2.59, 2.98 2.59, 2.98 2.59 M0.75 11.25 C2.45 8.45, 4.72 5.52, 9.93 0.68 M0.75 11.25 C3.22 8.67, 5.7 5.59, 9.93 0.68 M0.48 17.65 C5.24 11.83, 10.97 4.38, 13.61 2.55 M0.48 17.65 C6.52 12.5, 10.42 6.45, 13.61 2.55 M0.88 23.29 C6.53 17.39, 13.45 11.03, 19.25 2.16 M0.88 23.29 C6.91 15.88, 14.23 6.37, 19.25 2.16 M0.62 29.69 C7.36 24.96, 9.04 16.18, 24.24 2.52 M0.62 29.69 C7.27 22.12, 13.5 13.96, 24.24 2.52 M1.01 35.33 C11.78 26.62, 19.34 12.08, 29.88 2.12 M1.01 35.33 C10.83 23.54, 20.44 12.2, 29.88 2.12 M2.06 40.22 C10.63 31.8, 15.45 24.33, 34.87 2.48 M2.06 40.22 C10.05 29.62, 18.12 19.95, 34.87 2.48 M5.08 42.84 C13.8 34.01, 22.14 24.9, 40.51 2.09 M5.08 42.84 C19.11 28.11, 33.04 11.59, 40.51 2.09 M8.1 45.47 C22.14 29.83, 34.78 18.63, 45.5 2.45 M8.1 45.47 C18.3 32.62, 30.06 20.79, 45.5 2.45 M13.09 45.83 C27.78 29.39, 40.61 12.06, 50.48 2.81 M13.09 45.83 C25.06 31.16, 38.05 16.99, 50.48 2.81 M18.73 45.43 C27.92 33.82, 33.65 25.03, 56.13 2.41 M18.73 45.43 C31.7 29.57, 46.25 14.59, 56.13 2.41 M23.72 45.79 C32.71 36.08, 39.08 28.43, 61.11 2.77 M23.72 45.79 C37.54 28.53, 51.03 13.67, 61.11 2.77 M29.36 45.4 C42.43 28.99, 55.71 15.04, 66.76 2.38 M29.36 45.4 C42.15 31.54, 55.65 14.92, 66.76 2.38 M34.35 45.76 C46.3 33.93, 58.19 17.5, 71.74 2.74 M34.35 45.76 C44.65 32.83, 56.16 22.21, 71.74 2.74 M39.99 45.36 C50.76 36.57, 57.96 26.46, 77.39 2.34 M39.99 45.36 C54.09 29.29, 68.44 13.09, 77.39 2.34 M44.98 45.72 C51.38 37.76, 59.55 28, 82.37 2.7 M44.98 45.72 C58.19 32.74, 69.8 18.18, 82.37 2.7 M49.96 46.08 C64.77 29.65, 79.51 12.3, 88.02 2.31 M49.96 46.08 C60.84 36.03, 69.16 23.22, 88.02 2.31 M55.61 45.69 C72.55 27.52, 85.54 9.45, 93 2.67 M55.61 45.69 C64.87 35.93, 73.2 25.33, 93 2.67 M60.59 46.05 C69.98 34.67, 80.35 25.81, 97.99 3.03 M60.59 46.05 C68.76 35.75, 78.04 27.04, 97.99 3.03 M66.24 45.65 C77.09 36.64, 85.53 22.54, 103.63 2.64 M66.24 45.65 C81.29 30, 94.25 12.78, 103.63 2.64 M71.22 46.01 C85.24 30.12, 101.86 9.61, 108.62 3 M71.22 46.01 C79.72 36.68, 87.22 27.92, 108.62 3 M76.87 45.62 C90.35 31.05, 101.49 19.56, 114.26 2.6 M76.87 45.62 C84.34 35.23, 94.03 26.69, 114.26 2.6 M81.85 45.98 C94.3 31.62, 105.62 18.3, 119.25 2.96 M81.85 45.98 C95.33 29.92, 109.69 13.59, 119.25 2.96 M87.5 45.59 C96.72 34.32, 110.15 19.52, 124.89 2.57 M87.5 45.59 C97.71 33.36, 108.21 20.96, 124.89 2.57 M92.48 45.95 C102.59 31.48, 114.65 19.18, 129.88 2.93 M92.48 45.95 C106.04 29.66, 121.39 13.75, 129.88 2.93 M97.47 46.31 C112.67 28.82, 124.71 12.84, 135.52 2.53 M97.47 46.31 C110.14 33.51, 122.1 18.38, 135.52 2.53 M103.11 45.91 C114.69 33.8, 125.37 22.63, 140.51 2.89 M103.11 45.91 C114.96 30.8, 128.18 16.96, 140.51 2.89 M108.1 46.27 C119.07 34.68, 132.46 20.69, 145.5 3.25 M108.1 46.27 C120.95 31.07, 134.61 15.63, 145.5 3.25 M113.75 45.88 C122.98 35.27, 131.92 25.96, 152.45 1.35 M113.75 45.88 C121.39 37.27, 129.25 26.38, 152.45 1.35 M118.73 46.24 C125.91 37.38, 135.62 29.75, 154.82 4.73 M118.73 46.24 C130.84 32.59, 141.65 19.58, 154.82 4.73 M124.38 45.84 C135.71 31.98, 150.35 18.34, 157.83 7.35 M124.38 45.84 C131.92 38.29, 139.01 29.4, 157.83 7.35 M129.36 46.2 C138.4 37.7, 146.19 27.06, 157.57 13.75 M129.36 46.2 C140.79 33.3, 150.64 21.48, 157.57 13.75 M135.01 45.81 C141.9 39.19, 147.83 29.01, 157.97 19.39 M135.01 45.81 C141.69 39.6, 147.07 32.88, 157.97 19.39 M139.99 46.17 C146.97 39.03, 151.02 30.78, 157.71 25.79 M139.99 46.17 C145.43 39.47, 151.07 32.35, 157.71 25.79 M146.29 45.02 C148.94 40.98, 155.29 34.73, 158.1 31.43 M146.29 45.02 C149.88 40.92, 152.76 37.56, 158.1 31.43 M153.9 42.36 C154.35 41.65, 155.75 41.15, 157.18 38.59 M153.9 42.36 C154.9 41.43, 155.7 39.96, 157.18 38.59" stroke="#fab005" stroke-width="0.5" fill="none"></path><path d="M11.18 0 C51.11 -1.26, 93.76 -2.75, 146.12 0 M11.18 0 C52.41 0.84, 92.51 -0.13, 146.12 0 M146.12 0 C154.79 1.85, 159.16 5.53, 157.29 11.18 M146.12 0 C153.22 2.27, 158.9 2.09, 157.29 11.18 M157.29 11.18 C156.09 18.2, 156.59 28.11, 157.29 33.53 M157.29 11.18 C158.2 17.55, 156.71 21.78, 157.29 33.53 M157.29 33.53 C157.24 42.18, 155.44 43.57, 146.12 44.71 M157.29 33.53 C155.75 42.94, 152.21 44.53, 146.12 44.71 M146.12 44.71 C113.49 44.6, 80.97 43.63, 11.18 44.71 M146.12 44.71 C110.03 44.5, 75.44 45.5, 11.18 44.71 M11.18 44.71 C3.69 44.44, -1.78 40.27, 0 33.53 M11.18 44.71 C4.81 42.74, 0.01 40.11, 0 33.53 M0 33.53 C1 26.82, -1.9 21.65, 0 11.18 M0 33.53 C0.56 27.26, 0.54 22.03, 0 11.18 M0 11.18 C-0.41 2.99, 2.91 0.64, 11.18 0 M0 11.18 C1.5 4.35, 2.24 0.4, 11.18 0" stroke="#846358" stroke-width="1" fill="none"></path></g><g transform="translate(378.4584447029456 135.58739909522978) rotate(0 52 11.5)"><text x="52" y="0" font-family="Helvetica, Segoe UI Emoji" font-size="20px" fill="#846358" text-anchor="middle" style="white-space: pre;" direction="ltr" dominant-baseline="text-before-edge">ord1-edge1</text></g><g stroke-linecap="round" transform="translate(307.4324437263831 196.18249186866728) rotate(0 78.6474609375 22.355148315429688)"><path d="M2.98 2.59 C2.98 2.59, 2.98 2.59, 2.98 2.59 M2.98 2.59 C2.98 2.59, 2.98 2.59, 2.98 2.59 M0.75 11.25 C2.38 7.44, 6.42 5.17, 9.93 0.68 M0.75 11.25 C4.45 7.19, 7.47 2.82, 9.93 0.68 M0.48 17.65 C3.77 11.99, 8.75 7.81, 13.61 2.55 M0.48 17.65 C3.85 13.32, 5.43 10.4, 13.61 2.55 M0.88 23.29 C6.93 14.96, 15.68 8.4, 19.25 2.16 M0.88 23.29 C5.31 18.51, 8.42 14.76, 19.25 2.16 M0.62 29.69 C9.4 17.58, 17.11 10.05, 24.24 2.52 M0.62 29.69 C8.81 19.54, 17.15 10.62, 24.24 2.52 M1.01 35.33 C10.33 25.56, 21.36 10.71, 29.88 2.12 M1.01 35.33 C10.21 25.74, 19.28 13.94, 29.88 2.12 M2.06 40.22 C11.12 27.99, 22.12 20.55, 34.87 2.48 M2.06 40.22 C10.82 32.02, 17.69 23.21, 34.87 2.48 M5.08 42.84 C18.66 28.07, 32.33 12.96, 40.51 2.09 M5.08 42.84 C11.85 34.63, 19.54 25.6, 40.51 2.09 M8.1 45.47 C22.04 33.42, 32.92 18.51, 45.5 2.45 M8.1 45.47 C22.51 29.15, 37.06 12.22, 45.5 2.45 M13.09 45.83 C24.57 36.97, 31.36 22.67, 50.48 2.81 M13.09 45.83 C29.11 28.13, 43.01 10.57, 50.48 2.81 M18.73 45.43 C28.88 35.62, 36.85 24.44, 56.13 2.41 M18.73 45.43 C28.04 34.3, 38 24.37, 56.13 2.41 M23.72 45.79 C31.57 34.87, 41.83 27, 61.11 2.77 M23.72 45.79 C33.9 35.91, 42.83 23.45, 61.11 2.77 M29.36 45.4 C45.04 30.2, 56.66 12.2, 66.76 2.38 M29.36 45.4 C43.85 28.78, 59.63 9.93, 66.76 2.38 M34.35 45.76 C43.57 35.54, 50.99 26.75, 71.74 2.74 M34.35 45.76 C47.27 31.42, 58.89 18.71, 71.74 2.74 M39.99 45.36 C46.85 34.33, 57.75 27, 77.39 2.34 M39.99 45.36 C52.51 31.2, 64.38 17.39, 77.39 2.34 M44.98 45.72 C57.51 30.09, 72.14 13.63, 82.37 2.7 M44.98 45.72 C54.85 33.78, 67.01 20.12, 82.37 2.7 M49.96 46.08 C60.39 33.77, 71.15 20.76, 88.02 2.31 M49.96 46.08 C60.94 32.29, 72.79 19.45, 88.02 2.31 M55.61 45.69 C68.37 29.48, 84.56 14.34, 93 2.67 M55.61 45.69 C70.16 29.13, 82.97 13.32, 93 2.67 M60.59 46.05 C73.84 34.39, 85.66 18.04, 97.99 3.03 M60.59 46.05 C71.76 33.85, 82.53 22.02, 97.99 3.03 M66.24 45.65 C77.17 30.07, 90.85 17.05, 103.63 2.64 M66.24 45.65 C77.49 33.07, 90.04 19.33, 103.63 2.64 M71.22 46.01 C83.32 31.22, 96.98 16.04, 108.62 3 M71.22 46.01 C79.69 36.13, 88.2 26.83, 108.62 3 M76.87 45.62 C84.23 38.15, 91.75 25.81, 114.26 2.6 M76.87 45.62 C84.4 36.34, 93.39 27.77, 114.26 2.6 M81.85 45.98 C94.77 31.87, 104.71 19.27, 119.25 2.96 M81.85 45.98 C95.16 30.61, 109.93 15.22, 119.25 2.96 M87.5 45.59 C96.44 37.71, 104.4 27.06, 124.89 2.57 M87.5 45.59 C99.1 33.34, 109.96 20.01, 124.89 2.57 M92.48 45.95 C108 28.67, 120.36 13.49, 129.88 2.93 M92.48 45.95 C103.79 33.92, 114.48 19.95, 129.88 2.93 M97.47 46.31 C108.85 36.12, 117.65 24.94, 135.52 2.53 M97.47 46.31 C110.7 31.74, 122.51 16.35, 135.52 2.53 M103.11 45.91 C114.64 31.75, 126.6 16.74, 140.51 2.89 M103.11 45.91 C115.73 30.56, 130.72 13.91, 140.51 2.89 M108.1 46.27 C119.18 33.54, 128.7 22.47, 145.5 3.25 M108.1 46.27 C116.32 36.89, 126.12 27.85, 145.5 3.25 M113.75 45.88 C125.26 34.29, 135.26 18.41, 152.45 1.35 M113.75 45.88 C123.86 34.76, 133.8 23.86, 152.45 1.35 M118.73 46.24 C129.97 31.6, 142.46 20.79, 154.82 4.73 M118.73 46.24 C126.56 37.82, 134.95 29.53, 154.82 4.73 M124.38 45.84 C135.92 33.42, 150.99 16.58, 157.83 7.35 M124.38 45.84 C135.51 31.75, 148.16 18.95, 157.83 7.35 M129.36 46.2 C134.52 39.52, 144.24 31.96, 157.57 13.75 M129.36 46.2 C136.67 38.1, 145.73 28.91, 157.57 13.75 M135.01 45.81 C141.11 39.15, 145.88 35.5, 157.97 19.39 M135.01 45.81 C139.61 40.96, 144.02 34.6, 157.97 19.39 M139.99 46.17 C144.05 40.45, 145.71 39.63, 157.71 25.79 M139.99 46.17 C146.86 38.56, 152 32.89, 157.71 25.79 M146.29 45.02 C148.4 40.26, 152.09 38.77, 158.1 31.43 M146.29 45.02 C150.01 39.87, 153.95 36.27, 158.1 31.43 M153.9 42.36 C154.45 41.41, 155.19 40.56, 157.18 38.59 M153.9 42.36 C154.47 41.25, 155.46 40.7, 157.18 38.59" stroke="#fab005" stroke-width="0.5" fill="none"></path><path d="M11.18 0 C56.26 0.03, 103.87 1.12, 146.12 0 M11.18 0 C62.06 -0.49, 113.67 0.15, 146.12 0 M146.12 0 C154.27 -0.05, 157.2 4.47, 157.29 11.18 M146.12 0 C151.42 2.15, 159.07 2.15, 157.29 11.18 M157.29 11.18 C158.64 20.73, 156.44 30.41, 157.29 33.53 M157.29 11.18 C158.38 18.14, 158.28 23.47, 157.29 33.53 M157.29 33.53 C155.51 42.55, 152.22 43.6, 146.12 44.71 M157.29 33.53 C155.44 42.98, 152.98 46.77, 146.12 44.71 M146.12 44.71 C97.29 43.7, 49.84 43.75, 11.18 44.71 M146.12 44.71 C104.81 44.39, 62.07 44.78, 11.18 44.71 M11.18 44.71 C5.57 44.34, -1.87 42.01, 0 33.53 M11.18 44.71 C5.21 45.41, -0.25 40.88, 0 33.53 M0 33.53 C1.64 29.07, 1.56 23.02, 0 11.18 M0 33.53 C0.64 26.94, -0.46 21.03, 0 11.18 M0 11.18 C-1.8 2.33, 2.43 0.1, 11.18 0 M0 11.18 C0.55 4.18, 4.7 0.45, 11.18 0" stroke="#846358" stroke-width="1" fill="none"></path></g><g transform="translate(334.0799046638831 207.03764018409697) rotate(0 52 11.5)"><text x="52" y="0" font-family="Helvetica, Segoe UI Emoji" font-size="20px" fill="#846358" text-anchor="middle" style="white-space: pre;" direction="ltr" dominant-baseline="text-before-edge">ord1-edge2</text></g><g stroke-linecap="round" transform="translate(687.7181798103675 95.33431681983916) rotate(0 78.6474609375 22.355148315429688)"><path d="M2.98 2.59 C2.98 2.59, 2.98 2.59, 2.98 2.59 M2.98 2.59 C2.98 2.59, 2.98 2.59, 2.98 2.59 M0.75 11.25 C2.25 7.48, 4.49 5.17, 9.93 0.68 M0.75 11.25 C2.3 8.1, 5.15 6.14, 9.93 0.68 M0.48 17.65 C6.27 11.9, 10.69 3.19, 15.57 0.29 M0.48 17.65 C4.22 14.16, 8.78 9.96, 15.57 0.29 M0.88 23.29 C4.61 18.53, 10.7 12.81, 20.56 0.65 M0.88 23.29 C8.06 13.88, 15.07 5.86, 20.56 0.65 M0.62 29.69 C9.58 19.15, 19.69 10.95, 26.2 0.25 M0.62 29.69 C9.74 17.91, 19.95 6.92, 26.2 0.25 M1.01 35.33 C11.7 23.3, 22.65 10.85, 31.19 0.61 M1.01 35.33 C10.97 24.93, 19.89 14.66, 31.19 0.61 M2.06 40.22 C10.51 31.52, 16.89 25.3, 36.83 0.22 M2.06 40.22 C14.13 25.41, 27.79 9.25, 36.83 0.22 M5.08 42.84 C18.09 25.41, 33.65 11.3, 41.82 0.58 M5.08 42.84 C16.82 30.61, 28.27 17.91, 41.82 0.58 M9.41 43.96 C20.08 32.2, 32.15 19.15, 47.46 0.18 M9.41 43.96 C21.36 30.81, 32.56 16.09, 47.46 0.18 M14.4 44.32 C26.3 29.23, 41.92 13.13, 52.45 0.54 M14.4 44.32 C23.3 34.77, 33.19 23.9, 52.45 0.54 M20.04 43.92 C29.91 31.29, 43.14 15.75, 57.44 0.9 M20.04 43.92 C27.2 34.38, 35.45 25.12, 57.44 0.9 M25.03 44.28 C35.74 28.85, 48.9 17.75, 63.08 0.51 M25.03 44.28 C36.4 31.97, 46.75 18.89, 63.08 0.51 M30.02 44.64 C41.97 29.68, 55.22 18.32, 68.07 0.87 M30.02 44.64 C45.23 27.3, 61.08 9.24, 68.07 0.87 M35.66 44.25 C43.96 36.22, 52.11 27.36, 73.71 0.48 M35.66 44.25 C50.3 28.48, 62.53 13.18, 73.71 0.48 M40.65 44.61 C53.19 28.45, 69.12 13.78, 78.7 0.84 M40.65 44.61 C53.78 27.66, 69.96 12.37, 78.7 0.84 M46.29 44.21 C54.81 31.09, 64.87 21.09, 84.34 0.44 M46.29 44.21 C58.97 29.6, 71.11 17.27, 84.34 0.44 M51.28 44.57 C66 26.52, 82.73 11.96, 89.33 0.8 M51.28 44.57 C64.81 29.04, 78.83 13, 89.33 0.8 M56.92 44.18 C69.83 28.26, 85.31 11.89, 94.97 0.41 M56.92 44.18 C70.65 29.73, 82.22 14.02, 94.97 0.41 M61.91 44.54 C76.69 29.35, 89.93 10.72, 99.96 0.77 M61.91 44.54 C73.64 29.77, 85.69 16.02, 99.96 0.77 M66.89 44.9 C82.93 27.83, 94.33 11.27, 104.95 1.13 M66.89 44.9 C80.22 28.87, 94.18 13.35, 104.95 1.13 M72.54 44.51 C83.36 32.67, 89.2 24.19, 110.59 0.73 M72.54 44.51 C84.68 29.5, 98.85 15.65, 110.59 0.73 M77.52 44.87 C90.88 29.17, 106.09 15.26, 115.58 1.09 M77.52 44.87 C86.45 34.61, 96.88 23.53, 115.58 1.09 M83.17 44.47 C94.08 32.96, 102.56 23.05, 121.22 0.7 M83.17 44.47 C93.86 33.75, 102.12 21.42, 121.22 0.7 M88.15 44.83 C99.28 32.18, 113.89 17.7, 126.21 1.06 M88.15 44.83 C95.12 35.37, 104.03 26.86, 126.21 1.06 M93.8 44.44 C103 36.8, 109.71 27.55, 131.85 0.66 M93.8 44.44 C102.25 34.12, 113.34 22.22, 131.85 0.66 M98.78 44.8 C109.03 35.01, 117.17 24.73, 136.84 1.02 M98.78 44.8 C112.88 27.92, 127.84 12.76, 136.84 1.02 M104.43 44.4 C116.54 26.73, 132.15 13.72, 142.48 0.63 M104.43 44.4 C112.21 35.3, 121.63 25.47, 142.48 0.63 M109.41 44.76 C117.18 34.91, 125.47 26.02, 147.47 0.99 M109.41 44.76 C118.38 35.15, 127.33 25.74, 147.47 0.99 M114.4 45.12 C122.72 35.56, 132.81 24.28, 151.8 2.1 M114.4 45.12 C122.83 34.52, 131.92 25.32, 151.8 2.1 M120.04 44.73 C132.48 28.74, 145.62 14.33, 154.82 4.73 M120.04 44.73 C133.56 29.44, 146.78 13.47, 154.82 4.73 M125.03 45.09 C132.14 35.36, 137.35 28.21, 157.18 8.11 M125.03 45.09 C133.47 36.59, 140.19 27.19, 157.18 8.11 M130.67 44.69 C139.52 33.22, 148.04 24.27, 156.92 14.5 M130.67 44.69 C135.33 39.35, 142.09 32.04, 156.92 14.5 M135.66 45.05 C142.69 36.45, 149.02 28.55, 157.31 20.15 M135.66 45.05 C143.98 34.21, 152.47 24.32, 157.31 20.15 M141.3 44.66 C148.71 39.84, 152.1 31.33, 157.05 26.55 M141.3 44.66 C148 36.99, 153.18 31.72, 157.05 26.55 M146.29 45.02 C150.01 40.95, 151.23 38.69, 156.79 32.94 M146.29 45.02 C150.47 40.8, 153.93 37.05, 156.79 32.94 M153.9 42.36 C154.42 41.32, 155.5 40.86, 157.18 38.59 M153.9 42.36 C154.75 41.35, 156.23 39.69, 157.18 38.59" stroke="#228be6" stroke-width="0.5" fill="none"></path><path d="M11.18 0 C40.85 -2.23, 65.17 0.87, 146.12 0 M11.18 0 C42.23 -1.23, 73.23 -1.92, 146.12 0 M146.12 0 C155.21 -1.75, 159.09 3.61, 157.29 11.18 M146.12 0 C154.77 -1.46, 156.28 5.51, 157.29 11.18 M157.29 11.18 C158.27 18.87, 155.75 22.52, 157.29 33.53 M157.29 11.18 C157.9 18.84, 156.74 25.81, 157.29 33.53 M157.29 33.53 C156.86 42.32, 155.29 45.08, 146.12 44.71 M157.29 33.53 C155.51 42.87, 152.83 42.71, 146.12 44.71 M146.12 44.71 C96.56 45.74, 48.22 44.54, 11.18 44.71 M146.12 44.71 C111.03 44.24, 77.38 44.53, 11.18 44.71 M11.18 44.71 C5.19 42.95, 1.3 39.15, 0 33.53 M11.18 44.71 C4.27 43.34, 1.15 42.27, 0 33.53 M0 33.53 C-1.48 29.16, -0.06 19.9, 0 11.18 M0 33.53 C0.19 27.86, -0.98 22.94, 0 11.18 M0 11.18 C-0.39 2.48, 4.3 1.53, 11.18 0 M0 11.18 C-1.8 5.4, 1.55 0.97, 11.18 0" stroke="#846358" stroke-width="1" fill="none"></path></g><g transform="translate(717.8656407478675 106.18946513526885) rotate(0 48.5 11.5)"><text x="48.5" y="0" font-family="Helvetica, Segoe UI Emoji" font-size="20px" fill="#846358" text-anchor="middle" style="white-space: pre;" direction="ltr" dominant-baseline="text-before-edge">atl1-edge1</text></g><g stroke-linecap="round" transform="translate(749.1141148689612 162.75022563331572) rotate(0 78.6474609375 22.355148315429688)"><path d="M2.98 2.59 C2.98 2.59, 2.98 2.59, 2.98 2.59 M2.98 2.59 C2.98 2.59, 2.98 2.59, 2.98 2.59 M0.75 11.25 C2.36 7.68, 5.25 6.73, 9.93 0.68 M0.75 11.25 C2.95 8.32, 6.03 6.2, 9.93 0.68 M0.48 17.65 C5.42 10.43, 10.8 6.48, 13.61 2.55 M0.48 17.65 C4.46 13.33, 6.9 9.97, 13.61 2.55 M0.88 23.29 C6.49 18.25, 6.68 15.48, 19.25 2.16 M0.88 23.29 C6.85 16.9, 12.95 9.55, 19.25 2.16 M0.62 29.69 C5.41 21.58, 12.72 14.91, 24.24 2.52 M0.62 29.69 C9.27 19.77, 17.83 10.51, 24.24 2.52 M1.01 35.33 C10.9 26.74, 18.23 18.07, 29.88 2.12 M1.01 35.33 C10.9 23.56, 22.56 9.35, 29.88 2.12 M2.06 40.22 C10.56 26.71, 22.28 16.69, 34.87 2.48 M2.06 40.22 C12.21 26.29, 23.31 15.32, 34.87 2.48 M5.08 42.84 C17.71 26.5, 29.38 11.66, 40.51 2.09 M5.08 42.84 C15.77 31.23, 25.55 19.14, 40.51 2.09 M8.1 45.47 C20.83 30.12, 33.16 16.81, 45.5 2.45 M8.1 45.47 C22.35 29.05, 36.34 13.17, 45.5 2.45 M13.09 45.83 C27.2 30.18, 38.99 17.17, 50.48 2.81 M13.09 45.83 C20.29 37.98, 28.28 28.03, 50.48 2.81 M18.73 45.43 C26 35.71, 36.86 24.42, 56.13 2.41 M18.73 45.43 C31.22 31.11, 42.2 17.12, 56.13 2.41 M23.72 45.79 C33.69 36.55, 42.03 22.66, 61.11 2.77 M23.72 45.79 C33.96 33.75, 43.54 22.4, 61.11 2.77 M29.36 45.4 C39.06 34.32, 50.14 18.3, 66.76 2.38 M29.36 45.4 C41.52 31.39, 52.4 19.4, 66.76 2.38 M34.35 45.76 C48.3 28.59, 63.5 13.25, 71.74 2.74 M34.35 45.76 C47.18 29.98, 61.5 15.69, 71.74 2.74 M39.99 45.36 C50.62 34.42, 61.14 21.01, 77.39 2.34 M39.99 45.36 C52.39 32.92, 64.16 18.04, 77.39 2.34 M44.98 45.72 C52.79 32.96, 66.02 23.64, 82.37 2.7 M44.98 45.72 C58.62 28.95, 72.36 14.16, 82.37 2.7 M49.96 46.08 C59.01 36.5, 70.5 24.44, 88.02 2.31 M49.96 46.08 C64.84 28.88, 79.16 14.29, 88.02 2.31 M55.61 45.69 C65.81 35.7, 76.19 23.61, 93 2.67 M55.61 45.69 C66.94 33.18, 76.62 21.59, 93 2.67 M60.59 46.05 C72.23 28.85, 85.04 15.1, 97.99 3.03 M60.59 46.05 C76.2 28.38, 91.3 12.34, 97.99 3.03 M66.24 45.65 C80.85 29.01, 94.13 12.95, 103.63 2.64 M66.24 45.65 C78.84 30.99, 92.67 16.33, 103.63 2.64 M71.22 46.01 C84.47 30.8, 97.42 17.32, 108.62 3 M71.22 46.01 C84.47 30.8, 96.9 16.3, 108.62 3 M76.87 45.62 C87.4 34.6, 94.18 24.29, 114.26 2.6 M76.87 45.62 C85.41 35, 95.16 24.09, 114.26 2.6 M81.85 45.98 C92.06 35.87, 98.43 23.87, 119.25 2.96 M81.85 45.98 C93.26 34.86, 103.31 22.02, 119.25 2.96 M87.5 45.59 C101.26 30.18, 112.53 14.52, 124.89 2.57 M87.5 45.59 C101.31 29.71, 115.09 16, 124.89 2.57 M92.48 45.95 C103.34 34.47, 112.16 22.29, 129.88 2.93 M92.48 45.95 C101.57 34.93, 109.81 24.06, 129.88 2.93 M97.47 46.31 C104.71 38.15, 115.75 26.16, 135.52 2.53 M97.47 46.31 C108.77 35.02, 117.66 22.09, 135.52 2.53 M103.11 45.91 C115.52 31.29, 129.77 13.67, 140.51 2.89 M103.11 45.91 C112.61 36.2, 120.79 25.7, 140.51 2.89 M108.1 46.27 C123.18 29.22, 136.06 14.38, 145.5 3.25 M108.1 46.27 C120.85 31.81, 132.9 19.72, 145.5 3.25 M113.75 45.88 C122.71 37.72, 129.77 28.81, 152.45 1.35 M113.75 45.88 C123.34 34.66, 133.01 23.95, 152.45 1.35 M118.73 46.24 C128.16 34.94, 136.52 24.3, 154.82 4.73 M118.73 46.24 C127.52 37.31, 134.49 26.81, 154.82 4.73 M124.38 45.84 C139.74 28.63, 151.77 16.74, 157.83 7.35 M124.38 45.84 C137.87 30.57, 149.9 16.69, 157.83 7.35 M129.36 46.2 C136.13 36.72, 142.74 28.25, 157.57 13.75 M129.36 46.2 C134.18 38.94, 141.42 33.14, 157.57 13.75 M135.01 45.81 C140.63 37.08, 147.31 30.44, 157.97 19.39 M135.01 45.81 C143.6 36.57, 152.31 25.53, 157.97 19.39 M139.99 46.17 C146.29 42.08, 147.99 34.05, 157.71 25.79 M139.99 46.17 C146.58 38.74, 151.22 33.85, 157.71 25.79 M146.29 45.02 C150.39 39.89, 154.35 37.08, 158.1 31.43 M146.29 45.02 C148.68 41.53, 151.08 38.74, 158.1 31.43 M153.9 42.36 C154.92 41.01, 156.04 39.38, 157.18 38.59 M153.9 42.36 C154.99 40.88, 156 39.63, 157.18 38.59" stroke="#228be6" stroke-width="0.5" fill="none"></path><path d="M11.18 0 C61.89 1.27, 115.9 2.81, 146.12 0 M11.18 0 C61.47 -0.71, 110.35 -0.61, 146.12 0 M146.12 0 C153.82 0.03, 157.39 5.29, 157.29 11.18 M146.12 0 C155.64 1.96, 156.02 3.5, 157.29 11.18 M157.29 11.18 C157.34 19.09, 158.67 26.53, 157.29 33.53 M157.29 11.18 C156.79 17.35, 157.62 24.56, 157.29 33.53 M157.29 33.53 C158.21 41.42, 153.01 46.69, 146.12 44.71 M157.29 33.53 C158.56 42.68, 155.06 44.9, 146.12 44.71 M146.12 44.71 C107.37 46.6, 70.12 47.05, 11.18 44.71 M146.12 44.71 C110.66 44.12, 73 44.81, 11.18 44.71 M11.18 44.71 C5.25 44.68, 1.63 40.81, 0 33.53 M11.18 44.71 C1.55 42.73, 1.99 42.09, 0 33.53 M0 33.53 C1.41 27.73, 1.83 19.08, 0 11.18 M0 33.53 C0.94 26.58, -0.8 17.8, 0 11.18 M0 11.18 C-1.03 3.53, 5.28 0.03, 11.18 0 M0 11.18 C-2.06 4.08, 4.35 1.32, 11.18 0" stroke="#846358" stroke-width="1" fill="none"></path></g><g transform="translate(779.2615758064612 173.6053739487454) rotate(0 48.5 11.5)"><text x="48.5" y="0" font-family="Helvetica, Segoe UI Emoji" font-size="20px" fill="#846358" text-anchor="middle" style="white-space: pre;" direction="ltr" dominant-baseline="text-before-edge">atl1-edge2</text></g><g stroke-linecap="round" transform="translate(692.103799927555 337.3011060654446) rotate(0 78.6474609375 22.355148315429688)"><path d="M2.98 2.59 C2.98 2.59, 2.98 2.59, 2.98 2.59 M2.98 2.59 C2.98 2.59, 2.98 2.59, 2.98 2.59 M0.75 11.25 C3.52 9.23, 4.92 6.22, 9.93 0.68 M0.75 11.25 C3.23 8.68, 5.19 6.92, 9.93 0.68 M0.48 17.65 C5.01 13.84, 7.35 9.36, 15.57 0.29 M0.48 17.65 C5.63 13.48, 8.46 7.8, 15.57 0.29 M0.88 23.29 C8.43 16.8, 13.6 8.11, 20.56 0.65 M0.88 23.29 C7.08 15.52, 12.97 9.12, 20.56 0.65 M0.62 29.69 C5.44 23.64, 10.81 19.35, 26.2 0.25 M0.62 29.69 C6.91 24.21, 10.55 16.73, 26.2 0.25 M1.01 35.33 C9.29 25.51, 16.52 15.73, 31.19 0.61 M1.01 35.33 C9.8 26.36, 18.3 16.8, 31.19 0.61 M2.06 40.22 C12.96 30.36, 21.92 18.52, 36.83 0.22 M2.06 40.22 C15.5 25.23, 27.73 9.79, 36.83 0.22 M5.08 42.84 C14.63 31.7, 28.8 15.92, 41.82 0.58 M5.08 42.84 C15.56 29.91, 26.89 18.23, 41.82 0.58 M9.41 43.96 C22.45 30.96, 33.46 16.3, 47.46 0.18 M9.41 43.96 C20.39 33.27, 29.55 20.92, 47.46 0.18 M14.4 44.32 C24.98 29.69, 40.21 16.2, 52.45 0.54 M14.4 44.32 C27.52 30.98, 37.9 17.35, 52.45 0.54 M20.04 43.92 C30.91 32.77, 38 19.17, 57.44 0.9 M20.04 43.92 C33.09 28.78, 48.39 11.98, 57.44 0.9 M25.03 44.28 C39.21 26.81, 52.71 14.43, 63.08 0.51 M25.03 44.28 C39.41 26.87, 54.55 10.55, 63.08 0.51 M30.02 44.64 C40.87 30.7, 52.04 16.65, 68.07 0.87 M30.02 44.64 C39.92 32.29, 51.13 22.07, 68.07 0.87 M35.66 44.25 C42.25 34.72, 51.82 24.83, 73.71 0.48 M35.66 44.25 C43.4 35.24, 51.02 26.13, 73.71 0.48 M40.65 44.61 C50.08 35.31, 55.83 28.27, 78.7 0.84 M40.65 44.61 C54.45 27.79, 70.08 11.05, 78.7 0.84 M46.29 44.21 C59.22 28.99, 74.91 9.74, 84.34 0.44 M46.29 44.21 C59.07 28.1, 73.3 13.4, 84.34 0.44 M51.28 44.57 C62.19 33.1, 68.63 25.23, 89.33 0.8 M51.28 44.57 C60.75 33.33, 71.31 22.83, 89.33 0.8 M56.92 44.18 C71.29 29.93, 83 14.73, 94.97 0.41 M56.92 44.18 C66.6 34.09, 76.75 22.13, 94.97 0.41 M61.91 44.54 C70.45 34.23, 81.56 22.79, 99.96 0.77 M61.91 44.54 C70.53 34.38, 77.09 25.2, 99.96 0.77 M66.89 44.9 C80.54 32.56, 90.03 19.8, 104.95 1.13 M66.89 44.9 C74.88 36.79, 82.19 27.25, 104.95 1.13 M72.54 44.51 C80.57 35.31, 87.42 24.69, 110.59 0.73 M72.54 44.51 C83.78 31.85, 93.19 20.19, 110.59 0.73 M77.52 44.87 C93.09 27.34, 107.63 11.12, 115.58 1.09 M77.52 44.87 C90.28 29.14, 104.76 13.05, 115.58 1.09 M83.17 44.47 C96.11 27.67, 113.69 10.58, 121.22 0.7 M83.17 44.47 C96.31 29.53, 109.9 14.73, 121.22 0.7 M88.15 44.83 C99.59 34.24, 110.38 20.63, 126.21 1.06 M88.15 44.83 C101.3 30.54, 113.22 15.87, 126.21 1.06 M93.8 44.44 C104.24 32.91, 114.67 20.14, 131.85 0.66 M93.8 44.44 C108.56 28.88, 122.56 12.68, 131.85 0.66 M98.78 44.8 C111.53 30.41, 125.74 13.17, 136.84 1.02 M98.78 44.8 C113.3 26.75, 128.44 9.34, 136.84 1.02 M104.43 44.4 C113.32 37.05, 121.49 24.44, 142.48 0.63 M104.43 44.4 C118.63 27.73, 132.53 11.55, 142.48 0.63 M109.41 44.76 C125.9 29.77, 137.46 11.33, 147.47 0.99 M109.41 44.76 C121.5 31.73, 132.66 16.87, 147.47 0.99 M114.4 45.12 C128.42 28.82, 139.8 17.01, 151.8 2.1 M114.4 45.12 C128.35 28.18, 145.03 10.65, 151.8 2.1 M120.04 44.73 C128.21 34.66, 138.18 25.09, 154.82 4.73 M120.04 44.73 C128.8 33.09, 138.52 22.29, 154.82 4.73 M125.03 45.09 C133.45 36.31, 143.72 23.85, 157.18 8.11 M125.03 45.09 C132.1 37.83, 138.79 29.8, 157.18 8.11 M130.67 44.69 C137.32 39.12, 139.85 32.13, 156.92 14.5 M130.67 44.69 C140.84 33.08, 149.49 22.87, 156.92 14.5 M135.66 45.05 C139.57 37.78, 148.2 32.33, 157.31 20.15 M135.66 45.05 C145.19 34.96, 153.23 25.29, 157.31 20.15 M141.3 44.66 C148.07 38.49, 152.3 30.38, 157.05 26.55 M141.3 44.66 C146.83 38.83, 150.85 33.69, 157.05 26.55 M146.29 45.02 C149.45 40.83, 154.26 36.96, 156.79 32.94 M146.29 45.02 C147.76 42.38, 150.94 40.72, 156.79 32.94 M153.9 42.36 C154.28 41.79, 155.33 41.05, 157.18 38.59 M153.9 42.36 C154.92 41.54, 155.7 40.25, 157.18 38.59" stroke="#fa5252" stroke-width="0.5" fill="none"></path><path d="M11.18 0 C52.25 1.58, 92.02 0.51, 146.12 0 M11.18 0 C51.63 0.06, 91.85 1.49, 146.12 0 M146.12 0 C155.16 -1.39, 156.33 5.41, 157.29 11.18 M146.12 0 C154.22 -0.5, 156.11 1.57, 157.29 11.18 M157.29 11.18 C156.24 18.24, 156.27 21.68, 157.29 33.53 M157.29 11.18 C156.45 17.51, 157.38 24.84, 157.29 33.53 M157.29 33.53 C159.07 42.12, 152.52 43.01, 146.12 44.71 M157.29 33.53 C157.97 43.05, 152.2 46.87, 146.12 44.71 M146.12 44.71 C117.5 46.16, 86.79 46.2, 11.18 44.71 M146.12 44.71 C109.27 46.07, 73.23 45.53, 11.18 44.71 M11.18 44.71 C2.09 44.42, -1.46 41.65, 0 33.53 M11.18 44.71 C3.72 45.02, -0.33 40.6, 0 33.53 M0 33.53 C0.01 26.72, -0.08 19.1, 0 11.18 M0 33.53 C-0.65 28.66, 0.9 23.18, 0 11.18 M0 11.18 C-0.3 5.03, 5.36 -1.99, 11.18 0 M0 11.18 C-1.6 6, 6.01 -0.3, 11.18 0" stroke="#846358" stroke-width="1" fill="none"></path></g><g transform="translate(723.251260865055 348.1562543808743) rotate(0 47.5 11.5)"><text x="47.5" y="0" font-family="Helvetica, Segoe UI Emoji" font-size="20px" fill="#846358" text-anchor="middle" style="white-space: pre;" direction="ltr" dominant-baseline="text-before-edge">jfk1-edge1</text></g><g stroke-linecap="round" transform="translate(607.5331822517737 397.7161603867337) rotate(0 78.6474609375 22.355148315429688)"><path d="M2.98 2.59 C2.98 2.59, 2.98 2.59, 2.98 2.59 M2.98 2.59 C2.98 2.59, 2.98 2.59, 2.98 2.59 M0.75 11.25 C3.39 7.83, 4.47 5.39, 9.93 0.68 M0.75 11.25 C3.9 8.34, 5.38 5.29, 9.93 0.68 M0.48 17.65 C5.93 10.95, 10.14 6.1, 15.57 0.29 M0.48 17.65 C3.34 13.33, 7.62 9.99, 15.57 0.29 M0.88 23.29 C6.72 15.88, 9.91 11.62, 20.56 0.65 M0.88 23.29 C9.07 13.78, 15.36 4.77, 20.56 0.65 M0.62 29.69 C8.01 22.41, 14.48 10.72, 26.2 0.25 M0.62 29.69 C9.59 17.39, 19.77 7.56, 26.2 0.25 M1.01 35.33 C11.32 22.15, 21.96 9.69, 31.19 0.61 M1.01 35.33 C7.68 28.34, 13.58 19.74, 31.19 0.61 M2.06 40.22 C16.76 24.01, 30.49 10.15, 36.83 0.22 M2.06 40.22 C13.82 25.93, 26.78 11.48, 36.83 0.22 M5.08 42.84 C16.8 29.73, 25.53 20.52, 41.82 0.58 M5.08 42.84 C16.33 30.88, 26.73 17.67, 41.82 0.58 M9.41 43.96 C16.34 35, 24.34 25.76, 47.46 0.18 M9.41 43.96 C17.66 33.63, 26.35 23.79, 47.46 0.18 M14.4 44.32 C30.93 27.58, 44.77 8.88, 52.45 0.54 M14.4 44.32 C21.82 34.73, 30.5 25.81, 52.45 0.54 M20.04 43.92 C29.98 28.51, 44.74 16.05, 57.44 0.9 M20.04 43.92 C33.12 29.6, 44.95 16.05, 57.44 0.9 M25.03 44.28 C33.98 35.96, 44.08 23.33, 63.08 0.51 M25.03 44.28 C35.59 32.46, 45.64 20.83, 63.08 0.51 M30.02 44.64 C36.77 34.12, 45.92 24.04, 68.07 0.87 M30.02 44.64 C39.76 35.1, 47.3 23.46, 68.07 0.87 M35.66 44.25 C45.93 31.54, 53.94 21.36, 73.71 0.48 M35.66 44.25 C48.83 28.78, 61.68 12.5, 73.71 0.48 M40.65 44.61 C52.57 31.51, 68.04 16.71, 78.7 0.84 M40.65 44.61 C49.45 35.3, 59.16 24.89, 78.7 0.84 M46.29 44.21 C56.86 30.69, 69.31 17.55, 84.34 0.44 M46.29 44.21 C56.73 32.75, 66.49 21.39, 84.34 0.44 M51.28 44.57 C59.75 35.17, 69.81 20.65, 89.33 0.8 M51.28 44.57 C59.98 35.62, 68.25 25.29, 89.33 0.8 M56.92 44.18 C64.79 34.73, 74.37 21.4, 94.97 0.41 M56.92 44.18 C67.09 32.56, 76.19 20.95, 94.97 0.41 M61.91 44.54 C73.31 32.25, 82.36 19.07, 99.96 0.77 M61.91 44.54 C75.24 27.55, 90.13 12.46, 99.96 0.77 M66.89 44.9 C74.18 37.19, 80.95 24.63, 104.95 1.13 M66.89 44.9 C75.61 34.08, 83.93 23.11, 104.95 1.13 M72.54 44.51 C81.85 30.66, 92.89 20.18, 110.59 0.73 M72.54 44.51 C85.19 29.3, 100 14.38, 110.59 0.73 M77.52 44.87 C86.07 35.8, 95.06 25.9, 115.58 1.09 M77.52 44.87 C92.72 27.55, 107.59 12.67, 115.58 1.09 M83.17 44.47 C99.31 28.24, 114.75 11.35, 121.22 0.7 M83.17 44.47 C93.27 33.95, 102.14 21.71, 121.22 0.7 M88.15 44.83 C97.23 34.79, 104.11 25.06, 126.21 1.06 M88.15 44.83 C100.32 30.17, 112.08 16.88, 126.21 1.06 M93.8 44.44 C108.38 27.59, 124.43 8.95, 131.85 0.66 M93.8 44.44 C102.97 34.26, 113.23 22.03, 131.85 0.66 M98.78 44.8 C109.05 32.1, 121.32 21.71, 136.84 1.02 M98.78 44.8 C112.47 28.5, 125.65 13.4, 136.84 1.02 M104.43 44.4 C116.19 29.99, 127.73 17.27, 142.48 0.63 M104.43 44.4 C118.18 28.13, 133.16 12.1, 142.48 0.63 M109.41 44.76 C116.18 34.62, 127.19 23.86, 147.47 0.99 M109.41 44.76 C118.9 32.26, 129.8 20.56, 147.47 0.99 M114.4 45.12 C126.35 32.2, 139.94 18.29, 151.8 2.1 M114.4 45.12 C126.75 32.1, 136.71 20.28, 151.8 2.1 M120.04 44.73 C129.65 35.28, 138.59 23.79, 154.82 4.73 M120.04 44.73 C128.38 34.56, 137.8 24.79, 154.82 4.73 M125.03 45.09 C132.29 36.64, 136.21 28.28, 157.18 8.11 M125.03 45.09 C131.6 37.33, 136.95 29.81, 157.18 8.11 M130.67 44.69 C136.4 35.65, 146.49 29.67, 156.92 14.5 M130.67 44.69 C135.98 38.43, 141.21 32.3, 156.92 14.5 M135.66 45.05 C142.04 39.66, 146.8 33.91, 157.31 20.15 M135.66 45.05 C142.35 37.49, 148.74 31.13, 157.31 20.15 M141.3 44.66 C145.89 37.74, 150.79 34.8, 157.05 26.55 M141.3 44.66 C146.03 39.23, 151.3 33.85, 157.05 26.55 M146.29 45.02 C150.1 41.84, 152.46 36.47, 156.79 32.94 M146.29 45.02 C149.31 42.71, 151.26 38.26, 156.79 32.94 M153.9 42.36 C154.88 41.55, 155.94 39.65, 157.18 38.59 M153.9 42.36 C154.88 41.12, 156.01 39.83, 157.18 38.59" stroke="#fa5252" stroke-width="0.5" fill="none"></path><path d="M11.18 0 C44.63 -0.75, 80.14 -0.95, 146.12 0 M11.18 0 C41.52 1.74, 74.61 0.47, 146.12 0 M146.12 0 C152.6 1.68, 157.86 3.29, 157.29 11.18 M146.12 0 C152.38 -2.16, 156.26 1.89, 157.29 11.18 M157.29 11.18 C156.35 16.3, 157.26 24, 157.29 33.53 M157.29 11.18 C157.08 18.64, 157.97 26.46, 157.29 33.53 M157.29 33.53 C156.25 39.28, 154.16 46.51, 146.12 44.71 M157.29 33.53 C155.93 43.15, 151.67 44.12, 146.12 44.71 M146.12 44.71 C91.57 44.93, 37.65 44.94, 11.18 44.71 M146.12 44.71 C96.03 45.34, 47.09 45.23, 11.18 44.71 M11.18 44.71 C2.27 45.38, -0.01 41.25, 0 33.53 M11.18 44.71 C3.4 44.33, -0.25 38.89, 0 33.53 M0 33.53 C-0.26 24.37, -1.24 16.98, 0 11.18 M0 33.53 C0.94 24.95, 0.03 16.54, 0 11.18 M0 11.18 C1.63 1.74, 2.34 1.97, 11.18 0 M0 11.18 C2.28 3.42, 4.53 -0.56, 11.18 0" stroke="#846358" stroke-width="1" fill="none"></path></g><g transform="translate(638.6806431892737 408.5713087021634) rotate(0 47.5 11.5)"><text x="47.5" y="0" font-family="Helvetica, Segoe UI Emoji" font-size="20px" fill="#846358" text-anchor="middle" style="white-space: pre;" direction="ltr" dominant-baseline="text-before-edge">jfk1-edge2</text></g><g stroke-linecap="round"><g transform="translate(685.5609532478675 116.62503828456875) rotate(0 -86.02536010742188 16.854562927038444)"><path d="M-0.31 0.12 C-28.85 5.87, -142.52 28.14, -171.06 33.74 M1.73 -0.86 C-26.91 5.17, -142.52 29.3, -171.49 35.29" stroke="#c92a2a" stroke-width="2" fill="none"></path></g></g><mask></mask><g stroke-linecap="round"><g transform="translate(693.5774756238802 332.80304662907315) rotate(0 -89.02212079909879 -86.0455341737736)"><path d="M0.17 -0.06 C-29.65 -28.87, -149.29 -143.41, -178.87 -172.09 M-1.2 -1.13 C-30.64 -29.81, -147.17 -142.27, -176.59 -170.55" stroke="#c92a2a" stroke-width="2" fill="none"></path></g></g><mask></mask><g stroke-linecap="round"><g transform="translate(710.7872314856329 328.4318067520187) rotate(0 6.766543229469221 -90.61386871337879)"><path d="M0.42 0.56 C2.74 -29.82, 10.78 -151.4, 12.81 -181.59 M-0.82 -0.19 C1.99 -30.46, 12.51 -149.84, 15.14 -180.25" stroke="#c92a2a" stroke-width="2" fill="none"></path></g></g><mask></mask><g stroke-linecap="round"><g transform="translate(474.6703484802074 220.22205352988544) rotate(0 134.2480010986328 -18.0214398122921)"><path d="M-0.76 0.94 C44.13 -4.86, 224.47 -29.17, 269.49 -35.33 M1.04 0.4 C45.85 -5.71, 224.4 -31.23, 269.06 -37.08" stroke="#2b8a3e" stroke-width="2" fill="none"></path></g></g><mask></mask><g stroke-linecap="round"><g transform="translate(475.04567948909846 221.31082335946599) rotate(0 72.01565271222768 83.96007333142597)"><path d="M-0.22 1.11 C24.08 29.33, 120.84 140.44, 145.06 168.41 M-1.8 0.64 C22.51 28.58, 120.2 138.79, 144.65 166.55" stroke="#2b8a3e" stroke-width="2" fill="none"></path></g></g><mask></mask><g stroke-linecap="round"><g transform="translate(746.693687449377 210.48398817402563) rotate(0 -50.73879080680922 90.15907984612511)"><path d="M0.42 0.62 C-16.62 30.46, -84.87 149.14, -101.67 179.2 M-0.83 -0.11 C-18.08 29.84, -86.09 150.3, -102.71 180.14" stroke="#2b8a3e" stroke-width="2" fill="none"></path></g></g><mask></mask><g transform="translate(210.51868640216435 92.06628093116728) rotate(0 27.783203125 11.5)"><text x="0" y="0" font-family="Helvetica, Segoe UI Emoji" font-size="20px" fill="#846358" text-anchor="start" style="white-space: pre;" direction="ltr" dominant-baseline="text-before-edge">ORD1</text></g><g stroke-linecap="round" transform="translate(587.3229924324378 311.7609736064526) rotate(0 167.41697692871094 98.00943756103516)"><path d="M0 0 C103.83 2.82, 207.03 1.59, 334.83 0 M334.83 0 C336.76 73.27, 335.83 146.72, 334.83 196.02 M334.83 196.02 C206.57 196.66, 76.11 197.28, 0 196.02 M0 196.02 C-0.06 147.66, -1.47 99.1, 0 0" stroke="#846358" stroke-width="1.5" fill="none" stroke-dasharray="8 9"></path></g><g transform="translate(857.0952397468909 466.35174998634307) rotate(0 23.33984375 11.5)"><text x="0" y="0" font-family="Helvetica, Segoe UI Emoji" font-size="20px" fill="#846358" text-anchor="start" style="white-space: pre;" direction="ltr" dominant-baseline="text-before-edge">JFK1</text></g><g stroke-linecap="round" transform="translate(664.9219914558753 30.78528666284012) rotate(0 167.41697692871094 98.00943756103521)"><path d="M0 0 C128.09 -2.76, 256.12 -1.34, 334.83 0 M334.83 0 C336.21 66.68, 336.9 129.86, 334.83 196.02 M334.83 196.02 C252.21 197.31, 168.95 197.39, 0 196.02 M0 196.02 C-2.24 149.48, 0.71 104.87, 0 0" stroke="#846358" stroke-width="1.5" fill="none" stroke-dasharray="8 9"></path></g><g transform="translate(932.7574101570472 46.9116712509915) rotate(0 23.1640625 11.5)"><text x="0" y="0" font-family="Helvetica, Segoe UI Emoji" font-size="20px" fill="#846358" text-anchor="start" style="white-space: pre;" direction="ltr" dominant-baseline="text-before-edge">ATL1</text></g><g stroke-linecap="round" transform="translate(12.388686041898495 80.17589627341977) rotate(0 79.88697346407395 29.038359300239676)"><path d="M0.93 22.01 C0.93 22.01, 0.93 22.01, 0.93 22.01 M0.93 22.01 C0.93 22.01, 0.93 22.01, 0.93 22.01 M1.72 33.29 C6.43 26.28, 12.48 21.46, 22.05 9.9 M1.72 33.29 C8.51 25.87, 12.81 18.97, 22.05 9.9 M6.44 40.05 C15.92 30.18, 24.19 18.55, 35.31 6.84 M6.44 40.05 C14.66 31.31, 22.75 22.29, 35.31 6.84 M13.79 43.79 C28.04 28.55, 38.25 15.89, 49.88 2.28 M13.79 43.79 C25.82 29.36, 38.3 14.73, 49.88 2.28 M21.14 47.53 C37.66 28.04, 53.71 13.11, 61.16 1.49 M21.14 47.53 C30.77 36.88, 40.49 25.81, 61.16 1.49 M29.15 50.51 C37.09 40.17, 48.56 30.64, 72.45 0.7 M29.15 50.51 C42.85 35.08, 55.19 21.54, 72.45 0.7 M37.81 52.74 C48.95 40.21, 60.4 27.32, 83.73 -0.09 M37.81 52.74 C53.13 36.35, 68.59 19.63, 83.73 -0.09 M46.47 54.97 C61.66 36.73, 77.19 22.61, 93.05 1.39 M46.47 54.97 C60.24 38.12, 76.32 22.1, 93.05 1.39 M55.13 57.2 C71.7 41.31, 85.73 23.54, 102.37 2.86 M55.13 57.2 C67.06 42.49, 79.74 27.81, 102.37 2.86 M65.76 57.17 C75.62 44.7, 83.79 33.43, 111.69 4.34 M65.76 57.17 C80.91 40.33, 95.44 22.93, 111.69 4.34 M75.74 57.89 C87.82 45.17, 99.36 27.97, 121.66 5.06 M75.74 57.89 C92.71 38.4, 109.72 18.77, 121.66 5.06 M85.71 58.61 C96.8 45.13, 111.1 30.37, 129.67 8.04 M85.71 58.61 C102.23 40.05, 117.25 21.56, 129.67 8.04 M96.34 58.57 C105.86 48.7, 113.93 38.43, 137.67 11.03 M96.34 58.57 C106.59 47.12, 115.93 36.28, 137.67 11.03 M108.94 56.27 C118.88 47.57, 126.77 37.36, 146.34 13.26 M108.94 56.27 C118.02 44.66, 128.03 35.39, 146.34 13.26 M120.88 54.73 C125.8 47.59, 134.71 39.37, 152.37 18.5 M120.88 54.73 C126.55 46.58, 134.55 38.52, 152.37 18.5 M136.76 48.66 C145.41 40.56, 150.2 31.54, 157.1 25.26 M136.76 48.66 C142.73 41.99, 148.29 35.38, 157.1 25.26" stroke="#868e96" stroke-width="1" fill="none"></path><path d="M49.84 2.14 C60.15 0.15, 73.83 -0.5, 85.86 0.02 C97.9 0.54, 111.36 2.87, 122.04 5.28 C132.71 7.69, 143.73 10.57, 149.9 14.5 C156.07 18.42, 158.82 24.29, 159.04 28.83 C159.26 33.37, 156.44 37.71, 151.21 41.74 C145.98 45.77, 137.62 50.19, 127.66 52.99 C117.7 55.8, 103.57 57.99, 91.45 58.58 C79.33 59.18, 66.39 58.23, 54.93 56.57 C43.46 54.91, 31.45 51.85, 22.65 48.61 C13.84 45.37, 5.75 41.53, 2.1 37.12 C-1.55 32.72, -1.86 26.69, 0.77 22.18 C3.41 17.68, 8.57 13.64, 17.92 10.11 C27.27 6.57, 49.1 2.45, 56.87 0.99 C64.63 -0.48, 64.02 0.95, 64.49 1.31 M43.25 3.15 C53.25 1, 67.75 0.74, 79.94 0.62 C92.13 0.5, 105.5 0.54, 116.4 2.43 C127.31 4.32, 138.08 8.34, 145.38 11.98 C152.68 15.63, 158.58 19.7, 160.2 24.29 C161.83 28.88, 159.5 35.26, 155.14 39.53 C150.78 43.8, 143.24 47.09, 134.02 49.92 C124.81 52.74, 111.93 55.5, 99.84 56.49 C87.75 57.49, 73.49 56.84, 61.49 55.88 C49.5 54.92, 37.33 53.58, 27.88 50.75 C18.42 47.93, 9.26 43.02, 4.76 38.93 C0.25 34.83, -0.62 30.71, 0.86 26.19 C2.34 21.66, 6.63 15.51, 13.63 11.78 C20.62 8.05, 37.64 5.35, 42.83 3.81 C48.02 2.27, 44.06 2.26, 44.78 2.53" stroke="#846358" stroke-width="2" fill="none"></path></g><g transform="translate(61.27565950597244 97.71425557365944) rotate(0 31.00000000000003 11.5)"><text x="31" y="0" font-family="Helvetica, Segoe UI Emoji" font-size="20px" fill="#846358" text-anchor="middle" style="white-space: pre;" direction="ltr" dominant-baseline="text-before-edge">Transit</text></g><g stroke-linecap="round" transform="translate(9.999999999999943 220.88667283684504) rotate(0 79.88697346407392 29.038359300239676)"><path d="M3.02 21.18 C3.02 21.18, 3.02 21.18, 3.02 21.18 M3.02 21.18 C3.02 21.18, 3.02 21.18, 3.02 21.18 M1.19 35.48 C9.48 29.38, 14.64 21.2, 23.49 9.82 M1.19 35.48 C6.1 29.17, 13.06 22.76, 23.49 9.82 M7.22 40.73 C14.16 30.16, 21.71 23.74, 37.4 6.01 M7.22 40.73 C16.47 29.69, 26.41 18.57, 37.4 6.01 M13.92 45.22 C29.58 28.82, 43.59 12.88, 51.31 2.21 M13.92 45.22 C28.48 28.7, 44.2 9.9, 51.31 2.21 M21.27 48.96 C30.06 38.83, 39.32 30.72, 61.94 2.17 M21.27 48.96 C34.4 33.33, 46.7 19.79, 61.94 2.17 M29.93 51.19 C47.35 31.59, 61.11 15.12, 73.23 1.38 M29.93 51.19 C42.95 35.02, 57.9 19.67, 73.23 1.38 M38.59 53.42 C58.14 33.52, 72.74 14.86, 84.52 0.59 M38.59 53.42 C53.94 38.18, 67.37 21.01, 84.52 0.59 M47.25 55.65 C60.16 41.81, 71.27 26.99, 95.15 0.56 M47.25 55.65 C62.7 36.41, 79.11 19.36, 95.15 0.56 M56.57 57.13 C76.29 34.86, 96.06 13.05, 104.46 2.03 M56.57 57.13 C74.33 36.99, 92.77 16.22, 104.46 2.03 M67.2 57.09 C76.34 44.05, 90.15 30.2, 113.78 3.51 M67.2 57.09 C81.07 40.5, 94.47 25.7, 113.78 3.51 M77.18 57.81 C85.7 48.63, 95.32 36.76, 123.76 4.23 M77.18 57.81 C88.52 45.38, 98.53 33.18, 123.76 4.23 M87.81 57.78 C97.25 43.95, 109.08 34.77, 131.76 7.21 M87.81 57.78 C98.22 45.29, 110.14 32.94, 131.76 7.21 M99.09 56.99 C111.21 45.6, 122.22 32.48, 139.11 10.95 M99.09 56.99 C111.67 43.88, 123.19 29.24, 139.11 10.95 M111.03 55.45 C122.14 43.18, 132.42 27.16, 147.12 13.94 M111.03 55.45 C123.98 41.5, 137.01 27.09, 147.12 13.94 M123.63 53.15 C132.66 44.02, 139.97 35.68, 153.16 19.18 M123.63 53.15 C130.28 45.09, 139.67 35.76, 153.16 19.18 M139.51 47.07 C145.25 41.17, 149.93 34.62, 157.88 25.94 M139.51 47.07 C145.62 39.02, 154.02 31.04, 157.88 25.94" stroke="#228be6" stroke-width="1" fill="none"></path><path d="M51.5 2.29 C62.04 0.34, 77.94 -0.5, 90.3 -0.07 C102.65 0.35, 115.5 2.28, 125.6 4.85 C135.7 7.42, 145.14 11.36, 150.91 15.34 C156.68 19.32, 160.28 24.18, 160.23 28.74 C160.18 33.31, 156.67 38.72, 150.61 42.73 C144.56 46.74, 134.09 50.29, 123.9 52.77 C113.71 55.25, 101.76 56.99, 89.46 57.61 C77.16 58.24, 61.78 58.07, 50.11 56.52 C38.45 54.98, 27.62 51.75, 19.48 48.35 C11.33 44.95, 4.02 40.61, 1.24 36.13 C-1.54 31.65, -0.59 25.72, 2.78 21.46 C6.15 17.2, 12.16 13.88, 21.46 10.56 C30.75 7.25, 51.11 3.12, 58.53 1.56 C65.94 0.01, 65.69 0.8, 65.96 1.24 M59.27 -0.53 C70.18 -1.89, 86.65 -1, 98.71 0.39 C110.78 1.79, 122.45 4.9, 131.63 7.84 C140.82 10.78, 149.19 13.86, 153.8 18.04 C158.41 22.23, 160.63 28.51, 159.32 32.96 C158 37.41, 153.08 41.35, 145.9 44.76 C138.71 48.18, 126.97 51.34, 116.22 53.43 C105.46 55.53, 93.65 56.97, 81.35 57.32 C69.04 57.66, 53.67 57.25, 42.37 55.5 C31.07 53.75, 20.52 50.8, 13.55 46.82 C6.58 42.84, 1.81 36.24, 0.54 31.63 C-0.72 27.01, 1.58 23.13, 5.96 19.12 C10.34 15.11, 17.5 10.68, 26.83 7.57 C36.16 4.46, 56.2 1.33, 61.93 0.46 C67.67 -0.41, 61.09 1.62, 61.23 2.36" stroke="#364fc7" stroke-width="2" fill="none"></path></g><g transform="translate(54.38697346407395 238.42503213708483) rotate(0 35.49999999999997 11.5)"><text x="35.5" y="0" font-family="Helvetica, Segoe UI Emoji" font-size="20px" fill="#364fc7" text-anchor="middle" style="white-space: pre;" direction="ltr" dominant-baseline="text-before-edge">Peering</text></g><g stroke-linecap="round" transform="translate(586.6231568695681 534.7119394287126) rotate(0 79.88697346407395 29.038359300239676)"><path d="M1.5 25.15 C1.5 25.15, 1.5 25.15, 1.5 25.15 M1.5 25.15 C1.5 25.15, 1.5 25.15, 1.5 25.15 M3.6 34.93 C10.21 26.26, 20.81 15.49, 25.25 10.03 M3.6 34.93 C9 29.45, 12.42 24.11, 25.25 10.03 M8.98 40.93 C14.85 33.49, 22.28 26.7, 40.47 4.71 M8.98 40.93 C19.8 28.71, 31.6 15.75, 40.47 4.71 M16.33 44.67 C29.92 32.02, 39.84 17.72, 53.07 2.41 M16.33 44.67 C28.61 30.92, 40.27 16.25, 53.07 2.41 M23.03 49.17 C38.79 33.51, 50.97 16.75, 65.01 0.87 M23.03 49.17 C31.39 39.64, 41.58 29.29, 65.01 0.87 M31.69 51.4 C49.39 32.01, 65.7 8.37, 76.3 0.08 M31.69 51.4 C43.84 38.62, 55.56 24.01, 76.3 0.08 M40.35 53.63 C51.09 38.44, 64.4 23.17, 87.59 -0.71 M40.35 53.63 C55.6 37.13, 68.34 21.72, 87.59 -0.71 M49.01 55.86 C62.66 40.01, 75.13 26.17, 96.91 0.76 M49.01 55.86 C61.8 42.6, 73.86 26.75, 96.91 0.76 M57.67 58.09 C68.08 44.67, 79.16 30.51, 106.88 1.48 M57.67 58.09 C77.49 35.61, 96.75 11.65, 106.88 1.48 M68.3 58.05 C84.73 36.52, 103.13 18.85, 116.2 2.96 M68.3 58.05 C80.58 42.15, 95.15 26.91, 116.2 2.96 M78.93 58.02 C95.36 36.69, 111.97 17.29, 124.86 5.19 M78.93 58.02 C91.35 44.36, 103.46 31.05, 124.86 5.19 M89.56 57.98 C101.36 45.13, 116.29 29.72, 132.86 8.17 M89.56 57.98 C99.63 47.05, 108.64 36.17, 132.86 8.17 M100.85 57.19 C110.86 44.32, 119.56 31.36, 140.87 11.16 M100.85 57.19 C115.81 39.91, 130.68 24.36, 140.87 11.16 M113.45 54.89 C127.84 39.46, 141.4 24.77, 148.22 14.9 M113.45 54.89 C124.13 41.11, 136.05 27.25, 148.22 14.9 M126.05 52.6 C135.28 41.94, 146.18 30.87, 153.6 20.9 M126.05 52.6 C133.96 42.59, 143.3 31.88, 153.6 20.9 M141.93 46.52 C144.08 43.73, 148.1 38.91, 158.98 26.9 M141.93 46.52 C146.51 42.66, 149.44 36.34, 158.98 26.9" stroke="#868e96" stroke-width="1" fill="none"></path><path d="M45.68 2.62 C55.92 0.1, 71.32 -1.02, 83.55 -0.93 C95.79 -0.84, 108.52 0.75, 119.08 3.15 C129.65 5.55, 140.22 9.43, 146.94 13.47 C153.66 17.52, 158.47 22.85, 159.41 27.41 C160.35 31.97, 157.53 36.73, 152.6 40.85 C147.66 44.97, 139.24 49.27, 129.82 52.14 C120.39 55, 108.11 57.13, 96.05 58.04 C84 58.95, 69.42 58.99, 57.48 57.6 C45.55 56.2, 33.33 52.9, 24.44 49.66 C15.55 46.42, 7.93 42.27, 4.14 38.14 C0.36 34.01, -0.23 29.2, 1.72 24.9 C3.68 20.6, 8.07 16.25, 15.87 12.35 C23.67 8.46, 42.44 3.32, 48.51 1.52 C54.58 -0.27, 51.89 1.06, 52.27 1.56 M44.79 3.31 C54.5 0.95, 68.19 0.27, 80.49 0.21 C92.8 0.14, 107.68 0.8, 118.61 2.93 C129.55 5.05, 139.22 9.11, 146.11 12.96 C153 16.82, 158.9 21.58, 159.97 26.04 C161.03 30.5, 157.17 35.35, 152.53 39.71 C147.88 44.07, 141.26 49.12, 132.07 52.2 C122.88 55.28, 109.49 57.47, 97.4 58.22 C85.31 58.97, 71.3 58.2, 59.53 56.71 C47.76 55.22, 35.93 52.35, 26.78 49.29 C17.64 46.22, 8.8 42.41, 4.65 38.33 C0.5 34.24, -0.05 29.22, 1.91 24.78 C3.86 20.33, 9.09 15.04, 16.38 11.65 C23.67 8.26, 41.04 5.86, 45.64 4.44 C50.25 3.02, 43.75 3.02, 44.01 3.11" stroke="#846358" stroke-width="2" fill="none"></path></g><g transform="translate(635.5101303336423 552.250298728952) rotate(0 31 11.5)"><text x="31" y="0" font-family="Helvetica, Segoe UI Emoji" font-size="20px" fill="#846358" text-anchor="middle" style="white-space: pre;" direction="ltr" dominant-baseline="text-before-edge">Transit</text></g><g stroke-linecap="round" transform="translate(793.7020740945707 532.8405645638) rotate(0 79.88697346407389 29.038359300239676)"><path d="M-0.02 27.81 C-0.02 27.81, -0.02 27.81, -0.02 27.81 M-0.02 27.81 C-0.02 27.81, -0.02 27.81, -0.02 27.81 M4.05 35.32 C9.71 29.09, 11.25 23.93, 17.17 20.22 M4.05 35.32 C7.81 30.09, 11.38 26.23, 17.17 20.22 M8.77 42.08 C15.28 35.72, 23.99 25.52, 38.95 7.36 M8.77 42.08 C17.54 32.64, 24.89 23.54, 38.95 7.36 M16.12 45.82 C27.08 32.75, 41.84 18.01, 51.55 5.06 M16.12 45.82 C29.92 29.38, 44.44 13.56, 51.55 5.06 M23.47 49.55 C37.68 32.79, 52.74 12.78, 63.49 3.52 M23.47 49.55 C35.94 36.59, 47.88 22.72, 63.49 3.52 M30.82 53.29 C46.94 30.99, 65.59 12.89, 75.43 1.97 M30.82 53.29 C42.56 39.33, 54.36 25.56, 75.43 1.97 M37.52 57.79 C53.36 37.8, 70.44 18.91, 86.06 1.94 M37.52 57.79 C51.16 41.56, 65.79 24.99, 86.06 1.94 M46.83 59.26 C56.47 48.36, 65.69 36.55, 96.04 2.66 M46.83 59.26 C58.75 44.14, 70.55 30.91, 96.04 2.66 M56.15 60.74 C71.93 40.4, 92.39 20.67, 106.01 3.38 M56.15 60.74 C74.48 38.04, 94.09 17.33, 106.01 3.38 M68.09 59.19 C86.92 39.24, 103.53 18.94, 115.33 4.85 M68.09 59.19 C87.65 37.64, 105.98 16.08, 115.33 4.85 M79.38 58.4 C93.28 39.96, 109.67 24.59, 123.99 7.08 M79.38 58.4 C95.05 41.61, 109.15 22.45, 123.99 7.08 M90.01 58.37 C108.73 39.1, 122.45 20.34, 132.65 9.31 M90.01 58.37 C102.04 44.48, 113.17 31.73, 132.65 9.31 M100.64 58.34 C113.15 40.45, 130.54 23.69, 141.97 10.79 M100.64 58.34 C115.64 42.44, 130.64 25.03, 141.97 10.79 M109.3 60.57 C125.57 43.93, 139.71 27.96, 148.01 16.04 M109.3 60.57 C118.61 48.99, 129.79 37.74, 148.01 16.04 M122.56 57.51 C130.43 49.6, 136.37 42.3, 154.7 20.53 M122.56 57.51 C132.64 45.42, 142.16 34.79, 154.7 20.53 M138.44 51.44 C145.21 43.36, 152.35 32.81, 160.74 25.78 M138.44 51.44 C146.08 40.76, 155.17 32.59, 160.74 25.78" stroke="#228be6" stroke-width="1" fill="none"></path><path d="M111.54 1.3 C122.71 2.48, 133.31 6.22, 141.02 9.85 C148.73 13.49, 155.18 18.46, 157.8 23.11 C160.41 27.77, 160.18 33.37, 156.7 37.78 C153.23 42.19, 145.59 46.33, 136.94 49.57 C128.29 52.81, 116.4 55.76, 104.81 57.22 C93.22 58.67, 79.59 59.02, 67.41 58.31 C55.24 57.61, 41.75 55.84, 31.78 53 C21.8 50.15, 12.86 45.44, 7.55 41.25 C2.25 37.05, -0.66 32.2, -0.05 27.84 C0.55 23.48, 5.04 18.83, 11.18 15.07 C17.32 11.3, 26.5 7.88, 36.81 5.25 C47.12 2.61, 59.95 -0.2, 73.05 -0.72 C86.16 -1.24, 107.92 1.36, 115.45 2.12 C122.97 2.89, 118.95 3.23, 118.17 3.89 M94.02 0.72 C105.72 0.96, 120.16 2.91, 129.93 5.67 C139.7 8.43, 147.58 13.09, 152.62 17.31 C157.67 21.53, 161.22 26.51, 160.18 30.98 C159.14 35.45, 152.92 40.11, 146.39 44.13 C139.86 48.14, 131.41 52.61, 121 55.07 C110.59 57.53, 96.3 58.9, 83.92 58.89 C71.55 58.89, 57.79 57.24, 46.74 55.03 C35.68 52.82, 25.2 49.22, 17.6 45.64 C10.01 42.05, 3.3 37.82, 1.19 33.54 C-0.92 29.26, 0.94 24.23, 4.95 19.96 C8.96 15.68, 16.35 10.79, 25.24 7.9 C34.13 5.01, 46.81 3.92, 58.29 2.61 C69.77 1.31, 88.14 0.42, 94.13 0.05 C100.11 -0.31, 94.42 -0.15, 94.2 0.41" stroke="#364fc7" stroke-width="2" fill="none"></path></g><g transform="translate(838.0890475586455 550.3789238640397) rotate(0 35.5 11.5)"><text x="35.5" y="0" font-family="Helvetica, Segoe UI Emoji" font-size="20px" fill="#364fc7" text-anchor="middle" style="white-space: pre;" direction="ltr" dominant-baseline="text-before-edge">Peering</text></g><g stroke-linecap="round" transform="translate(1018.5919700553413 10) rotate(0 79.886973464074 29.038359300239676)"><path d="M0 26.5 C0 26.5, 0 26.5, 0 26.5 M0 26.5 C0 26.5, 0 26.5, 0 26.5 M4.07 34.01 C10.19 25.91, 14.4 20.89, 17.85 18.16 M4.07 34.01 C8.39 28.2, 13.86 23.15, 17.85 18.16 M8.14 41.53 C20.8 27.25, 32.34 15.56, 41.6 3.04 M8.14 41.53 C17.69 28.71, 28.2 17.25, 41.6 3.04 M15.49 45.26 C29.54 28.94, 41.97 16.62, 52.88 2.25 M15.49 45.26 C25.84 32.21, 35.9 22.04, 52.88 2.25 M22.84 49 C34.74 32.31, 47.49 17.44, 64.17 1.46 M22.84 49 C30.85 39.28, 39.8 29.42, 64.17 1.46 M30.19 52.74 C41.27 36.56, 53.87 24.09, 75.46 0.67 M30.19 52.74 C43.86 35.9, 57.18 20.4, 75.46 0.67 M38.85 54.97 C49.63 41.71, 60.33 32.76, 82.81 4.41 M38.85 54.97 C49.79 43.17, 59.34 32.99, 82.81 4.41 M48.17 56.45 C60.77 38.98, 77.47 22.38, 92.78 5.13 M48.17 56.45 C59.74 41.12, 74.04 28.58, 92.78 5.13 M57.49 57.92 C70.93 40.2, 84.99 25.74, 103.41 5.09 M57.49 57.92 C70.44 42.59, 85.55 26.4, 103.41 5.09 M65.49 60.91 C77.76 47.18, 90.74 32.85, 116.01 2.79 M65.49 60.91 C79.8 45.04, 91.34 31.02, 116.01 2.79 M76.78 60.12 C91.73 43.64, 109.37 24.91, 124.01 5.78 M76.78 60.12 C88.42 47.25, 100.19 31.51, 124.01 5.78 M87.41 60.08 C95.08 48.92, 107.03 38.39, 132.02 8.76 M87.41 60.08 C103.92 40.8, 123.38 19.26, 132.02 8.76 M101.32 56.28 C108.09 47.66, 119.59 34.76, 140.03 11.75 M101.32 56.28 C114.89 40.6, 128.65 25.13, 140.03 11.75 M113.92 53.98 C123.11 41.87, 133.59 33.16, 146.72 16.24 M113.92 53.98 C124.52 43.75, 132.84 31.84, 146.72 16.24 M126.52 51.68 C133.2 42.71, 138.52 36.08, 153.41 20.73 M126.52 51.68 C135.7 40.56, 145.48 29, 153.41 20.73 M136.49 52.4 C143.21 44.11, 154.52 31.35, 160.76 24.47 M136.49 52.4 C141.94 44.83, 147.2 39.12, 160.76 24.47" stroke="#868e96" stroke-width="1" fill="none"></path><path d="M115.86 2.63 C126.61 4.47, 136.37 9.41, 143.72 13.03 C151.06 16.65, 158 20.19, 159.93 24.37 C161.85 28.55, 159.59 33.74, 155.28 38.1 C150.97 42.47, 143.1 47.51, 134.06 50.54 C125.03 53.56, 113.13 55.09, 101.09 56.25 C89.06 57.41, 74.04 58.33, 61.87 57.51 C49.69 56.68, 37.24 54.19, 28.05 51.31 C18.86 48.42, 11.43 44.3, 6.73 40.2 C2.03 36.09, -1.07 31.14, -0.14 26.66 C0.8 22.18, 5.49 17.27, 12.35 13.29 C19.2 9.32, 29.98 5.01, 41 2.83 C52.03 0.65, 65.51 0.12, 78.48 0.21 C91.46 0.29, 111.89 2.44, 118.84 3.34 C125.8 4.25, 121.07 5.13, 120.19 5.64 M114.34 2.62 C125.26 3.99, 135.88 7.48, 143.52 11.2 C151.16 14.91, 158.25 20.13, 160.18 24.91 C162.12 29.69, 159.33 35.4, 155.13 39.87 C150.93 44.33, 143.82 48.65, 135 51.7 C126.18 54.75, 114.05 57, 102.2 58.16 C90.35 59.32, 76.2 59.94, 63.92 58.64 C51.65 57.34, 38.41 53.59, 28.54 50.37 C18.67 47.15, 9.35 43.25, 4.71 39.31 C0.07 35.37, -0.58 31.04, 0.69 26.73 C1.96 22.43, 5.47 17.25, 12.32 13.49 C19.16 9.72, 30.76 6.53, 41.79 4.15 C52.81 1.78, 66.02 -0.49, 78.48 -0.76 C90.94 -1.03, 110.8 2.02, 116.54 2.55 C122.29 3.09, 113.84 1.91, 112.95 2.46" stroke="#846358" stroke-width="2" fill="none"></path></g><g transform="translate(1067.4789435194152 27.53835930023979) rotate(0 31 11.5)"><text x="31" y="0" font-family="Helvetica, Segoe UI Emoji" font-size="20px" fill="#846358" text-anchor="middle" style="white-space: pre;" direction="ltr" dominant-baseline="text-before-edge">Transit</text></g><g stroke-linecap="round" transform="translate(1017.92940256722 144.26118054485664) rotate(0 79.88697346407389 29.038359300239676)"><path d="M1.17 24.86 C1.17 24.86, 1.17 24.86, 1.17 24.86 M1.17 24.86 C1.17 24.86, 1.17 24.86, 1.17 24.86 M3.27 34.64 C10.97 24.79, 20.68 13.95, 24.92 9.73 M3.27 34.64 C10.79 26.5, 18.86 17.29, 24.92 9.73 M8.65 40.64 C19.49 30.01, 28.7 18.29, 38.83 5.93 M8.65 40.64 C19.34 27.96, 30.56 16.58, 38.83 5.93 M15.34 45.14 C29.12 31.34, 38.96 15.57, 51.43 3.63 M15.34 45.14 C29.07 29.97, 43.83 13.82, 51.43 3.63 M22.04 49.63 C35.1 32.54, 49.12 17.95, 63.37 2.08 M22.04 49.63 C33.14 37.08, 43.02 26.03, 63.37 2.08 M30.7 51.86 C39.36 41.3, 50.64 31.37, 75.31 0.54 M30.7 51.86 C43.9 36.13, 57.65 19.47, 75.31 0.54 M39.36 54.09 C58.57 34.61, 73.95 10.78, 85.94 0.51 M39.36 54.09 C58.12 33.59, 75.55 13.01, 85.94 0.51 M48.68 55.57 C68.01 34.29, 83.17 15.32, 95.91 1.23 M48.68 55.57 C66.4 38.11, 81.67 18.72, 95.91 1.23 M57.34 57.79 C75.73 36.98, 94.52 14.48, 105.89 1.95 M57.34 57.79 C74.63 38.88, 89.66 19.39, 105.89 1.95 M67.97 57.76 C81.73 42.31, 93.62 26.31, 115.21 3.42 M67.97 57.76 C85.16 37.53, 104.45 16.66, 115.21 3.42 M78.6 57.73 C98.26 37.98, 112.98 18.57, 124.52 4.9 M78.6 57.73 C92.67 39.95, 106.08 24.95, 124.52 4.9 M88.57 58.45 C107.06 39.12, 124.5 21.21, 132.53 7.88 M88.57 58.45 C98.9 47.32, 106.42 37.17, 132.53 7.88 M99.86 57.66 C117.39 37.51, 133.52 19.9, 140.54 10.86 M99.86 57.66 C107.91 48.46, 117.62 37.78, 140.54 10.86 M112.46 55.36 C121.24 47.3, 129.81 34.78, 147.89 14.6 M112.46 55.36 C119.18 46.23, 127.39 36.82, 147.89 14.6 M125.06 53.06 C134.36 40.84, 146.1 29.61, 153.92 19.85 M125.06 53.06 C130.47 45.86, 137.41 40.36, 153.92 19.85 M140.94 46.99 C149.66 37.06, 153.64 29.73, 159.96 25.1 M140.94 46.99 C146.43 39.87, 153.96 33.36, 159.96 25.1" stroke="#228be6" stroke-width="1" fill="none"></path><path d="M43.8 3.93 C53.95 1.64, 70.53 -0.42, 83.09 -0.57 C95.64 -0.72, 108.5 0.72, 119.13 3.04 C129.76 5.37, 140.08 9.64, 146.88 13.38 C153.68 17.13, 158.88 21.04, 159.94 25.52 C161.01 30, 158.08 35.91, 153.27 40.23 C148.45 44.56, 140.31 48.54, 131.06 51.45 C121.81 54.37, 109.92 56.71, 97.75 57.73 C85.59 58.74, 70.28 58.77, 58.05 57.56 C45.81 56.35, 33.35 53.78, 24.36 50.48 C15.37 47.19, 7.97 42.05, 4.1 37.79 C0.22 33.53, -0.85 29.29, 1.11 24.93 C3.08 20.56, 5.98 15.47, 15.89 11.62 C25.81 7.77, 50.48 3.6, 60.61 1.8 C70.75 0, 76.21 0.52, 76.7 0.83 M80.69 -0.72 C92.81 -0.97, 108.82 1.25, 119.78 3.75 C130.73 6.25, 139.71 10.33, 146.41 14.3 C153.1 18.28, 158.51 23.13, 159.96 27.59 C161.41 32.04, 159.66 36.89, 155.12 41.03 C150.57 45.17, 142.3 49.84, 132.68 52.41 C123.06 54.99, 109.86 55.81, 97.39 56.47 C84.92 57.12, 69.77 57.29, 57.87 56.34 C45.97 55.39, 34.98 53.67, 25.99 50.79 C17.01 47.91, 8.01 43.3, 3.96 39.06 C-0.09 34.83, -0.29 30.02, 1.68 25.39 C3.66 20.76, 8.49 15.06, 15.82 11.27 C23.15 7.47, 34.97 4.67, 45.68 2.62 C56.4 0.57, 74.19 -0.74, 80.11 -1.04 C86.02 -1.34, 80.71 -0.1, 81.17 0.81" stroke="#364fc7" stroke-width="2" fill="none"></path></g><g transform="translate(1062.316376031294 161.79953984509643) rotate(0 35.5 11.5)"><text x="35.5" y="0" font-family="Helvetica, Segoe UI Emoji" font-size="20px" fill="#364fc7" text-anchor="middle" style="white-space: pre;" direction="ltr" dominant-baseline="text-before-edge">Peering</text></g><g stroke-linecap="round"><g transform="translate(669.5993206576111 118.26261728550651) rotate(0 -85.96841430664062 17.000223027768527)"><path d="M0.82 1.03 C-27.74 6.69, -143.43 29.41, -172.09 35.06 M-0.2 0.53 C-28.87 6.38, -144.57 28.07, -173.12 33.5" stroke="#c92a2a" stroke-width="2" fill="none"></path></g></g><mask></mask><g stroke-linecap="round"><g transform="translate(1025.034108589941 54.75897573117959) rotate(0 -82.37197236682914 29.587382594466476)"><path d="M1.06 0.79 C-26.42 10.79, -136.21 50.19, -163.83 59.84 M0.16 0.16 C-27.49 9.83, -136.71 48.14, -164.3 58.07" stroke="#495057" stroke-width="2" fill="none"></path></g></g><mask></mask><g stroke-linecap="round"><g transform="translate(1035.1697366152246 68.31456171623779) rotate(0 -58.212035593031715 57.01311574512107)"><path d="M-0.44 -0.49 C-19.87 18.5, -96.06 93.79, -115.51 112.9 M1.54 -1.79 C-18.07 17.4, -96.62 94.28, -115.98 113.84" stroke="#495057" stroke-width="2" fill="none"></path></g></g><mask></mask><g stroke-linecap="round"><g transform="translate(1014.8353984939997 158.73197238863452) rotate(0 -73.55178813670102 -19.60697744865513)"><path d="M0.49 -0.1 C-24.16 -6.76, -123.56 -32.88, -147.98 -39.49 M-0.71 -1.2 C-24.97 -7.72, -121.48 -31.84, -145.72 -38.1" stroke="#364fc7" stroke-width="2" fill="none"></path></g></g><mask></mask><g stroke-linecap="round"><g transform="translate(1014.5994107226056 183.0679770198917) rotate(0 -47.639804137946726 4.643942059908909)"><path d="M-0.68 0.97 C-16.59 2.6, -79.13 8.98, -95.01 10.42 M1.16 0.43 C-14.93 1.71, -79.44 7.12, -95.81 8.89" stroke="#364fc7" stroke-width="2" fill="none"></path></g></g><mask></mask><g stroke-linecap="round"><g transform="translate(297.60720041532613 219.74826087052543) rotate(0 -59.78494758582457 13.54108031500266)"><path d="M-0.18 -0.01 C-20.18 4.66, -98.76 23.58, -118.85 27.96 M-1.73 -1.07 C-21.94 3.28, -99.97 21.59, -119.42 26.3" stroke="#364fc7" stroke-width="2" fill="none"></path></g></g><mask></mask><g stroke-linecap="round"><g transform="translate(338.8944536583549 151.81346090539546) rotate(0 -85.72712049807228 40.216400126405006)"><path d="M-0.01 0.72 C-28.43 13.96, -141.87 66.04, -170.58 79.28 M-1.48 0.05 C-29.97 13.41, -143.01 66.67, -171.07 80.21" stroke="#364fc7" stroke-width="2" fill="none"></path></g></g><mask></mask><g stroke-linecap="round"><g transform="translate(342.9472739392902 141.05559332891687) rotate(0 -81.21242068502391 -13.294253787875675)"><path d="M0.44 -0.63 C-26.59 -5.24, -134.81 -22.37, -162.07 -26.9 M-0.78 1.66 C-27.96 -2.84, -135.59 -20.73, -162.83 -25.53" stroke="#846358" stroke-width="2" fill="none"></path></g></g><mask></mask><g stroke-linecap="round"><g transform="translate(298.9043432660602 205.60941374494882) rotate(0 -63.67096545037225 -39.44520435186706)"><path d="M-0.39 -0.63 C-21.72 -13.74, -106.48 -65.38, -127.81 -78.54 M1.61 1.66 C-19.94 -11.84, -107.73 -67.1, -129 -80.48" stroke="#846358" stroke-width="2" fill="none"></path></g></g><mask></mask><g stroke-linecap="round"><g transform="translate(802.8404042586862 389.0435608494031) rotate(0 -40.64039144488697 71.74972076712027)"><path d="M0.99 -0.54 C-12.6 23.24, -67.32 119.75, -81.12 143.82 M0.05 1.79 C-13.73 25.7, -68.17 118.55, -81.99 141.86" stroke="#846358" stroke-width="2" fill="none"></path></g></g><mask></mask><g stroke-linecap="round"><g transform="translate(673.7037898079909 452.2860741805698) rotate(0 2.0706571658525945 35.246952616444105)"><path d="M-0.54 0.16 C0.01 11.65, 3.62 58.2, 4.46 69.96 M1.38 -0.81 C1.7 10.76, 3.26 59.06, 3.68 71.22" stroke="#846358" stroke-width="2" fill="none"></path></g></g><mask></mask><g stroke-linecap="round"><g transform="translate(707.5062966683802 452.9561614437189) rotate(0 57.86879552530638 41.09564135692358)"><path d="M0.53 0.74 C19.86 14.52, 97.19 69.4, 116.47 82.81 M-0.66 0.08 C18.54 13.5, 96.51 67.36, 115.9 81.01" stroke="#364fc7" stroke-width="2" fill="none"></path></g></g><mask></mask><g stroke-linecap="round"><g transform="translate(822.5534384263426 389.96317609080756) rotate(0 13.833066960460428 67.55050380005025)"><path d="M0.91 -0.12 C5.52 22.51, 22.76 112.8, 27.09 135.41 M-0.08 -1.23 C4.99 21.06, 24.59 111, 29.49 133.45" stroke="#364fc7" stroke-width="2" fill="none"></path></g></g><mask></mask><g stroke-linecap="round"><g transform="translate(217.80209730489378 445.52982908008244) rotate(0 42.91823401749724 -0.790625796767813)"><path d="M-0.31 0.54 C14.17 0.53, 72.59 -0.4, 87.01 -0.6 M1.73 -0.22 C16.14 -0.5, 72.7 -1.82, 86.68 -2.21" stroke="#2b8a3e" stroke-width="2" fill="none"></path></g></g><mask></mask><g stroke-linecap="round"><g transform="translate(304.2305028696305 397.8122726560771) rotate(0 -45.382826891595585 0.8312730143425142)"><path d="M0.54 1.18 C-14.33 1.57, -74.72 2.01, -89.79 2.05 M-0.63 0.75 C-15.53 0.8, -75.3 -0.17, -90.22 0.13" stroke="#c92a2a" stroke-width="2" fill="none"></path></g></g><mask></mask><g transform="translate(328.5070710509722 386.08802682846544) rotate(0 55.34453582763672 13.63551740554874)"><text x="0" y="0" font-family="Helvetica, Segoe UI Emoji" font-size="23.713943313997756px" fill="#846358" text-anchor="start" style="white-space: pre;" direction="ltr" dominant-baseline="text-before-edge">Provider A</text></g><g transform="translate(330.4669360994508 428.0786883363371) rotate(0 55.34453582763672 13.63551740554874)"><text x="0" y="0" font-family="Helvetica, Segoe UI Emoji" font-size="23.713943313997756px" fill="#846358" text-anchor="start" style="white-space: pre;" direction="ltr" dominant-baseline="text-before-edge">Provider B</text></g></svg>