<svg version="1.1" xmlns="http://www.w3.org/2000/svg" viewBox="0 0 787.2869262695312 280.0122985839844" width="787.2869262695312" height="280.0122985839844">
  <!-- svg-source:excalidraw -->
  
  <defs>
    <style class="style-fonts">
      @font-face {
        font-family: "Virgil";
        src: url("https://file%2B.vscode-resource.vscode-cdn.net/Users/pete/.vscode/extensions/pomdtr.excalidraw-editor-3.7.4/public//dist/excalidraw-assets/Virgil.woff2");
      }
      @font-face {
        font-family: "Cascadia";
        src: url("https://file%2B.vscode-resource.vscode-cdn.net/Users/pete/.vscode/extensions/pomdtr.excalidraw-editor-3.7.4/public//dist/excalidraw-assets/Cascadia.woff2");
      }
      @font-face {
        font-family: "Assistant";
        src: url("https://file%2B.vscode-resource.vscode-cdn.net/Users/pete/.vscode/extensions/pomdtr.excalidraw-editor-3.7.4/public//dist/excalidraw-assets/Assistant-Regular.woff2");
      }
    </style>
    
  </defs>
  <g stroke-linecap="round" transform="translate(10 101.916015625) rotate(0 176.650390625 84.04814147949219)"><path d="M32 0 C139.24 0.15, 244.36 -1.1, 321.3 0 M32 0 C111.96 -2.28, 192.49 -2.66, 321.3 0 M321.3 0 C344.18 1.77, 352.87 9.91, 353.3 32 M321.3 0 C341 -0.32, 354.8 8.41, 353.3 32 M353.3 32 C352.12 68.81, 352.25 103.84, 353.3 136.1 M353.3 32 C355.13 63.55, 353.38 95.18, 353.3 136.1 M353.3 136.1 C353.88 159.31, 341.2 166.92, 321.3 168.1 M353.3 136.1 C353.7 157.77, 341.64 167.3, 321.3 168.1 M321.3 168.1 C245.43 165.65, 166.66 165.74, 32 168.1 M321.3 168.1 C210.42 167.36, 98.71 167.55, 32 168.1 M32 168.1 C8.69 167.97, -1.13 157.08, 0 136.1 M32 168.1 C9.32 167.97, 2.09 156.84, 0 136.1 M0 136.1 C0.18 107.14, -0.59 76.21, 0 32 M0 136.1 C0.57 114.08, 0.42 92.46, 0 32 M0 32 C-1.84 9.38, 10.61 1.17, 32 0 M0 32 C-0.71 10.26, 9.95 -1.51, 32 0" stroke="#1971c2" stroke-width="2" fill="none"></path></g><g transform="translate(142.1875 219.01229858398438) rotate(0 44.462890625 23)"><text x="44.462890625" y="0" font-family="Helvetica, Segoe UI Emoji" font-size="20px" fill="#1971c2" text-anchor="middle" style="white-space: pre;" direction="ltr" dominant-baseline="text-before-edge">Graph DB</text><text x="44.462890625" y="23" font-family="Helvetica, Segoe UI Emoji" font-size="20px" fill="#1971c2" text-anchor="middle" style="white-space: pre;" direction="ltr" dominant-baseline="text-before-edge">(neo4j)</text></g><g stroke-linecap="round" transform="translate(368.50177001953125 103.3720703125) rotate(0 204.392578125 82.44511413574219)"><path d="M32 0 C168.76 2.75, 305.92 2.54, 376.79 0 M32 0 C163.68 -0.66, 295.17 0.09, 376.79 0 M376.79 0 C398.36 -0.85, 410.76 8.81, 408.79 32 M376.79 0 C399.89 2.03, 408.29 9.8, 408.79 32 M408.79 32 C406.68 56, 409.14 77.39, 408.79 132.89 M408.79 32 C409.27 55.04, 410.22 78.11, 408.79 132.89 M408.79 132.89 C410.43 154.86, 396.26 166.33, 376.79 164.89 M408.79 132.89 C409.45 156.39, 396.47 163.53, 376.79 164.89 M376.79 164.89 C266.88 163.45, 157.59 163.03, 32 164.89 M376.79 164.89 C253.3 163.65, 130.14 162.72, 32 164.89 M32 164.89 C10.78 166.27, -1.96 156.09, 0 132.89 M32 164.89 C8.39 164.75, -1.3 153.82, 0 132.89 M0 132.89 C-0.45 108.24, -0.66 82.7, 0 32 M0 132.89 C-0.65 102.66, 0.01 73.9, 0 32 M0 32 C1.87 9.86, 12.23 -0.81, 32 0 M0 32 C-2.11 9.19, 10.6 1.34, 32 0" stroke="#f08c00" stroke-width="2" fill="none"></path></g><g transform="translate(487.85040283203125 108.3720703125) rotate(0 85.0439453125 23)"><text x="85.0439453125" y="0" font-family="Helvetica, Segoe UI Emoji" font-size="20px" fill="#f08c00" text-anchor="middle" style="white-space: pre;" direction="ltr" dominant-baseline="text-before-edge">git repo</text><text x="85.0439453125" y="23" font-family="Helvetica, Segoe UI Emoji" font-size="20px" fill="#f08c00" text-anchor="middle" style="white-space: pre;" direction="ltr" dominant-baseline="text-before-edge">(github, gitlab, etc.)</text></g><g stroke-linecap="round" transform="translate(10.8057861328125 10) rotate(0 383.0673828125002 42.236480712890625)"><path d="M21.12 0 C178.25 -1.52, 336.54 -1.26, 745.02 0 M21.12 0 C254.15 1.05, 487.47 0.52, 745.02 0 M745.02 0 C761.07 -1.86, 767.68 8.81, 766.13 21.12 M745.02 0 C758.6 -0.87, 764.5 6.72, 766.13 21.12 M766.13 21.12 C766.21 35.73, 764.29 52.9, 766.13 63.35 M766.13 21.12 C767.11 31.06, 766.97 41.26, 766.13 63.35 M766.13 63.35 C764.27 78.87, 759.68 86.36, 745.02 84.47 M766.13 63.35 C764.48 76.08, 759.5 84.81, 745.02 84.47 M745.02 84.47 C558.91 82.93, 373.62 82.94, 21.12 84.47 M745.02 84.47 C584.66 86.66, 424.88 87.16, 21.12 84.47 M21.12 84.47 C5.08 86.34, -1.98 77.31, 0 63.35 M21.12 84.47 C5.74 84.07, -1.35 77.31, 0 63.35 M0 63.35 C-0.61 45.34, -0.08 31.02, 0 21.12 M0 63.35 C0.48 52.34, 1.06 41.66, 0 21.12 M0 21.12 C1.57 6.23, 5.2 -1.29, 21.12 0 M0 21.12 C-0.07 8.38, 6.33 -0.41, 21.12 0" stroke="#2f9e44" stroke-width="2" fill="none"></path></g><g stroke-linecap="round" transform="translate(59.057861328125 72.65777587890625) rotate(0 127.888671875 43.64453125)"><path d="M160 11 C182.95 18.17, 204.36 25.29, 223.78 33 M223.78 33 C257.58 44.24, 254.93 45.97, 223.78 55 M223.78 55 C210.31 59.21, 196.12 64.1, 160 76.29 M160 76.29 C129.31 85.33, 128.9 87.78, 96 76.29 M96 76.29 C78.27 71.12, 63 67.49, 32 55 M32 55 C0.06 45.64, 0.63 42.14, 32 33 M32 33 C54.3 23.04, 79.89 16.33, 96 11 M96 11 C127.14 -0.69, 127.3 -0.45, 160 11" stroke="#e03131" stroke-width="2.5" fill="none" stroke-dasharray="1.5 8"></path></g><g transform="translate(158.990478515625 107.2800415039062) rotate(0 28.01171875 9.199999999999989)"><text x="28.01171875" y="0" font-family="Helvetica, Segoe UI Emoji" font-size="16px" fill="#e03131" text-anchor="middle" style="white-space: pre;" direction="ltr" dominant-baseline="text-before-edge">schema</text></g><g transform="translate(298.10012234428086 23.092437744140625) rotate(0 90.4887466430664 28.79716796874999)"><text x="90.4887466430664" y="0" font-family="Helvetica, Segoe UI Emoji" font-size="50.08203124999998px" fill="#2f9e44" text-anchor="middle" style="white-space: pre;" direction="ltr" dominant-baseline="text-before-edge">infrahub</text></g><g stroke-linecap="round" transform="translate(383.69427490234375 166.07562255859375) rotate(0 127.888671875 43.64453125)"><path d="M160 11 C180.86 18.02, 197.32 26.34, 223.78 33 M160 11 C173.15 14.61, 185.86 19.4, 223.78 33 M223.78 33 C257.08 42.04, 256.67 44.49, 223.78 55 M223.78 33 C254.83 42.35, 256.83 42.5, 223.78 55 M223.78 55 C204.55 63.7, 185.84 66.63, 160 76.29 M223.78 55 C199.4 62.93, 176.58 71.58, 160 76.29 M160 76.29 C127.14 86.6, 127.3 86.83, 96 76.29 M160 76.29 C126.46 88.6, 126.49 85.48, 96 76.29 M96 76.29 C79.31 70.85, 66.47 63.66, 32 55 M96 76.29 C70.47 67.7, 45.27 59.45, 32 55 M32 55 C1.82 43.49, -0.31 43.29, 32 33 M32 55 C-1.73 43.78, 0.78 42.9, 32 33 M32 33 C48.72 28.71, 65.9 22.48, 96 11 M32 33 C48.77 28.29, 65.09 21.82, 96 11 M96 11 C127.38 -1.31, 127.52 0.03, 160 11 M96 11 C126.05 0.41, 127.34 1.19, 160 11" stroke="#e03131" stroke-width="2" fill="none"></path></g><g transform="translate(483.62689208984375 200.6978881835937) rotate(0 28.01171875 9.199999999999989)"><text x="28.01171875" y="0" font-family="Helvetica, Segoe UI Emoji" font-size="16px" fill="#e03131" text-anchor="middle" style="white-space: pre;" direction="ltr" dominant-baseline="text-before-edge">schema</text></g><g stroke-linecap="round"><g transform="translate(452.9486074812154 185.0291180319373) rotate(0 -98.1041671885888 -22.88655006304731)"><path d="M0.14 -0.51 C-32.3 -8.5, -162.45 -39.52, -195.02 -46.89" stroke="#e03131" stroke-width="2.5" fill="none" stroke-dasharray="8 10"></path></g><g transform="translate(452.9486074812154 185.0291180319373) rotate(0 -98.1041671885888 -22.88655006304731)"><path d="M-165.24 -50.48 C-174.12 -47.5, -183.19 -46.95, -195.02 -46.89" stroke="#e03131" stroke-width="2.5" fill="none"></path></g><g transform="translate(452.9486074812154 185.0291180319373) rotate(0 -98.1041671885888 -22.88655006304731)"><path d="M-169.9 -30.49 C-177.7 -32.93, -185.51 -37.79, -195.02 -46.89" stroke="#e03131" stroke-width="2.5" fill="none"></path></g></g><mask></mask></svg>