<svg version="1.1" xmlns="http://www.w3.org/2000/svg" viewBox="0 0 789.39453125 445.2734375" width="1578.7890625" height="890.546875">
  <!-- svg-source:excalidraw -->
  
  <defs>
    <style class="style-fonts">
      @font-face {
        font-family: "Virgil";
        src: url("https://excalidraw.com/Virgil.woff2");
      }
      @font-face {
        font-family: "Cascadia";
        src: url("https://excalidraw.com/Cascadia.woff2");
      }
      @font-face {
        font-family: "Assistant";
        src: url("https://excalidraw.com/Assistant-Regular.woff2");
      }
    </style>
    
  </defs>
  <rect x="0" y="0" width="789.39453125" height="445.2734375" fill="#ffffff"></rect><g stroke-linecap="round" transform="translate(370.609375 162.13671875) rotate(0 204.392578125 136.568359375)"><path d="M32 0 C154.76 -2.69, 277.43 -3.99, 376.79 0 M32 0 C152.53 -2.15, 273.9 -1.96, 376.79 0 M376.79 0 C400.05 -0.26, 411.91 12.17, 408.79 32 M376.79 0 C398.74 -1.83, 404.52 14.44, 408.79 32 M408.79 32 C408.89 80.55, 404.71 130.61, 408.79 241.14 M408.79 32 C406.4 90.24, 407.13 145.4, 408.79 241.14 M408.79 241.14 C409.38 263.34, 394.15 274.58, 376.79 273.14 M408.79 241.14 C412.42 264.88, 396.91 273.11, 376.79 273.14 M376.79 273.14 C256.44 276.83, 134.99 275.68, 32 273.14 M376.79 273.14 C247.78 274.66, 119.48 274.56, 32 273.14 M32 273.14 C14.62 273.99, -0.06 262.13, 0 241.14 M32 273.14 C7.05 276.3, 1.63 261.02, 0 241.14 M0 241.14 C0.67 187.3, 0.17 128.71, 0 32 M0 241.14 C-2.12 176.09, 0.08 114.27, 0 32 M0 32 C-2.16 11.86, 9.09 1.57, 32 0 M0 32 C2.98 6.19, 12.6 -0.01, 32 0" stroke="#f08c00" stroke-width="2" fill="none"></path></g><g transform="translate(477.6720428466797 273.705078125) rotate(0 97.32991027832031 25)"><text x="97.32991027832031" y="17.52" font-family="Virgil, Segoe UI Emoji" font-size="20px" fill="#f08c00" text-anchor="middle" style="white-space: pre;" direction="ltr" dominant-baseline="alphabetic">git repo</text><text x="97.32991027832031" y="42.519999999999996" font-family="Virgil, Segoe UI Emoji" font-size="20px" fill="#f08c00" text-anchor="middle" style="white-space: pre;" direction="ltr" dominant-baseline="alphabetic">(github, gitlab, etc.)</text></g><g stroke-linecap="round" transform="translate(10 10) rotate(0 383.0673828125002 70.10107421875)"><path d="M32 0 C281.13 2.71, 527.98 2.96, 734.13 0 M32 0 C311.75 -1.97, 590.57 -2, 734.13 0 M734.13 0 C753.11 -0.69, 763.86 7.46, 766.13 32 M734.13 0 C758.9 -1.98, 766.51 12.39, 766.13 32 M766.13 32 C764.43 53.09, 764.7 67.37, 766.13 108.2 M766.13 32 C766.82 56.81, 765.41 83.86, 766.13 108.2 M766.13 108.2 C765.36 130.36, 755.69 141.5, 734.13 140.2 M766.13 108.2 C763.4 133.58, 756.67 144.44, 734.13 140.2 M734.13 140.2 C496.67 140.97, 261.71 140.25, 32 140.2 M734.13 140.2 C539.88 142.33, 344.98 141.51, 32 140.2 M32 140.2 C7.4 138.53, -0.63 128.52, 0 108.2 M32 140.2 C8.4 137.66, 4.54 130.12, 0 108.2 M0 108.2 C-2.36 86.5, -0.33 65.08, 0 32 M0 108.2 C-1.34 83.73, -0.11 57.7, 0 32 M0 32 C-1.03 13.08, 13.25 1.5, 32 0 M0 32 C-2.43 10.84, 6.76 -3.62, 32 0" stroke="#2f9e44" stroke-width="2" fill="none"></path></g><g stroke-linecap="round" transform="translate(11.98828125 160.36328125) rotate(0 176.650390625 137.255859375)"><path d="M32 0 C104.16 -0.45, 174.74 2.22, 321.3 0 M32 0 C125.56 2.21, 217.96 2.23, 321.3 0 M321.3 0 C339.49 -2.29, 351.37 11.81, 353.3 32 M321.3 0 C339.37 0.19, 352.8 8.01, 353.3 32 M353.3 32 C351.29 92.01, 352.54 150.67, 353.3 242.51 M353.3 32 C353.48 82.31, 351.13 133.92, 353.3 242.51 M353.3 242.51 C352.76 260.14, 343.84 277.3, 321.3 274.51 M353.3 242.51 C354.62 265.29, 343.97 279.08, 321.3 274.51 M321.3 274.51 C223.64 274.16, 128.44 275.69, 32 274.51 M321.3 274.51 C210.67 276.08, 100.93 275.98, 32 274.51 M32 274.51 C8.65 278.26, 3.65 267.08, 0 242.51 M32 274.51 C11.19 274.95, -2.43 263.46, 0 242.51 M0 242.51 C-1.61 177.17, 2.04 105.86, 0 32 M0 242.51 C-3.09 163.19, -1.8 85.72, 0 32 M0 32 C-2.91 13.1, 11.76 -2.89, 32 0 M0 32 C-4.32 6.11, 9.17 -1.4, 32 0" stroke="#1971c2" stroke-width="2" fill="none"></path></g><g transform="translate(139.8386993408203 272.619140625) rotate(0 48.79997253417969 25)"><text x="48.79997253417969" y="17.52" font-family="Virgil, Segoe UI Emoji" font-size="20px" fill="#1971c2" text-anchor="middle" style="white-space: pre;" direction="ltr" dominant-baseline="alphabetic">Graph DB</text><text x="48.79997253417969" y="42.519999999999996" font-family="Virgil, Segoe UI Emoji" font-size="20px" fill="#1971c2" text-anchor="middle" style="white-space: pre;" direction="ltr" dominant-baseline="alphabetic">(neo4j)</text></g><g stroke-linecap="round" transform="translate(66.076171875 88.8828125) rotate(0 127.888671875 43.64453125)"><path d="M160 11 C179.21 13.9, 190.73 25.08, 223.78 33 M223.78 33 C252.65 43.07, 252.81 42.64, 223.78 55 M223.78 55 C198.85 59.95, 178.56 70, 160 76.29 M160 76.29 C127.72 86.55, 129.81 90.84, 96 76.29 M96 76.29 C72.98 70.78, 46.86 61.02, 32 55 M32 55 C-2.62 40.7, 0.76 44.72, 32 33 M32 33 C54.57 30.03, 75.77 16.48, 96 11 M96 11 C124.75 3.2, 131.71 0.68, 160 11" stroke="#e03131" stroke-width="2.5" fill="none" stroke-dasharray="1.5 8"></path></g><g transform="translate(166.87686157226562 122.705078125) rotate(0 27.087982177734375 10)"><text x="27.087982177734375" y="14.016" font-family="Virgil, Segoe UI Emoji" font-size="16px" fill="#e03131" text-anchor="middle" style="white-space: pre;" direction="ltr" dominant-baseline="alphabetic">schema</text></g><g transform="translate(484.78235626220703 54.521484375) rotate(0 96.13239468314805 31.30126953125)"><text x="96.1323946831481" y="43.87185937499998" font-family="Virgil, Segoe UI Emoji" font-size="50.08203124999998px" fill="#2f9e44" text-anchor="middle" style="white-space: pre;" direction="ltr" dominant-baseline="alphabetic">infrahub</text></g><g stroke-linecap="round" transform="translate(383.544921875 173.625) rotate(0 127.888671875 43.64453125)"><path d="M160 11 C179.65 20.61, 203.46 25.66, 223.78 33 M160 11 C184.16 20.02, 209.33 30.24, 223.78 33 M223.78 33 C255.3 41.38, 252.86 41.65, 223.78 55 M223.78 33 C259.89 40.76, 259.36 45.72, 223.78 55 M223.78 55 C201.28 66.18, 172.46 73.78, 160 76.29 M223.78 55 C197.63 63.93, 174.27 70.66, 160 76.29 M160 76.29 C130.97 89.08, 125.66 83.81, 96 76.29 M160 76.29 C125.28 91.06, 125.25 88.23, 96 76.29 M96 76.29 C78.99 75.11, 68.8 67.52, 32 55 M96 76.29 C81.07 69.25, 64.56 65.52, 32 55 M32 55 C-1.39 40.71, 3.32 41.14, 32 33 M32 55 C1.97 42, -2.07 47.39, 32 33 M32 33 C55.46 27.14, 84.12 13.41, 96 11 M32 33 C47.37 25.83, 57.95 22.77, 96 11 M96 11 C129.45 -0.9, 129.26 1.58, 160 11 M96 11 C129.77 -3.48, 132.07 3.6, 160 11" stroke="#e03131" stroke-width="2" fill="none"></path></g><g transform="translate(484.3456115722656 207.447265625) rotate(0 27.087982177734375 10)"><text x="27.087982177734375" y="14.016" font-family="Virgil, Segoe UI Emoji" font-size="16px" fill="#e03131" text-anchor="middle" style="white-space: pre;" direction="ltr" dominant-baseline="alphabetic">schema</text></g><g stroke-linecap="round"><g transform="translate(454.92454528808594 194.328125) rotate(0 -94.19140625 -19.8984375)"><path d="M-0.44 2.11 C-31.94 -4.48, -155.48 -32.87, -186.51 -39.71" stroke="#e03131" stroke-width="2.5" fill="none" stroke-dasharray="8 10"></path></g><g transform="translate(454.92454528808594 194.328125) rotate(0 -94.19140625 -19.8984375)"><path d="M-160.21 -41.54 C-171.32 -40.42, -180.44 -42.19, -187.74 -41.37" stroke="#e03131" stroke-width="2.5" fill="none"></path></g><g transform="translate(454.92454528808594 194.328125) rotate(0 -94.19140625 -19.8984375)"><path d="M-163.97 -24.86 C-173.61 -30.24, -181.25 -38.51, -187.74 -41.37" stroke="#e03131" stroke-width="2.5" fill="none"></path></g></g><mask></mask></svg>