<svg version="1.1" xmlns="http://www.w3.org/2000/svg" viewBox="0 0 1455.211669921875 726.873046875" width="1455.211669921875" height="726.873046875">
  <!-- svg-source:excalidraw -->
  
  <defs>
    <style class="style-fonts">
      @font-face {
        font-family: "Virgil";
        src: url("https://file%2B.vscode-resource.vscode-cdn.net/Users/pete/.vscode/extensions/pomdtr.excalidraw-editor-3.7.4/public//dist/excalidraw-assets/Virgil.woff2");
      }
      @font-face {
        font-family: "Cascadia";
        src: url("https://file%2B.vscode-resource.vscode-cdn.net/Users/pete/.vscode/extensions/pomdtr.excalidraw-editor-3.7.4/public//dist/excalidraw-assets/Cascadia.woff2");
      }
      @font-face {
        font-family: "Assistant";
        src: url("https://file%2B.vscode-resource.vscode-cdn.net/Users/pete/.vscode/extensions/pomdtr.excalidraw-editor-3.7.4/public//dist/excalidraw-assets/Assistant-Regular.woff2");
      }
    </style>
    
  </defs>
  <g stroke-linecap="round" transform="translate(930.2253267127398 468.89029947916674) rotate(0 111.50683593750011 40)"><path d="M20 0 C77.64 -0.33, 139.54 2.66, 203.01 0 C216.3 1.87, 221.66 7.37, 223.01 20 C221.82 30.08, 222.36 40.75, 223.01 60 C225.54 72.95, 218.03 76.84, 203.01 80 C143.18 77.34, 88.56 76.96, 20 80 C5.29 81.64, 2.6 75.6, 0 60 C-2.3 50.33, -0.16 32.52, 0 20 C2.57 7.08, 9.35 3.55, 20 0" stroke="none" stroke-width="0" fill="#ffffff"></path><path d="M20 0 C78.95 0.52, 133.87 -3.13, 203.01 0 M20 0 C59.4 0.02, 96.36 0.09, 203.01 0 M203.01 0 C217.4 1.77, 221.96 7.38, 223.01 20 M203.01 0 C214.28 0.54, 222.29 8.28, 223.01 20 M223.01 20 C223.26 30.43, 221.33 45.15, 223.01 60 M223.01 20 C222.97 35.51, 222.91 51, 223.01 60 M223.01 60 C223.67 71.84, 216.42 79.22, 203.01 80 M223.01 60 C224.02 74.95, 216.14 81.51, 203.01 80 M203.01 80 C149.32 79.67, 96.63 79.67, 20 80 M203.01 80 C149.24 79.3, 94.54 79.72, 20 80 M20 80 C8.46 81.04, -0.98 74.26, 0 60 M20 80 C4.53 78.26, 0.64 73.83, 0 60 M0 60 C-0.39 47.48, 0.05 31.93, 0 20 M0 60 C0.09 48.36, -0.28 36.71, 0 20 M0 20 C-1.46 5.25, 7.95 0.97, 20 0 M0 20 C1.97 5.49, 7.05 -1.94, 20 0" stroke="#2f9e44" stroke-width="2" fill="none"></path></g><g stroke-linecap="round" transform="translate(572.860107421875 370.376953125) rotate(0 111.50683593750011 40)"><path d="M20 0 C59.23 2.7, 95.3 5.01, 203.01 0 C215 0.7, 221.47 7.91, 223.01 20 C221.82 34.08, 225.25 47.44, 223.01 60 C224.7 70.17, 216.77 81.65, 203.01 80 C152.24 76.07, 100.81 79.94, 20 80 C9.27 82.26, 1.05 72.24, 0 60 C0.12 44.21, 3.07 31.13, 0 20 C2.68 10.22, 9.18 -0.27, 20 0" stroke="none" stroke-width="0" fill="#ffffff"></path><path d="M20 0 C86.41 -3.5, 154.13 -1.22, 203.01 0 M20 0 C81.41 -0.52, 144.45 -0.43, 203.01 0 M203.01 0 C215.3 0.72, 221.22 7.14, 223.01 20 M203.01 0 C215.62 1.61, 222.87 5.85, 223.01 20 M223.01 20 C221.55 37.6, 224.96 51.12, 223.01 60 M223.01 20 C223.11 28.81, 223.39 37.85, 223.01 60 M223.01 60 C223.09 72.55, 217.22 81.4, 203.01 80 M223.01 60 C222.8 74.85, 216.18 78.05, 203.01 80 M203.01 80 C148.24 79.25, 91.89 78.8, 20 80 M203.01 80 C150.44 79.02, 98.16 79.62, 20 80 M20 80 C5.69 80.93, -1.86 71.82, 0 60 M20 80 C7.3 80.5, 1.35 71.32, 0 60 M0 60 C-0.16 47.92, -0.09 35.63, 0 20 M0 60 C-0.18 46.4, -0.85 32.58, 0 20 M0 20 C1.28 7.64, 8.38 -1.03, 20 0 M0 20 C0.38 4.72, 7.18 1.34, 20 0" stroke="#2f9e44" stroke-width="2" fill="none"></path></g><g stroke-linecap="round" transform="translate(252.031982421875 628.732421875) rotate(0 111.8515625 44.0703125)"><path d="M22.04 0 C90.55 2.09, 163.43 3.53, 201.67 0 M22.04 0 C89.4 -0.55, 155.19 -1.07, 201.67 0 M201.67 0 C214.56 0.47, 223.07 8.75, 223.7 22.04 M201.67 0 C216.22 -0.81, 225.98 7.79, 223.7 22.04 M223.7 22.04 C225.23 31.53, 222.01 42.85, 223.7 66.11 M223.7 22.04 C224.05 33.47, 223.76 46.02, 223.7 66.11 M223.7 66.11 C224.58 82.2, 216.17 89.46, 201.67 88.14 M223.7 66.11 C223.54 78.85, 216.44 88, 201.67 88.14 M201.67 88.14 C151.27 86.95, 100.76 89.03, 22.04 88.14 M201.67 88.14 C157.57 88.53, 111.2 88.47, 22.04 88.14 M22.04 88.14 C5.48 86.63, 0.55 81.23, 0 66.11 M22.04 88.14 C8.7 86.12, 0.41 79.94, 0 66.11 M0 66.11 C-0.17 49.91, 0.75 32.2, 0 22.04 M0 66.11 C-0.7 52.68, 0.67 41.16, 0 22.04 M0 22.04 C1.71 6.32, 7.68 -1.69, 22.04 0 M0 22.04 C0.51 8.68, 5.18 -0.86, 22.04 0" stroke="#1971c2" stroke-width="2" fill="none"></path></g><g transform="translate(319.420654296875 649.802734375) rotate(0 44.462890625 23)"><text x="44.462890625" y="0" font-family="Helvetica, Segoe UI Emoji" font-size="20px" fill="#1971c2" text-anchor="middle" style="white-space: pre;" direction="ltr" dominant-baseline="text-before-edge">Graph DB</text><text x="44.462890625" y="23" font-family="Helvetica, Segoe UI Emoji" font-size="20px" fill="#1971c2" text-anchor="middle" style="white-space: pre;" direction="ltr" dominant-baseline="text-before-edge">(neo4j)</text></g><g stroke-linecap="round" transform="translate(1200.2956779252088 290.5092122724652) rotate(0 30.257526520195597 15.870891486268647)"><path d="M7.94 0 C18.03 1.79, 28.03 -1.19, 52.58 0 M7.94 0 C24.37 -0.04, 40.95 -0.16, 52.58 0 M52.58 0 C57.24 1.4, 60.39 1.94, 60.52 7.94 M52.58 0 C60.15 0.44, 58.99 0.87, 60.52 7.94 M60.52 7.94 C59.59 14.18, 60.29 20.14, 60.52 23.81 M60.52 7.94 C60.6 11.62, 60.91 16.47, 60.52 23.81 M60.52 23.81 C60.33 30.41, 57.72 30.05, 52.58 31.74 M60.52 23.81 C60.59 28.96, 57.42 32.61, 52.58 31.74 M52.58 31.74 C39.84 32.79, 26.55 32.16, 7.94 31.74 M52.58 31.74 C39.03 32.44, 25.53 31.22, 7.94 31.74 M7.94 31.74 C3.2 32.18, 1.18 27.34, 0 23.81 M7.94 31.74 C3.06 30.89, 2.11 28.75, 0 23.81 M0 23.81 C0.56 19.02, -0.16 13.17, 0 7.94 M0 23.81 C0.62 19.82, 0.8 14.65, 0 7.94 M0 7.94 C0.33 0.96, 3.09 1.17, 7.94 0 M0 7.94 C-2.17 1.78, 0.45 1, 7.94 0" stroke="#f08c00" stroke-width="2" fill="none"></path></g><g transform="translate(1278.9187854445224 286.38010375873387) rotate(0 66.703125 18.399999999999977)"><text x="66.703125" y="0" font-family="Helvetica, Segoe UI Emoji" font-size="16px" fill="#f08c00" text-anchor="middle" style="white-space: pre;" direction="ltr" dominant-baseline="text-before-edge">3rd party container</text><text x="66.703125" y="18.4" font-family="Helvetica, Segoe UI Emoji" font-size="16px" fill="#f08c00" text-anchor="middle" style="white-space: pre;" direction="ltr" dominant-baseline="text-before-edge">or system</text></g><g stroke-linecap="round" transform="translate(1200.2797894373114 121.90086396805248) rotate(0 30.27341500809291 18.723597267827984)"><path d="M9.36 0 C27.46 1.29, 44.13 -0.82, 51.19 0 M9.36 0 C23.09 0.6, 37.4 -0.45, 51.19 0 M51.19 0 C59.41 0.39, 59.22 1.58, 60.55 9.36 M51.19 0 C59.31 2.15, 59.62 1.57, 60.55 9.36 M60.55 9.36 C59.59 15.81, 59.1 21.09, 60.55 28.09 M60.55 9.36 C60.54 14.86, 60.56 18.34, 60.55 28.09 M60.55 28.09 C60.62 34.21, 57.03 38.21, 51.19 37.45 M60.55 28.09 C60.1 34.26, 56.47 37.19, 51.19 37.45 M51.19 37.45 C35.9 39.37, 21.96 36.6, 9.36 37.45 M51.19 37.45 C36.97 37.35, 22.8 36.25, 9.36 37.45 M9.36 37.45 C3.48 36.7, 1.83 34.02, 0 28.09 M9.36 37.45 C3.85 37.17, 1.23 35.11, 0 28.09 M0 28.09 C-0.44 20.53, -1.3 16.9, 0 9.36 M0 28.09 C-0.01 20.77, 0.05 15.58, 0 9.36 M0 9.36 C-1.88 2.37, 1.21 0.87, 9.36 0 M0 9.36 C-0.28 3.09, 4.31 -0.86, 9.36 0" stroke="#2f9e44" stroke-width="2" fill="none"></path></g><g transform="translate(1276.062607160831 120.62446123588052) rotate(0 75.60546875 18.400000000000006)"><text x="75.60546875" y="0" font-family="Helvetica, Segoe UI Emoji" font-size="16px" fill="#2f9e44" text-anchor="middle" style="white-space: pre;" direction="ltr" dominant-baseline="text-before-edge">infrahub open-source</text><text x="75.60546875" y="18.4" font-family="Helvetica, Segoe UI Emoji" font-size="16px" fill="#2f9e44" text-anchor="middle" style="white-space: pre;" direction="ltr" dominant-baseline="text-before-edge">container or system</text></g><g transform="translate(1283.313469282413 50.032146092982316) rotate(0 46.716796875 16.099999999999994)"><text x="46.716796875" y="0" font-family="Helvetica, Segoe UI Emoji" font-size="28px" fill="#1971c2" text-anchor="middle" style="white-space: pre;" direction="ltr" dominant-baseline="text-before-edge">Legend</text></g><g stroke-linecap="round" transform="translate(1201.246098383065 205.15728290964034) rotate(0 29.307106062339358 17.383186652492725)"><path d="M8.69 0 C19.37 -0.26, 30.51 0.25, 49.92 0 M8.69 0 C18.94 -0.85, 31.34 0.86, 49.92 0 M49.92 0 C54.92 -1.35, 58.84 2.43, 58.61 8.69 M49.92 0 C55.84 -1.12, 59.37 1.18, 58.61 8.69 M58.61 8.69 C59.77 13.81, 59.69 19.13, 58.61 26.07 M58.61 8.69 C58.45 12.76, 58.45 16.15, 58.61 26.07 M58.61 26.07 C57.78 31.65, 56.95 33.78, 49.92 34.77 M58.61 26.07 C59.31 31.7, 57.78 35.97, 49.92 34.77 M49.92 34.77 C38.06 34.94, 29.65 35.56, 8.69 34.77 M49.92 34.77 C42.08 34.46, 32.73 34.49, 8.69 34.77 M8.69 34.77 C3.97 35.45, 0.61 31.64, 0 26.07 M8.69 34.77 C2.76 34.2, -1.68 30.24, 0 26.07 M0 26.07 C-0.98 20.04, -1.55 13.81, 0 8.69 M0 26.07 C-0.66 20.22, 0.06 13.61, 0 8.69 M0 8.69 C1.04 2.15, 3.29 -0.86, 8.69 0 M0 8.69 C0.79 4, 1.98 -0.13, 8.69 0" stroke="#1971c2" stroke-width="2" fill="none"></path></g><g transform="translate(1273.3561252272373 202.54046956213313) rotate(0 69.8046875 18.399999999999977)"><text x="69.8046875" y="0" font-family="Helvetica, Segoe UI Emoji" font-size="16px" fill="#1971c2" text-anchor="middle" style="white-space: pre;" direction="ltr" dominant-baseline="text-before-edge">infrahub-bundled</text><text x="69.8046875" y="18.4" font-family="Helvetica, Segoe UI Emoji" font-size="16px" fill="#1971c2" text-anchor="middle" style="white-space: pre;" direction="ltr" dominant-baseline="text-before-edge">container or system</text></g><g stroke-linecap="round" transform="translate(452.897216796875 10) rotate(0 109.853515625 20.369140625)"><path d="M10.18 0 C62.98 2.1, 117.57 -1.21, 209.52 0 M10.18 0 C54.21 -2.54, 99.15 -2.1, 209.52 0 M209.52 0 C216.42 -0.97, 220.36 1.9, 219.71 10.18 M209.52 0 C216.4 -0.9, 220.71 5.01, 219.71 10.18 M219.71 10.18 C218.15 16.18, 219.72 21.64, 219.71 30.55 M219.71 10.18 C219.25 16.96, 220.29 23.46, 219.71 30.55 M219.71 30.55 C220.31 37.19, 218.1 41.78, 209.52 40.74 M219.71 30.55 C218.58 38.41, 214.17 39, 209.52 40.74 M209.52 40.74 C142.45 42.27, 78.14 43.74, 10.18 40.74 M209.52 40.74 C153.29 40.84, 96.29 40.39, 10.18 40.74 M10.18 40.74 C3.27 40.25, -1.46 35.93, 0 30.55 M10.18 40.74 C4.87 41.85, 1.97 36.16, 0 30.55 M0 30.55 C1.34 22.22, -0.58 15.75, 0 10.18 M0 30.55 C0.54 23.19, 0.22 16.14, 0 10.18 M0 10.18 C0.69 4.35, 2.6 -0.12, 10.18 0 M0 10.18 C-0.58 3.5, 5.01 -0.25, 10.18 0" stroke="#2f9e44" stroke-width="2" fill="none"></path></g><g transform="translate(507.721435546875 18.869140625) rotate(0 55.029296875 11.5)"><text x="55.029296875" y="0" font-family="Helvetica, Segoe UI Emoji" font-size="20px" fill="#2f9e44" text-anchor="middle" style="white-space: pre;" direction="ltr" dominant-baseline="text-before-edge">infrahub-sdk</text></g><g stroke-linecap="round" transform="translate(494.037841796875 41.390625) rotate(0 109.853515625 20.369140625)"><path d="M10.18 0 C69.16 -3.3, 125.82 -0.33, 209.52 0 M10.18 0 C88.75 1.11, 167.15 0.86, 209.52 0 M209.52 0 C216.97 -1.5, 219.78 2.61, 219.71 10.18 M209.52 0 C217.32 1.61, 219.5 4.91, 219.71 10.18 M219.71 10.18 C219.41 15.75, 220.29 21.72, 219.71 30.55 M219.71 10.18 C220.24 15.74, 219.92 22.22, 219.71 30.55 M219.71 30.55 C221.5 38.39, 215.33 41.67, 209.52 40.74 M219.71 30.55 C217.57 35.61, 216.95 41.24, 209.52 40.74 M209.52 40.74 C137.25 42.93, 66.16 41.74, 10.18 40.74 M209.52 40.74 C152.41 41.3, 94.63 41.17, 10.18 40.74 M10.18 40.74 C1.94 39.32, 1.28 38.31, 0 30.55 M10.18 40.74 C5.36 39.56, 0.38 35.4, 0 30.55 M0 30.55 C-0.87 22.08, 0.75 17.18, 0 10.18 M0 30.55 C0.09 24.04, 0.24 18.86, 0 10.18 M0 10.18 C-0.8 3.28, 2.89 0.09, 10.18 0 M0 10.18 C1.61 3.15, 4.47 -2.02, 10.18 0" stroke="#2f9e44" stroke-width="2" fill="none"></path></g><g transform="translate(557.753662109375 50.259765625) rotate(0 46.1376953125 11.5)"><text x="46.1376953125" y="0" font-family="Helvetica, Segoe UI Emoji" font-size="20px" fill="#2f9e44" text-anchor="middle" style="white-space: pre;" direction="ltr" dominant-baseline="text-before-edge">infrahubctl</text></g><g stroke-linecap="round" transform="translate(529.912841796875 75.296875) rotate(0 109.853515625 20.369140625)"><path d="M10.18 0 C88.18 2.96, 171.13 0.52, 209.52 0 M10.18 0 C56.59 -0.02, 103.21 -0.28, 209.52 0 M209.52 0 C216.39 -0.78, 220.58 4.8, 219.71 10.18 M209.52 0 C216.1 1.51, 219.54 1.45, 219.71 10.18 M219.71 10.18 C220.45 15.97, 219.64 21.71, 219.71 30.55 M219.71 10.18 C220.13 15.99, 220.73 22.48, 219.71 30.55 M219.71 30.55 C218.73 38.27, 214.45 39.23, 209.52 40.74 M219.71 30.55 C220.34 37.84, 217.67 38.72, 209.52 40.74 M209.52 40.74 C145.82 43.2, 82.5 43.64, 10.18 40.74 M209.52 40.74 C142.89 40.27, 75.65 39.8, 10.18 40.74 M10.18 40.74 C4.68 41.71, 1.71 36.32, 0 30.55 M10.18 40.74 C3.78 38.8, 0.51 38.68, 0 30.55 M0 30.55 C0.94 26.11, 0.05 23.2, 0 10.18 M0 30.55 C0.31 25.68, -0.44 19.8, 0 10.18 M0 10.18 C-0.5 3.49, 4.8 -0.21, 10.18 0 M0 10.18 C1.07 1.38, 3.66 1.05, 10.18 0" stroke="#f08c00" stroke-width="2" fill="none"></path></g><g transform="translate(604.199951171875 84.166015625) rotate(0 35.56640625 11.5)"><text x="35.56640625" y="0" font-family="Helvetica, Segoe UI Emoji" font-size="20px" fill="#f08c00" text-anchor="middle" style="white-space: pre;" direction="ltr" dominant-baseline="text-before-edge">browser</text></g><g stroke-linecap="round"><g transform="translate(639.794750362892 132.21061197916674) rotate(0 0.21037259772714378 16.869140625)"><path d="M0.45 0.51 C0.55 6.15, 0.19 27.85, 0.2 33.37 M0.02 0.3 C0.05 6.03, -0.37 28.24, -0.34 33.88" stroke="#846358" stroke-width="2" fill="none"></path></g><g transform="translate(639.794750362892 132.21061197916674) rotate(0 0.21037259772714378 16.869140625)"><path d="M-5.98 17.97 C-3.93 21.33, -3.98 25.47, -0.34 33.88 M-5.98 17.97 C-4.28 22.07, -2.84 26.62, -0.34 33.88" stroke="#846358" stroke-width="2" fill="none"></path></g><g transform="translate(639.794750362892 132.21061197916674) rotate(0 0.21037259772714378 16.869140625)"><path d="M5.56 18.07 C4.91 21.45, 2.17 25.57, -0.34 33.88 M5.56 18.07 C4.07 22.11, 2.32 26.63, -0.34 33.88" stroke="#846358" stroke-width="2" fill="none"></path></g></g><mask></mask><g stroke-linecap="round" transform="translate(912.047607421875 454.080078125) rotate(0 111.50683593750011 40)"><path d="M20 0 C66.17 0.76, 108.17 -2.59, 203.01 0 C218.72 -2.51, 226.5 6.29, 223.01 20 C226.21 34.27, 226.04 41.17, 223.01 60 C222.89 73.39, 218.51 77.58, 203.01 80 C146.51 82.53, 83.5 77.8, 20 80 C7.76 80.76, 1.24 69.84, 0 60 C-1.72 43.38, 2.94 31.83, 0 20 C0.54 7.37, 10.26 1.61, 20 0" stroke="none" stroke-width="0" fill="#ffffff"></path><path d="M20 0 C88.55 0.96, 159.34 0.84, 203.01 0 M20 0 C66.05 0.98, 112.47 2.07, 203.01 0 M203.01 0 C216.16 1.31, 222.87 4.97, 223.01 20 M203.01 0 C216.43 -0.14, 222.56 7.54, 223.01 20 M223.01 20 C222.78 32.45, 222.01 43.04, 223.01 60 M223.01 20 C222.88 32.16, 222.44 42.65, 223.01 60 M223.01 60 C223.57 73.77, 217.52 78.25, 203.01 80 M223.01 60 C223.43 72.48, 218.46 79.65, 203.01 80 M203.01 80 C142.95 81.59, 81.3 80.86, 20 80 M203.01 80 C153.23 79.19, 103.03 78.19, 20 80 M20 80 C7 78.31, 0.45 74.5, 0 60 M20 80 C4.5 79.14, -2.19 74.33, 0 60 M0 60 C-0.75 48.88, -0.85 37.68, 0 20 M0 60 C-0.09 46.14, 0.86 32.07, 0 20 M0 20 C0.93 4.91, 6.9 0.91, 20 0 M0 20 C-0.56 4.89, 5.48 -0.23, 20 0" stroke="#2f9e44" stroke-width="2" fill="none"></path></g><g transform="translate(965.1892089843751 461.88007812499995) rotate(0 58.365234375 32.19999999999999)"><text x="58.365234375" y="0" font-family="Helvetica, Segoe UI Emoji" font-size="28px" fill="#2f9e44" text-anchor="middle" style="white-space: pre;" direction="ltr" dominant-baseline="text-before-edge">infrahub</text><text x="58.365234375" y="32.199999999999996" font-family="Helvetica, Segoe UI Emoji" font-size="28px" fill="#2f9e44" text-anchor="middle" style="white-space: pre;" direction="ltr" dominant-baseline="text-before-edge">Git Agent</text></g><g stroke-linecap="round"><g transform="translate(941.7260467691465 444.49967447916674) rotate(0 -57.05944205945332 -25.262493362655505)"><path d="M0.14 -0.28 C-18.79 -8.66, -95.08 -42.58, -114.06 -51.11 M-1.25 -1.48 C-20.29 -9.63, -96.13 -41.69, -114.97 -49.88" stroke="#846358" stroke-width="2" fill="none"></path></g><g transform="translate(941.7260467691465 444.49967447916674) rotate(0 -57.05944205945332 -25.262493362655505)"><path d="M-85.02 -48.22 C-93.26 -48.51, -101.55 -48.39, -114.97 -49.88 M-85.02 -48.22 C-91.32 -48.01, -98.6 -48.43, -114.97 -49.88" stroke="#846358" stroke-width="2" fill="none"></path></g><g transform="translate(941.7260467691465 444.49967447916674) rotate(0 -57.05944205945332 -25.262493362655505)"><path d="M-93.09 -29.36 C-99.1 -34.56, -105.29 -39.34, -114.97 -49.88 M-93.09 -29.36 C-97.59 -33.36, -103.04 -38.03, -114.97 -49.88" stroke="#846358" stroke-width="2" fill="none"></path></g></g><mask></mask><g stroke-linecap="round"><g transform="translate(760.7438814002398 416.4662540036702) rotate(0 66.484375 38.17168905201737)"><path d="M0.06 -0.58 C22.27 12.04, 111.2 62.7, 133.36 75.45 M-1.36 1.73 C20.71 14.5, 110.35 63.98, 132.62 76.51" stroke="#846358" stroke-width="2" fill="none"></path></g><g transform="translate(760.7438814002398 416.4662540036702) rotate(0 66.484375 38.17168905201737)"><path d="M103 71.76 C111.24 73.88, 119.94 74.78, 132.62 76.51 M103 71.76 C110.66 73.45, 118.41 73.18, 132.62 76.51" stroke="#846358" stroke-width="2" fill="none"></path></g><g transform="translate(760.7438814002398 416.4662540036702) rotate(0 66.484375 38.17168905201737)"><path d="M112.99 53.83 C118.08 61.54, 123.66 68.02, 132.62 76.51 M112.99 53.83 C118.12 60.27, 123.26 64.68, 132.62 76.51" stroke="#846358" stroke-width="2" fill="none"></path></g></g><mask></mask><g stroke-linecap="round" transform="translate(494.97208658854174 628.732421875) rotate(0 111.8515625 44.0703125)"><path d="M22.04 0 C75.38 -0.51, 130.94 0.28, 201.67 0 M22.04 0 C88.45 -2.03, 155.05 -1.24, 201.67 0 M201.67 0 C215.96 0.76, 223.31 7.29, 223.7 22.04 M201.67 0 C215.4 -0.25, 225.13 6.21, 223.7 22.04 M223.7 22.04 C224.72 35.61, 224.6 49.28, 223.7 66.11 M223.7 22.04 C224.41 31.05, 224.01 41.45, 223.7 66.11 M223.7 66.11 C225.54 80.49, 217 87.9, 201.67 88.14 M223.7 66.11 C224.93 81.58, 217.06 87.88, 201.67 88.14 M201.67 88.14 C147.46 88.11, 97.05 88.54, 22.04 88.14 M201.67 88.14 C157.23 87.21, 111.4 86.25, 22.04 88.14 M22.04 88.14 C5.44 89.01, -0.25 80.77, 0 66.11 M22.04 88.14 C8.54 87.28, 0.45 79.81, 0 66.11 M0 66.11 C-0.33 50.86, -0.12 38.03, 0 22.04 M0 66.11 C-0.09 53.81, -0.45 39.83, 0 22.04 M0 22.04 C-1.03 7.15, 6.11 -0.76, 22.04 0 M0 22.04 C1.05 9.01, 8.79 0.67, 22.04 0" stroke="#1971c2" stroke-width="2" fill="none"></path></g><g transform="translate(547.3461100260417 649.802734375) rotate(0 59.4775390625 23)"><text x="59.4775390625" y="0" font-family="Helvetica, Segoe UI Emoji" font-size="20px" fill="#1971c2" text-anchor="middle" style="white-space: pre;" direction="ltr" dominant-baseline="text-before-edge">message bus</text><text x="59.4775390625" y="23" font-family="Helvetica, Segoe UI Emoji" font-size="20px" fill="#1971c2" text-anchor="middle" style="white-space: pre;" direction="ltr" dominant-baseline="text-before-edge">(rabbit-mq)</text></g><g stroke-linecap="round" transform="translate(737.9121907552084 628.732421875) rotate(0 111.8515625 44.0703125)"><path d="M22.04 0 C81.04 0.81, 143.02 -0.25, 201.67 0 M22.04 0 C87.77 1.46, 153.23 1.9, 201.67 0 M201.67 0 C215.97 -0.06, 222.87 7.12, 223.7 22.04 M201.67 0 C217.78 -1.14, 224.4 7.17, 223.7 22.04 M223.7 22.04 C224.86 37.35, 222.42 56.93, 223.7 66.11 M223.7 22.04 C224.14 35.84, 224.88 50.23, 223.7 66.11 M223.7 66.11 C224.34 80.56, 217.43 88.82, 201.67 88.14 M223.7 66.11 C224.41 80.53, 216.22 87.58, 201.67 88.14 M201.67 88.14 C161.85 91, 119.07 89.62, 22.04 88.14 M201.67 88.14 C162.01 88.81, 123.29 89.62, 22.04 88.14 M22.04 88.14 C7.1 88.12, 1.04 80.05, 0 66.11 M22.04 88.14 C7.79 87.16, 0.79 81.89, 0 66.11 M0 66.11 C0.12 56.05, -0.19 44.12, 0 22.04 M0 66.11 C-0.3 55.98, -0.57 47.3, 0 22.04 M0 22.04 C-1.24 6.58, 8.26 1.45, 22.04 0 M0 22.04 C1.45 8.01, 6.65 1.52, 22.04 0" stroke="#1971c2" stroke-width="2" fill="none"></path></g><g transform="translate(821.4287923177084 649.802734375) rotate(0 28.3349609375 23)"><text x="28.3349609375" y="0" font-family="Helvetica, Segoe UI Emoji" font-size="20px" fill="#1971c2" text-anchor="middle" style="white-space: pre;" direction="ltr" dominant-baseline="text-before-edge">cache</text><text x="28.3349609375" y="23" font-family="Helvetica, Segoe UI Emoji" font-size="20px" fill="#1971c2" text-anchor="middle" style="white-space: pre;" direction="ltr" dominant-baseline="text-before-edge">(redis)</text></g><g stroke-linecap="round" transform="translate(980.852294921875 628.732421875) rotate(0 111.8515625 44.0703125)"><path d="M22.04 0 C78 -0.97, 132.48 -0.93, 201.67 0 M22.04 0 C60.5 0.49, 99.17 0.08, 201.67 0 M201.67 0 C215.52 -0.22, 224.94 6.35, 223.7 22.04 M201.67 0 C217.05 -0.17, 225.76 8.55, 223.7 22.04 M223.7 22.04 C222.4 33.66, 224.34 45.35, 223.7 66.11 M223.7 22.04 C224.7 31.24, 224.1 40.63, 223.7 66.11 M223.7 66.11 C224.77 81.47, 216.97 87.91, 201.67 88.14 M223.7 66.11 C223.56 80.23, 214.68 86.52, 201.67 88.14 M201.67 88.14 C135.25 90.01, 69.2 90.12, 22.04 88.14 M201.67 88.14 C136.36 87.9, 72.84 87.45, 22.04 88.14 M22.04 88.14 C8.38 87.39, 0.39 79.94, 0 66.11 M22.04 88.14 C8.14 89.24, -0.92 80.66, 0 66.11 M0 66.11 C-0.24 54.93, -1.78 42.12, 0 22.04 M0 66.11 C-0.41 50.77, -0.51 35.25, 0 22.04 M0 22.04 C0.91 8.79, 8.6 0.58, 22.04 0 M0 22.04 C-0.7 8.86, 5.74 2.23, 22.04 0" stroke="#f08c00" stroke-width="2" fill="none"></path></g><g transform="translate(1021.009521484375 649.802734375) rotate(0 71.6943359375 23)"><text x="71.6943359375" y="0" font-family="Helvetica, Segoe UI Emoji" font-size="20px" fill="#f08c00" text-anchor="middle" style="white-space: pre;" direction="ltr" dominant-baseline="text-before-edge">repository store </text><text x="71.6943359375" y="23" font-family="Helvetica, Segoe UI Emoji" font-size="20px" fill="#f08c00" text-anchor="middle" style="white-space: pre;" direction="ltr" dominant-baseline="text-before-edge">(NFS or local)</text></g><g stroke-linecap="round" transform="translate(1221.508544921875 626.849609375) rotate(0 111.8515625 44.0703125)"><path d="M22.04 0 C85.09 0.02, 143.82 0.23, 201.67 0 M22.04 0 C74.64 -0.71, 127.22 -0.79, 201.67 0 M201.67 0 C217.6 -0.99, 224.31 7.2, 223.7 22.04 M201.67 0 C218.42 1.2, 222.58 8.41, 223.7 22.04 M223.7 22.04 C223.8 32.33, 221.62 40.64, 223.7 66.11 M223.7 22.04 C224.43 33.5, 224.64 45.55, 223.7 66.11 M223.7 66.11 C224.32 80.57, 216.24 87.65, 201.67 88.14 M223.7 66.11 C222.03 79.17, 217.83 89.26, 201.67 88.14 M201.67 88.14 C130.71 88.88, 64.29 86.56, 22.04 88.14 M201.67 88.14 C154.4 88.91, 107.89 88.54, 22.04 88.14 M22.04 88.14 C7.73 87.29, 0.69 81.75, 0 66.11 M22.04 88.14 C6.43 88.01, -0.58 80.9, 0 66.11 M0 66.11 C-1.71 50.03, 0.96 32.99, 0 22.04 M0 66.11 C-0.39 55.91, 0.68 47.2, 0 22.04 M0 22.04 C1.26 7.93, 6.74 1.32, 22.04 0 M0 22.04 C-1.61 9.57, 7.1 -0.74, 22.04 0" stroke="#f08c00" stroke-width="2" fill="none"></path></g><g transform="translate(1300.005615234375 659.419921875) rotate(0 33.3544921875 11.5)"><text x="33.3544921875" y="0" font-family="Helvetica, Segoe UI Emoji" font-size="20px" fill="#f08c00" text-anchor="middle" style="white-space: pre;" direction="ltr" dominant-baseline="text-before-edge">git repo</text></g><g stroke-linecap="round"><g transform="translate(524.7634839564523 432.7484743264515) rotate(0 -91.34448336032061 91.24474070135761)"><path d="M-0.09 -1.02 C-30.51 29.25, -152.17 151.76, -182.65 182.42 M-1.59 1.06 C-32.16 31.46, -153.2 153.95, -183.57 183.92" stroke="#846358" stroke-width="2" fill="none"></path></g><g transform="translate(524.7634839564523 432.7484743264515) rotate(0 -91.34448336032061 91.24474070135761)"><path d="M-170.91 156.72 C-176.11 164.69, -178.22 172.13, -183.57 183.92 M-170.91 156.72 C-175.66 165.8, -178.9 174.6, -183.57 183.92" stroke="#846358" stroke-width="2" fill="none"></path></g><g transform="translate(524.7634839564523 432.7484743264515) rotate(0 -91.34448336032061 91.24474070135761)"><path d="M-156.39 171.23 C-165.91 174.97, -172.24 178.19, -183.57 183.92 M-156.39 171.23 C-166.02 175.4, -174.17 179.3, -183.57 183.92" stroke="#846358" stroke-width="2" fill="none"></path></g></g><mask></mask><g stroke-linecap="round" transform="translate(551.539794921875 354.455078125) rotate(0 111.50683593750011 40)"><path d="M20 0 C87.72 2.28, 152.9 1.13, 203.01 0 C214.34 1.02, 226.57 8.26, 223.01 20 C223.15 33.92, 218.89 46.85, 223.01 60 C220.72 74.54, 214.17 77.03, 203.01 80 C136.21 84.09, 69.61 83.15, 20 80 C5.99 80.42, -1.84 70.14, 0 60 C2.78 47.07, -2.97 32.06, 0 20 C-1.32 5.25, 9.53 -3.53, 20 0" stroke="none" stroke-width="0" fill="#ffffff"></path><path d="M20 0 C73.45 -0.46, 127.9 -0.45, 203.01 0 M20 0 C75.01 -0.29, 129.08 0.13, 203.01 0 M203.01 0 C218.14 1.04, 222.04 7.59, 223.01 20 M203.01 0 C214.21 -1.74, 223.65 7.16, 223.01 20 M223.01 20 C221.92 36.19, 222.36 49.34, 223.01 60 M223.01 20 C223.53 31.41, 223.17 42.8, 223.01 60 M223.01 60 C221.55 71.92, 217.63 80.97, 203.01 80 M223.01 60 C224.98 72.15, 216.73 78.06, 203.01 80 M203.01 80 C143.28 76.37, 85.9 78.03, 20 80 M203.01 80 C148.53 78.89, 94.01 79.79, 20 80 M20 80 C5.87 79.88, -0.5 73.43, 0 60 M20 80 C8.28 79.75, 1.07 71.31, 0 60 M0 60 C-1.73 46.5, -0.38 33.82, 0 20 M0 60 C0.45 49.82, -0.48 39.71, 0 20 M0 20 C-1.4 8.6, 6.46 -0.64, 20 0 M0 20 C1.64 6.93, 8.38 2.27, 20 0" stroke="#2f9e44" stroke-width="2" fill="none"></path></g><g stroke-linecap="round"><g transform="translate(584.3373467034926 436.10514322916674) rotate(0 -1.083516010933124 90.62890625)"><path d="M-0.24 0.45 C-0.64 30.67, -2 151.11, -2.4 181.22 M-1.82 -0.35 C-2.41 30.07, -3.16 152.29, -3.47 182.74" stroke="#846358" stroke-width="2" fill="none"></path></g><g transform="translate(584.3373467034926 436.10514322916674) rotate(0 -1.083516010933124 90.62890625)"><path d="M-13.5 154.47 C-9.72 162.68, -7.49 170.81, -3.47 182.74 M-13.5 154.47 C-10.13 162.61, -6.64 171.38, -3.47 182.74" stroke="#846358" stroke-width="2" fill="none"></path></g><g transform="translate(584.3373467034926 436.10514322916674) rotate(0 -1.083516010933124 90.62890625)"><path d="M7.02 154.64 C4.57 162.75, 0.58 170.84, -3.47 182.74 M7.02 154.64 C4.46 162.63, 2.02 171.35, -3.47 182.74" stroke="#846358" stroke-width="2" fill="none"></path></g></g><mask></mask><g stroke-linecap="round"><g transform="translate(897.9040376502401 522.2475016622739) rotate(0 -151.70553747883253 46.07921140844644)"><path d="M-0.24 -0.03 C-50.85 15.23, -253.51 76.76, -303.91 92.03 M-1.82 -1.1 C-52.61 14.32, -254.92 77.88, -305.12 93.49" stroke="#846358" stroke-width="2" fill="none"></path></g><g transform="translate(897.9040376502401 522.2475016622739) rotate(0 -151.70553747883253 46.07921140844644)"><path d="M-281.28 75.29 C-287.95 79.51, -294.8 86.68, -305.12 93.49 M-281.28 75.29 C-286.3 80.35, -293.66 84.85, -305.12 93.49" stroke="#846358" stroke-width="2" fill="none"></path></g><g transform="translate(897.9040376502401 522.2475016622739) rotate(0 -151.70553747883253 46.07921140844644)"><path d="M-275.16 94.87 C-283.62 93.59, -292.18 95.28, -305.12 93.49 M-275.16 94.87 C-281.77 95.03, -290.66 94.62, -305.12 93.49" stroke="#846358" stroke-width="2" fill="none"></path></g></g><mask></mask><g stroke-linecap="round"><g transform="translate(779.0656191199114 467.19498697916674) rotate(0 36.654982638727006 71.68359375)"><path d="M-0.5 -0.13 C11.88 23.67, 61.69 118.87, 74.05 142.77 M1.44 -1.25 C13.75 22.71, 61.55 119.7, 73.49 144" stroke="#846358" stroke-width="2" fill="none"></path></g><g transform="translate(779.0656191199114 467.19498697916674) rotate(0 36.654982638727006 71.68359375)"><path d="M51.83 123.24 C57.68 130.39, 62.98 135.58, 73.49 144 M51.83 123.24 C57.87 129.67, 63.76 134.52, 73.49 144" stroke="#846358" stroke-width="2" fill="none"></path></g><g transform="translate(779.0656191199114 467.19498697916674) rotate(0 36.654982638727006 71.68359375)"><path d="M70.24 114.18 C70.92 123.79, 71.07 131.52, 73.49 144 M70.24 114.18 C70.97 123.35, 71.48 130.85, 73.49 144" stroke="#846358" stroke-width="2" fill="none"></path></g></g><mask></mask><g stroke-linecap="round"><g transform="translate(953.973235947924 538.938491646635) rotate(0 -51.42371938527259 37.25715391626585)"><path d="M0.74 -0.59 C-16.25 11.83, -85.4 61.8, -102.49 74.42 M-0.33 1.71 C-17.41 14.34, -86.3 64.01, -103.24 75.91" stroke="#846358" stroke-width="2" fill="none"></path></g><g transform="translate(953.973235947924 538.938491646635) rotate(0 -51.42371938527259 37.25715391626585)"><path d="M-86.26 51.19 C-91.66 58.28, -95.21 65.86, -103.24 75.91 M-86.26 51.19 C-93.29 59.22, -98.07 68.9, -103.24 75.91" stroke="#846358" stroke-width="2" fill="none"></path></g><g transform="translate(953.973235947924 538.938491646635) rotate(0 -51.42371938527259 37.25715391626585)"><path d="M-74.34 67.89 C-82.8 70.75, -89.42 74.01, -103.24 75.91 M-74.34 67.89 C-85.49 70.1, -94.46 73.89, -103.24 75.91" stroke="#846358" stroke-width="2" fill="none"></path></g></g><mask></mask><g stroke-linecap="round"><g transform="translate(1164.3420498225623 555.4547448645988) rotate(0 77.18777671679561 30.70410543228411)"><path d="M0.36 -0.09 C26.15 10.35, 129.88 51.69, 155.45 62.04 M-0.91 -1.18 C24.75 8.96, 129.46 50.06, 155.07 60.24" stroke="#846358" stroke-width="2" fill="none"></path></g><g transform="translate(1164.3420498225623 555.4547448645988) rotate(0 77.18777671679561 30.70410543228411)"><path d="M125.08 59.43 C135.78 61.43, 147.82 58.95, 155.07 60.24 M125.08 59.43 C135.74 60.16, 146.44 59.34, 155.07 60.24" stroke="#846358" stroke-width="2" fill="none"></path></g><g transform="translate(1164.3420498225623 555.4547448645988) rotate(0 77.18777671679561 30.70410543228411)"><path d="M132.61 40.35 C140.49 49.27, 149.81 53.7, 155.07 60.24 M132.61 40.35 C140.48 47.62, 148.57 53.42, 155.07 60.24" stroke="#846358" stroke-width="2" fill="none"></path></g></g><mask></mask><g stroke-linecap="round"><g transform="translate(1429.237786737224 681.241263407087) rotate(0 -20.850282152644695 1.7379060135172608)" fill-rule="evenodd"><path d="M-42.17 0.44 C-42.17 0.44, -42.17 0.44, -42.17 0.44 M-42.17 0.44 C-42.17 0.44, -42.17 0.44, -42.17 0.44 M-40.46 4.58 C-35.79 -0.12, -33.07 -4.88, -27.34 -10.52 M-40.46 4.58 C-36.69 0.14, -32.77 -4.8, -27.34 -10.52 M-25.37 -12.78 C-24.66 -13.73, -24.02 -14.45, -21.44 -17.31 M-25.37 -12.78 C-24.53 -13.62, -23.65 -14.57, -21.44 -17.31 M-37.44 7.2 C-33.87 2.83, -29.71 -0.75, -24.32 -7.89 M-37.44 7.2 C-32.87 1.51, -27.29 -3.78, -24.32 -7.89 M-22.35 -10.16 C-20.37 -12.14, -18.71 -14.42, -17.76 -15.44 M-22.35 -10.16 C-20.64 -12.06, -19.05 -14.18, -17.76 -15.44 M-34.42 9.83 C-31.2 7.08, -29.12 4.35, -22.62 -3.76 M-34.42 9.83 C-30.77 5.22, -26.64 0.13, -22.62 -3.76 M-18.68 -8.29 C-17.9 -9.19, -16.48 -10.8, -14.74 -12.82 M-18.68 -8.29 C-17.55 -9.57, -16.6 -10.72, -14.74 -12.82 M-31.41 12.45 C-29.76 9.52, -27.4 7.09, -21.56 1.13 M-31.41 12.45 C-28.31 8.33, -24.54 5.01, -21.56 1.13 M-18.94 -1.89 C-18.69 -2.14, -18.51 -2.42, -18.28 -2.64 M-18.94 -1.89 C-18.81 -2.03, -18.66 -2.2, -18.28 -2.64 M-16.97 -4.15 C-15.01 -6, -13.74 -7.83, -11.72 -10.19 M-16.97 -4.15 C-16.01 -5.46, -14.77 -6.9, -11.72 -10.19 M-28.39 15.07 C-26.79 13.59, -25.38 11.28, -23.79 9.79 M-28.39 15.07 C-26.86 13.15, -24.95 11.21, -23.79 9.79 M-19.2 4.51 C-18.21 3.74, -17.58 2.5, -15.27 -0.02 M-19.2 4.51 C-18.32 3.39, -17.32 2.42, -15.27 -0.02 M-13.95 -1.53 C-12.51 -3.17, -11 -5.01, -8.71 -7.57 M-13.95 -1.53 C-12.63 -3.23, -10.89 -4.92, -8.71 -7.57 M-25.37 17.7 C-24.29 16.05, -22.86 14.43, -21.43 13.17 M-25.37 17.7 C-23.79 15.86, -22.2 14.04, -21.43 13.17 M-17.5 8.64 C-16.09 6.98, -14.62 5.28, -13.56 4.11 M-17.5 8.64 C-16.09 6.85, -14.36 5.21, -13.56 4.11 M-9.62 -0.41 C-8.97 -1.5, -7.97 -2.55, -5.69 -4.94 M-9.62 -0.41 C-8.41 -1.89, -7.06 -3.34, -5.69 -4.94 M-22.35 20.32 C-15.96 13.74, -11.41 7.05, -2.67 -2.32 M-22.35 20.32 C-17.03 14.16, -11.48 7.58, -2.67 -2.32 M-12.77 15.4 C-9.67 10.75, -6.06 7.79, 0.35 0.31 M-12.77 15.4 C-7.75 9.41, -2.18 3.47, 0.35 0.31 M-22.98 20.34 C-22.98 20.34, -22.98 20.34, -22.98 20.34 M-22.98 20.34 C-22.98 20.34, -22.98 20.34, -22.98 20.34 M-18.09 19.29 C-24.88 13.94, -30.88 9.6, -41.49 -1.05 M-18.09 19.29 C-25.65 12.27, -32.97 5.69, -41.49 -1.05 M-14.71 16.92 C-15.83 15.63, -17.08 14.75, -19.24 12.99 M-14.71 16.92 C-15.86 15.8, -17.23 14.85, -19.24 12.99 M-23.77 9.05 C-29.79 5.51, -34.58 0.37, -38.11 -3.42 M-23.77 9.05 C-26.74 5.8, -30.27 3.6, -38.11 -3.42 M-12.09 13.9 C-14.16 12.14, -16.06 10.62, -17.37 9.31 M-12.09 13.9 C-13.64 12.33, -15.33 10.87, -17.37 9.31 M-21.9 5.37 C-26.59 1.2, -30.37 -2.34, -35.48 -6.43 M-21.9 5.37 C-25.16 2.67, -28.58 -0.32, -35.48 -6.43 M-8.71 11.54 C-12.16 8.8, -15.71 4.65, -18.52 3.01 M-8.71 11.54 C-11.63 9.49, -14.02 7.06, -18.52 3.01 M-21.54 0.39 C-24.26 -2.19, -26.29 -4.01, -32.1 -8.8 M-21.54 0.39 C-25.67 -2.94, -29.41 -6.45, -32.1 -8.8 M-6.08 8.52 C-7.29 7.4, -8.33 6.79, -10.61 4.59 M-6.08 8.52 C-7.52 7.38, -8.58 6.13, -10.61 4.59 M-14.38 1.31 C-15.89 -0.16, -17.53 -1.08, -18.91 -2.63 M-14.38 1.31 C-15.73 0.25, -17.04 -0.94, -18.91 -2.63 M-24.2 -7.22 C-26.28 -8.67, -28.13 -10.33, -29.48 -11.82 M-24.2 -7.22 C-25.9 -8.7, -27.51 -9.91, -29.48 -11.82 M-2.7 6.16 C-4 4.57, -6.27 3.28, -7.99 1.57 M-2.7 6.16 C-4.68 4.24, -6.79 2.55, -7.99 1.57 M-11.01 -1.06 C-13.46 -2.76, -15.31 -4.6, -17.04 -6.31 M-11.01 -1.06 C-13.15 -2.8, -14.98 -4.51, -17.04 -6.31 M-20.06 -8.93 C-21.74 -10.47, -23.46 -12.27, -26.1 -14.18 M-20.06 -8.93 C-21.57 -10.58, -23.57 -11.81, -26.1 -14.18 M-0.08 3.14 C-9.02 -5.46, -18.19 -12.37, -23.48 -17.2 M-0.08 3.14 C-8.7 -3.83, -16.53 -11.16, -23.48 -17.2" stroke="#DE4C36" stroke-width="0.5" fill="none"></path><path d="M0 0 C-5.72 -6.03, -12.02 -12.09, -18.92 -17.03 M0 0 C-3.98 -4.24, -8.43 -7.81, -18.92 -17.03 M-18.92 -17.03 C-18.92 -17.03, -18.92 -17.03, -18.92 -17.03 M-18.92 -17.03 C-18.92 -17.03, -18.92 -17.03, -18.92 -17.03 M-18.92 -17.03 C-19.11 -17.15, -19.24 -17.31, -19.36 -17.35 M-18.92 -17.03 C-19.04 -17.12, -19.14 -17.21, -19.36 -17.35 M-19.36 -17.35 C-19.5 -17.44, -19.67 -17.51, -19.84 -17.58 M-19.36 -17.35 C-19.5 -17.44, -19.65 -17.49, -19.84 -17.58 M-19.84 -17.58 C-19.99 -17.64, -20.14 -17.65, -20.36 -17.72 M-19.84 -17.58 C-20.04 -17.63, -20.24 -17.67, -20.36 -17.72 M-20.36 -17.72 C-20.51 -17.71, -20.64 -17.73, -20.89 -17.77 M-20.36 -17.72 C-20.51 -17.74, -20.67 -17.76, -20.89 -17.77 M-20.89 -17.77 C-21.06 -17.78, -21.23 -17.73, -21.43 -17.72 M-20.89 -17.77 C-21.08 -17.75, -21.26 -17.75, -21.43 -17.72 M-21.43 -17.72 C-21.61 -17.64, -21.8 -17.6, -21.94 -17.58 M-21.43 -17.72 C-21.58 -17.68, -21.72 -17.64, -21.94 -17.58 M-21.94 -17.58 C-22.15 -17.51, -22.32 -17.39, -22.43 -17.35 M-21.94 -17.58 C-22.03 -17.54, -22.14 -17.49, -22.43 -17.35 M-22.43 -17.35 C-22.61 -17.24, -22.78 -17.13, -22.87 -17.03 M-22.43 -17.35 C-22.57 -17.24, -22.71 -17.16, -22.87 -17.03 M-22.87 -17.03 C-23.69 -16.16, -24.89 -15.52, -26.8 -13.5 M-22.87 -17.03 C-23.78 -16.45, -24.45 -15.56, -26.8 -13.5 M-26.8 -13.5 C-24.72 -11.59, -22.91 -10.22, -21.81 -9.01 M-26.8 -13.5 C-24.98 -11.86, -22.86 -10, -21.81 -9.01 M-21.81 -9.01 C-21.81 -9.01, -21.81 -9.01, -21.81 -9.01 M-21.81 -9.01 C-21.81 -9.01, -21.81 -9.01, -21.81 -9.01 M-21.81 -9.01 C-21.73 -9.02, -21.65 -9.06, -21.37 -9.11 M-21.81 -9.01 C-21.67 -9.04, -21.54 -9.07, -21.37 -9.11 M-21.37 -9.11 C-21.27 -9.11, -21.2 -9.13, -20.92 -9.16 M-21.37 -9.11 C-21.2 -9.13, -21.03 -9.15, -20.92 -9.16 M-20.92 -9.16 C-20.79 -9.14, -20.63 -9.18, -20.47 -9.16 M-20.92 -9.16 C-20.75 -9.15, -20.59 -9.16, -20.47 -9.16 M-20.47 -9.16 C-20.37 -9.12, -20.23 -9.13, -20.02 -9.09 M-20.47 -9.16 C-20.31 -9.12, -20.12 -9.1, -20.02 -9.09 M-20.02 -9.09 C-19.84 -9.07, -19.71 -9.01, -19.58 -8.98 M-20.02 -9.09 C-19.87 -9.07, -19.75 -9.02, -19.58 -8.98 M-19.58 -8.98 C-19.48 -8.93, -19.36 -8.87, -19.16 -8.81 M-19.58 -8.98 C-19.43 -8.91, -19.29 -8.85, -19.16 -8.81 M-19.16 -8.81 C-19 -8.71, -18.87 -8.61, -18.77 -8.58 M-19.16 -8.81 C-19.06 -8.75, -18.97 -8.69, -18.77 -8.58 M-18.77 -8.58 C-18.7 -8.53, -18.61 -8.44, -18.4 -8.29 M-18.77 -8.58 C-18.67 -8.49, -18.55 -8.42, -18.4 -8.29 M-18.4 -8.29 C-18.32 -8.2, -18.24 -8.14, -18.09 -7.96 M-18.4 -8.29 C-18.33 -8.22, -18.25 -8.14, -18.09 -7.96 M-18.09 -7.96 C-17.96 -7.84, -17.88 -7.7, -17.83 -7.61 M-18.09 -7.96 C-17.99 -7.84, -17.89 -7.69, -17.83 -7.61 M-17.83 -7.61 C-17.74 -7.44, -17.67 -7.31, -17.64 -7.22 M-17.83 -7.61 C-17.78 -7.49, -17.71 -7.37, -17.64 -7.22 M-17.64 -7.22 C-17.59 -7.13, -17.58 -7.03, -17.51 -6.83 M-17.64 -7.22 C-17.6 -7.13, -17.58 -7.05, -17.51 -6.83 M-17.51 -6.83 C-17.5 -6.71, -17.48 -6.61, -17.44 -6.42 M-17.51 -6.83 C-17.49 -6.71, -17.48 -6.6, -17.44 -6.42 M-17.44 -6.42 C-17.43 -6.32, -17.45 -6.21, -17.44 -6.01 M-17.44 -6.42 C-17.45 -6.31, -17.43 -6.19, -17.44 -6.01 M-17.44 -6.01 C-17.47 -5.84, -17.5 -5.7, -17.5 -5.6 M-17.44 -6.01 C-17.46 -5.85, -17.49 -5.71, -17.5 -5.6 M-17.5 -5.6 C-17.55 -5.48, -17.57 -5.31, -17.61 -5.2 M-17.5 -5.6 C-17.52 -5.51, -17.55 -5.43, -17.61 -5.2 M-17.61 -5.2 C-16.13 -3.89, -14.1 -2.31, -12.81 -0.88 M-17.61 -5.2 C-16.2 -3.83, -14.52 -2.6, -12.81 -0.88 M-12.81 -0.88 C-12.81 -0.88, -12.81 -0.88, -12.81 -0.88 M-12.81 -0.88 C-12.81 -0.88, -12.81 -0.88, -12.81 -0.88 M-12.81 -0.88 C-12.69 -0.9, -12.62 -0.94, -12.37 -0.99 M-12.81 -0.88 C-12.71 -0.9, -12.59 -0.93, -12.37 -0.99 M-12.37 -0.99 C-12.26 -0.98, -12.14 -1.04, -11.92 -1.04 M-12.37 -0.99 C-12.26 -0.99, -12.14 -1.02, -11.92 -1.04 M-11.92 -1.04 C-11.81 -1.04, -11.67 -1.04, -11.46 -1.04 M-11.92 -1.04 C-11.79 -1.04, -11.65 -1.04, -11.46 -1.04 M-11.46 -1.04 C-11.35 -1.04, -11.25 -1, -11.01 -0.97 M-11.46 -1.04 C-11.29 -1, -11.1 -0.99, -11.01 -0.97 M-11.01 -0.97 C-10.92 -0.93, -10.82 -0.92, -10.57 -0.86 M-11.01 -0.97 C-10.87 -0.95, -10.74 -0.91, -10.57 -0.86 M-10.57 -0.86 C-10.47 -0.82, -10.39 -0.77, -10.14 -0.69 M-10.57 -0.86 C-10.43 -0.8, -10.31 -0.76, -10.14 -0.69 M-10.14 -0.69 C-10.04 -0.64, -9.96 -0.6, -9.75 -0.46 M-10.14 -0.69 C-9.99 -0.6, -9.82 -0.5, -9.75 -0.46 M-9.75 -0.46 C-9.64 -0.38, -9.56 -0.3, -9.38 -0.17 M-9.75 -0.46 C-9.61 -0.37, -9.5 -0.25, -9.38 -0.17 M-9.38 -0.17 C-9.33 -0.11, -9.27 -0.07, -9.15 0.06 M-9.38 -0.17 C-9.31 -0.09, -9.23 -0.02, -9.15 0.06 M-9.15 0.06 C-9.13 0.09, -9.08 0.16, -8.95 0.3 M-9.15 0.06 C-9.09 0.13, -9.03 0.22, -8.95 0.3 M-8.95 0.3 C-8.9 0.39, -8.85 0.44, -8.79 0.55 M-8.95 0.3 C-8.9 0.38, -8.83 0.48, -8.79 0.55 M-8.79 0.55 C-8.74 0.62, -8.72 0.7, -8.65 0.82 M-8.79 0.55 C-8.75 0.62, -8.71 0.69, -8.65 0.82 M-8.65 0.82 C-8.58 0.98, -8.55 1.16, -8.47 1.37 M-8.65 0.82 C-8.6 0.94, -8.56 1.07, -8.47 1.37 M-8.47 1.37 C-8.46 1.54, -8.46 1.69, -8.41 1.94 M-8.47 1.37 C-8.45 1.51, -8.45 1.64, -8.41 1.94 M-8.41 1.94 C-8.4 2.08, -8.44 2.24, -8.47 2.51 M-8.41 1.94 C-8.42 2.1, -8.44 2.29, -8.47 2.51 M-8.47 2.51 C-8.5 2.69, -8.58 2.88, -8.65 3.07 M-8.47 2.51 C-8.53 2.68, -8.56 2.82, -8.65 3.07 M-8.65 3.07 C-8.69 3.14, -8.73 3.23, -8.79 3.33 M-8.65 3.07 C-8.68 3.14, -8.72 3.21, -8.79 3.33 M-8.79 3.33 C-8.84 3.42, -8.88 3.5, -8.95 3.59 M-8.79 3.33 C-8.84 3.41, -8.9 3.5, -8.95 3.59 M-8.95 3.59 C-9.02 3.67, -9.06 3.71, -9.15 3.83 M-8.95 3.59 C-9.01 3.67, -9.08 3.74, -9.15 3.83 M-9.15 3.83 C-9.23 3.9, -9.29 3.96, -9.38 4.06 M-9.15 3.83 C-9.22 3.89, -9.28 3.96, -9.38 4.06 M-9.38 4.06 C-9.44 4.11, -9.53 4.17, -9.63 4.26 M-9.38 4.06 C-9.43 4.11, -9.49 4.14, -9.63 4.26 M-9.63 4.26 C-9.7 4.3, -9.76 4.35, -9.9 4.44 M-9.63 4.26 C-9.72 4.32, -9.8 4.37, -9.9 4.44 M-9.9 4.44 C-10.01 4.49, -10.1 4.55, -10.18 4.59 M-9.9 4.44 C-9.98 4.49, -10.05 4.52, -10.18 4.59 M-10.18 4.59 C-10.28 4.63, -10.33 4.64, -10.48 4.71 M-10.18 4.59 C-10.28 4.63, -10.38 4.68, -10.48 4.71 M-10.48 4.71 C-10.6 4.74, -10.77 4.8, -11.09 4.88 M-10.48 4.71 C-10.62 4.75, -10.8 4.79, -11.09 4.88 M-11.09 4.88 C-11.31 4.91, -11.49 4.92, -11.73 4.93 M-11.09 4.88 C-11.34 4.92, -11.59 4.92, -11.73 4.93 M-11.73 4.93 C-11.98 4.93, -12.19 4.9, -12.36 4.88 M-11.73 4.93 C-11.85 4.91, -11.97 4.9, -12.36 4.88 M-12.36 4.88 C-12.5 4.82, -12.64 4.79, -12.98 4.71 M-12.36 4.88 C-12.52 4.84, -12.68 4.81, -12.98 4.71 M-12.98 4.71 C-13.04 4.67, -13.09 4.67, -13.27 4.59 M-12.98 4.71 C-13.05 4.69, -13.12 4.65, -13.27 4.59 M-13.27 4.59 C-13.38 4.55, -13.45 4.48, -13.56 4.44 M-13.27 4.59 C-13.39 4.54, -13.49 4.47, -13.56 4.44 M-13.56 4.44 C-13.63 4.38, -13.71 4.32, -13.83 4.26 M-13.56 4.44 C-13.64 4.38, -13.75 4.32, -13.83 4.26 M-13.83 4.26 C-13.89 4.22, -13.97 4.15, -14.08 4.06 M-13.83 4.26 C-13.89 4.2, -13.95 4.17, -14.08 4.06 M-14.08 4.06 C-14.18 3.94, -14.28 3.85, -14.41 3.71 M-14.08 4.06 C-14.2 3.93, -14.34 3.8, -14.41 3.71 M-14.41 3.71 C-14.49 3.62, -14.58 3.5, -14.67 3.33 M-14.41 3.71 C-14.5 3.58, -14.58 3.47, -14.67 3.33 M-14.67 3.33 C-14.71 3.23, -14.78 3.11, -14.87 2.93 M-14.67 3.33 C-14.72 3.22, -14.77 3.11, -14.87 2.93 M-14.87 2.93 C-14.88 2.83, -14.92 2.74, -14.99 2.51 M-14.87 2.93 C-14.91 2.8, -14.95 2.65, -14.99 2.51 M-14.99 2.51 C-15.02 2.37, -15.04 2.23, -15.05 2.08 M-14.99 2.51 C-15 2.4, -15.01 2.3, -15.05 2.08 M-15.05 2.08 C-15.06 1.94, -15.04 1.81, -15.03 1.65 M-15.05 2.08 C-15.04 1.92, -15.03 1.75, -15.03 1.65 M-15.03 1.65 C-14.99 1.5, -14.98 1.32, -14.95 1.22 M-15.03 1.65 C-15 1.5, -14.99 1.36, -14.95 1.22 M-14.95 1.22 C-14.9 1.08, -14.84 0.94, -14.8 0.81 M-14.95 1.22 C-14.92 1.13, -14.89 1.04, -14.8 0.81 M-14.8 0.81 C-15.84 -0.5, -17.44 -1.37, -19.28 -3.23 M-14.8 0.81 C-16.39 -0.79, -18.28 -2.34, -19.28 -3.23 M-19.28 -3.23 C-19.02 -0.17, -19.03 3.6, -19.28 7.38 M-19.28 -3.23 C-19.1 -0.37, -19.12 2.65, -19.28 7.38 M-19.28 7.38 C-19.28 7.38, -19.28 7.38, -19.28 7.38 M-19.28 7.38 C-19.28 7.38, -19.28 7.38, -19.28 7.38 M-19.28 7.38 C-19.14 7.46, -18.97 7.55, -18.82 7.64 M-19.28 7.38 C-19.15 7.46, -19 7.55, -18.82 7.64 M-18.82 7.64 C-18.73 7.71, -18.58 7.79, -18.4 7.95 M-18.82 7.64 C-18.68 7.74, -18.55 7.85, -18.4 7.95 M-18.4 7.95 C-18.35 8.02, -18.3 8.08, -18.17 8.18 M-18.4 7.95 C-18.32 8.03, -18.24 8.12, -18.17 8.18 M-18.17 8.18 C-18.12 8.27, -18.05 8.34, -17.98 8.42 M-18.17 8.18 C-18.11 8.25, -18.05 8.34, -17.98 8.42 M-17.98 8.42 C-17.93 8.48, -17.89 8.52, -17.81 8.67 M-17.98 8.42 C-17.93 8.48, -17.89 8.55, -17.81 8.67 M-17.81 8.67 C-17.76 8.73, -17.75 8.81, -17.67 8.94 M-17.81 8.67 C-17.76 8.78, -17.7 8.89, -17.67 8.94 M-17.67 8.94 C-17.63 9.12, -17.56 9.24, -17.49 9.49 M-17.67 8.94 C-17.63 9.12, -17.57 9.29, -17.49 9.49 M-17.49 9.49 C-17.47 9.67, -17.44 9.85, -17.43 10.06 M-17.49 9.49 C-17.47 9.63, -17.45 9.75, -17.43 10.06 M-17.43 10.06 C-17.46 10.28, -17.47 10.49, -17.49 10.63 M-17.43 10.06 C-17.44 10.28, -17.49 10.5, -17.49 10.63 M-17.49 10.63 C-17.57 10.76, -17.61 10.9, -17.67 11.19 M-17.49 10.63 C-17.55 10.79, -17.59 10.93, -17.67 11.19 M-17.67 11.19 C-17.72 11.26, -17.73 11.31, -17.81 11.45 M-17.67 11.19 C-17.71 11.24, -17.73 11.29, -17.81 11.45 M-17.81 11.45 C-17.86 11.55, -17.93 11.63, -17.98 11.71 M-17.81 11.45 C-17.87 11.54, -17.92 11.62, -17.98 11.71 M-17.98 11.71 C-18.03 11.78, -18.1 11.88, -18.17 11.95 M-17.98 11.71 C-18.03 11.79, -18.1 11.86, -18.17 11.95 M-18.17 11.95 C-18.24 12.03, -18.31 12.08, -18.4 12.18 M-18.17 11.95 C-18.26 12.04, -18.35 12.12, -18.4 12.18 M-18.4 12.18 C-18.46 12.25, -18.56 12.31, -18.65 12.38 M-18.4 12.18 C-18.48 12.25, -18.56 12.31, -18.65 12.38 M-18.65 12.38 C-18.75 12.45, -18.85 12.51, -18.92 12.56 M-18.65 12.38 C-18.71 12.42, -18.78 12.46, -18.92 12.56 M-18.92 12.56 C-19 12.59, -19.06 12.64, -19.21 12.71 M-18.92 12.56 C-19.01 12.6, -19.11 12.67, -19.21 12.71 M-19.21 12.71 C-19.31 12.77, -19.41 12.8, -19.5 12.84 M-19.21 12.71 C-19.31 12.76, -19.43 12.8, -19.5 12.84 M-19.5 12.84 C-19.71 12.9, -19.92 12.94, -20.12 13 M-19.5 12.84 C-19.65 12.87, -19.77 12.92, -20.12 13 M-20.12 13 C-20.3 13.02, -20.53 13.05, -20.75 13.05 M-20.12 13 C-20.34 13.03, -20.56 13.03, -20.75 13.05 M-20.75 13.05 C-20.9 13.03, -21.09 13.01, -21.39 13 M-20.75 13.05 C-21 13.03, -21.25 13.01, -21.39 13 M-21.39 13 C-21.59 12.96, -21.81 12.86, -22 12.84 M-21.39 13 C-21.52 12.97, -21.68 12.93, -22 12.84 M-22 12.84 C-22.06 12.81, -22.14 12.79, -22.29 12.71 M-22 12.84 C-22.11 12.79, -22.21 12.75, -22.29 12.71 M-22.29 12.71 C-22.35 12.68, -22.43 12.65, -22.58 12.56 M-22.29 12.71 C-22.39 12.67, -22.47 12.61, -22.58 12.56 M-22.58 12.56 C-22.66 12.5, -22.79 12.43, -22.85 12.38 M-22.58 12.56 C-22.66 12.51, -22.76 12.44, -22.85 12.38 M-22.85 12.38 C-22.94 12.32, -23.03 12.22, -23.1 12.18 M-22.85 12.38 C-22.94 12.3, -23.04 12.23, -23.1 12.18 M-23.1 12.18 C-23.17 12.13, -23.24 12.04, -23.33 11.95 M-23.1 12.18 C-23.16 12.11, -23.23 12.05, -23.33 11.95 M-23.33 11.95 C-23.42 11.86, -23.46 11.76, -23.52 11.71 M-23.33 11.95 C-23.39 11.89, -23.43 11.83, -23.52 11.71 M-23.52 11.71 C-23.61 11.61, -23.65 11.5, -23.69 11.45 M-23.52 11.71 C-23.58 11.64, -23.62 11.56, -23.69 11.45 M-23.69 11.45 C-23.75 11.37, -23.79 11.26, -23.83 11.19 M-23.69 11.45 C-23.74 11.36, -23.79 11.28, -23.83 11.19 M-23.83 11.19 C-23.9 10.97, -23.97 10.75, -24.01 10.63 M-23.83 11.19 C-23.9 11.01, -23.94 10.81, -24.01 10.63 M-24.01 10.63 C-24 10.43, -24.06 10.24, -24.07 10.06 M-24.01 10.63 C-24.04 10.44, -24.06 10.23, -24.07 10.06 M-24.07 10.06 C-24.07 9.87, -24.06 9.67, -24.01 9.49 M-24.07 10.06 C-24.04 9.84, -24.02 9.61, -24.01 9.49 M-24.01 9.49 C-23.94 9.25, -23.9 9.05, -23.83 8.94 M-24.01 9.49 C-23.96 9.36, -23.93 9.25, -23.83 8.94 M-23.83 8.94 C-23.79 8.85, -23.73 8.76, -23.69 8.67 M-23.83 8.94 C-23.79 8.86, -23.75 8.8, -23.69 8.67 M-23.69 8.67 C-23.64 8.58, -23.58 8.5, -23.52 8.42 M-23.69 8.67 C-23.65 8.6, -23.59 8.53, -23.52 8.42 M-23.52 8.42 C-23.47 8.33, -23.39 8.27, -23.33 8.18 M-23.52 8.42 C-23.44 8.33, -23.38 8.23, -23.33 8.18 M-23.33 8.18 C-23.26 8.12, -23.19 8.04, -23.1 7.95 M-23.33 8.18 C-23.24 8.09, -23.15 8.01, -23.1 7.95 M-23.1 7.95 C-23.05 7.89, -22.99 7.86, -22.85 7.75 M-23.1 7.95 C-23.01 7.88, -22.92 7.81, -22.85 7.75 M-22.85 7.75 C-22.8 7.73, -22.74 7.67, -22.59 7.58 M-22.85 7.75 C-22.76 7.69, -22.66 7.62, -22.59 7.58 M-22.59 7.58 C-22.49 7.52, -22.38 7.45, -22.31 7.42 M-22.59 7.58 C-22.51 7.54, -22.43 7.48, -22.31 7.42 M-22.31 7.42 C-22.24 7.38, -22.17 7.37, -22.01 7.3 M-22.31 7.42 C-22.23 7.39, -22.14 7.35, -22.01 7.3 M-22.01 7.3 C-22.29 2.97, -21.73 -0.28, -22.01 -3.41 M-22.01 7.3 C-21.97 4.42, -22.12 1.04, -22.01 -3.41 M-22.01 -3.41 C-22.01 -3.41, -22.01 -3.41, -22.01 -3.41 M-22.01 -3.41 C-22.01 -3.41, -22.01 -3.41, -22.01 -3.41 M-22.01 -3.41 C-22.08 -3.43, -22.15 -3.48, -22.31 -3.54 M-22.01 -3.41 C-22.09 -3.44, -22.15 -3.47, -22.31 -3.54 M-22.31 -3.54 C-22.37 -3.56, -22.41 -3.59, -22.59 -3.69 M-22.31 -3.54 C-22.41 -3.59, -22.5 -3.65, -22.59 -3.69 M-22.59 -3.69 C-22.67 -3.73, -22.74 -3.79, -22.85 -3.87 M-22.59 -3.69 C-22.66 -3.74, -22.75 -3.8, -22.85 -3.87 M-22.85 -3.87 C-22.9 -3.91, -22.98 -3.97, -23.1 -4.07 M-22.85 -3.87 C-22.91 -3.91, -22.96 -3.95, -23.1 -4.07 M-23.1 -4.07 C-23.18 -4.16, -23.24 -4.23, -23.43 -4.42 M-23.1 -4.07 C-23.17 -4.15, -23.24 -4.21, -23.43 -4.42 M-23.43 -4.42 C-23.51 -4.53, -23.6 -4.66, -23.7 -4.8 M-23.43 -4.42 C-23.48 -4.51, -23.56 -4.59, -23.7 -4.8 M-23.7 -4.8 C-23.75 -4.94, -23.8 -5.06, -23.89 -5.2 M-23.7 -4.8 C-23.73 -4.87, -23.77 -4.96, -23.89 -5.2 M-23.89 -5.2 C-23.93 -5.31, -23.98 -5.42, -24.01 -5.62 M-23.89 -5.2 C-23.92 -5.31, -23.95 -5.41, -24.01 -5.62 M-24.01 -5.62 C-24.02 -5.75, -24.06 -5.92, -24.07 -6.06 M-24.01 -5.62 C-24.03 -5.75, -24.05 -5.86, -24.07 -6.06 M-24.07 -6.06 C-24.05 -6.23, -24.06 -6.38, -24.05 -6.49 M-24.07 -6.06 C-24.07 -6.2, -24.06 -6.34, -24.05 -6.49 M-24.05 -6.49 C-24.02 -6.59, -24.02 -6.67, -23.97 -6.92 M-24.05 -6.49 C-24.03 -6.58, -24.02 -6.68, -23.97 -6.92 M-23.97 -6.92 C-23.92 -6.99, -23.9 -7.13, -23.81 -7.33 M-23.97 -6.92 C-23.92 -7.05, -23.86 -7.19, -23.81 -7.33 M-23.81 -7.33 C-25.41 -8.77, -26.99 -10.18, -28.73 -11.76 M-23.81 -7.33 C-25.4 -8.93, -27.18 -10.32, -28.73 -11.76 M-28.73 -11.76 C-31.41 -8.97, -36.57 -5.42, -41.7 -0.08 M-28.73 -11.76 C-31.85 -9.42, -34.77 -6.57, -41.7 -0.08 M-41.7 -0.08 C-41.7 -0.08, -41.7 -0.08, -41.7 -0.08 M-41.7 -0.08 C-41.7 -0.08, -41.7 -0.08, -41.7 -0.08 M-41.7 -0.08 C-41.87 0.07, -41.97 0.21, -42.06 0.32 M-41.7 -0.08 C-41.77 0.02, -41.88 0.12, -42.06 0.32 M-42.06 0.32 C-42.17 0.51, -42.25 0.63, -42.31 0.75 M-42.06 0.32 C-42.11 0.42, -42.19 0.52, -42.31 0.75 M-42.31 0.75 C-42.35 0.91, -42.42 1.07, -42.47 1.22 M-42.31 0.75 C-42.36 0.88, -42.4 1.01, -42.47 1.22 M-42.47 1.22 C-42.47 1.39, -42.5 1.51, -42.52 1.7 M-42.47 1.22 C-42.47 1.35, -42.5 1.45, -42.52 1.7 M-42.52 1.7 C-42.49 1.82, -42.48 2.01, -42.47 2.18 M-42.52 1.7 C-42.49 1.87, -42.5 2.02, -42.47 2.18 M-42.47 2.18 C-42.41 2.35, -42.36 2.55, -42.31 2.64 M-42.47 2.18 C-42.42 2.3, -42.39 2.43, -42.31 2.64 M-42.31 2.64 C-42.19 2.83, -42.11 2.97, -42.06 3.08 M-42.31 2.64 C-42.25 2.73, -42.2 2.84, -42.06 3.08 M-42.06 3.08 C-41.9 3.21, -41.79 3.4, -41.7 3.48 M-42.06 3.08 C-41.95 3.21, -41.83 3.34, -41.7 3.48 M-41.7 3.48 C-35.7 8.17, -30.62 13.41, -22.78 20.51 M-41.7 3.48 C-35.88 8.88, -30.94 13.68, -22.78 20.51 M-22.78 20.51 C-22.78 20.51, -22.78 20.51, -22.78 20.51 M-22.78 20.51 C-22.78 20.51, -22.78 20.51, -22.78 20.51 M-22.78 20.51 C-22.63 20.62, -22.55 20.7, -22.34 20.83 M-22.78 20.51 C-22.63 20.61, -22.47 20.74, -22.34 20.83 M-22.34 20.83 C-22.21 20.91, -22.05 20.95, -21.86 21.06 M-22.34 20.83 C-22.22 20.87, -22.13 20.93, -21.86 21.06 M-21.86 21.06 C-21.75 21.07, -21.65 21.11, -21.34 21.2 M-21.86 21.06 C-21.73 21.09, -21.61 21.12, -21.34 21.2 M-21.34 21.2 C-21.22 21.22, -21.07 21.24, -20.81 21.24 M-21.34 21.2 C-21.14 21.21, -20.95 21.22, -20.81 21.24 M-20.81 21.24 C-20.66 21.22, -20.53 21.24, -20.27 21.2 M-20.81 21.24 C-20.62 21.24, -20.45 21.21, -20.27 21.2 M-20.27 21.2 C-20.11 21.18, -19.93 21.09, -19.76 21.06 M-20.27 21.2 C-20.15 21.16, -19.99 21.13, -19.76 21.06 M-19.76 21.06 C-19.58 20.96, -19.37 20.87, -19.27 20.83 M-19.76 21.06 C-19.65 21, -19.53 20.96, -19.27 20.83 M-19.27 20.83 C-19.15 20.72, -19.01 20.63, -18.83 20.51 M-19.27 20.83 C-19.11 20.7, -18.92 20.59, -18.83 20.51 M-18.83 20.51 C-11.68 15.21, -6.36 9.41, 0 3.55 M-18.83 20.51 C-14.14 15.69, -9.37 11.54, 0 3.55 M0 3.55 C0 3.55, 0 3.55, 0 3.55 M0 3.55 C0 3.55, 0 3.55, 0 3.55 M0 3.55 C0.12 3.45, 0.17 3.34, 0.36 3.16 M0 3.55 C0.11 3.43, 0.24 3.29, 0.36 3.16 M0.36 3.16 C0.45 3.03, 0.52 2.9, 0.61 2.72 M0.36 3.16 C0.42 3.05, 0.47 2.97, 0.61 2.72 M0.61 2.72 C0.65 2.57, 0.74 2.41, 0.77 2.26 M0.61 2.72 C0.65 2.58, 0.72 2.42, 0.77 2.26 M0.77 2.26 C0.77 2.13, 0.81 1.97, 0.82 1.78 M0.77 2.26 C0.77 2.12, 0.79 2.01, 0.82 1.78 M0.82 1.78 C0.8 1.6, 0.81 1.45, 0.77 1.3 M0.82 1.78 C0.81 1.61, 0.78 1.46, 0.77 1.3 M0.77 1.3 C0.71 1.12, 0.66 0.94, 0.61 0.83 M0.77 1.3 C0.71 1.13, 0.66 0.99, 0.61 0.83 M0.61 0.83 C0.5 0.66, 0.43 0.49, 0.36 0.39 M0.61 0.83 C0.52 0.68, 0.43 0.54, 0.36 0.39 M0.36 0.39 C0.21 0.27, 0.1 0.11, 0 0 M0.36 0.39 C0.27 0.3, 0.18 0.2, 0 0 M0 0 C0 0, 0 0, 0 0 M0 0 C0 0, 0 0, 0 0" stroke="#de4c36" stroke-width="1" fill="none"></path></g></g><mask></mask><g stroke-linecap="round"><g transform="translate(1051.224140286591 557.4918619791669) rotate(0 19.011905877361414 31.213928222656193)"><path d="M-0.59 0.56 C5.39 10.71, 30.42 51.17, 36.91 61.52 M1.31 -0.2 C7.54 10.02, 32.96 51.86, 39.03 62.58" stroke="#846358" stroke-width="2" fill="none"></path></g><g transform="translate(1051.224140286591 557.4918619791669) rotate(0 19.011905877361414 31.213928222656193)"><path d="M15.87 43.52 C25.92 49.2, 32.51 59.04, 39.03 62.58 M15.87 43.52 C23.61 49.48, 31.8 55.83, 39.03 62.58" stroke="#846358" stroke-width="2" fill="none"></path></g><g transform="translate(1051.224140286591 557.4918619791669) rotate(0 19.011905877361414 31.213928222656193)"><path d="M33.55 33.09 C36.77 42.75, 36.46 56.65, 39.03 62.58 M33.55 33.09 C35.66 42.25, 38.17 51.96, 39.03 62.58" stroke="#846358" stroke-width="2" fill="none"></path></g></g><mask></mask><g stroke-linecap="round" transform="translate(528.481201171875 180.599609375) rotate(0 111.8515625 44.0703125)"><path d="M22.04 0 C65.63 2.22, 112.69 2.85, 201.67 0 M22.04 0 C61.1 0.51, 98.65 0.55, 201.67 0 M201.67 0 C217.43 0.68, 224.32 7.12, 223.7 22.04 M201.67 0 C216.22 -0.56, 222.03 5.72, 223.7 22.04 M223.7 22.04 C222.89 38.41, 222.23 54.57, 223.7 66.11 M223.7 22.04 C222.33 38.26, 223.16 53.6, 223.7 66.11 M223.7 66.11 C224.74 80.05, 216.75 87.29, 201.67 88.14 M223.7 66.11 C224.5 81.89, 215.44 88.01, 201.67 88.14 M201.67 88.14 C152.08 90.33, 101.17 89.63, 22.04 88.14 M201.67 88.14 C139.05 86.65, 76.84 86.37, 22.04 88.14 M22.04 88.14 C8.26 89.59, 1.26 81.38, 0 66.11 M22.04 88.14 C6.65 89.66, -1.61 83.02, 0 66.11 M0 66.11 C0.37 54.84, 2.11 41.99, 0 22.04 M0 66.11 C0.62 52.54, 0.3 39.77, 0 22.04 M0 22.04 C0.57 9.32, 8.23 0.34, 22.04 0 M0 22.04 C-2 8.05, 7.83 0.79, 22.04 0" stroke="#f08c00" stroke-width="2" fill="none"></path></g><g transform="translate(575.840576171875 201.669921875) rotate(0 64.4921875 23)"><text x="64.4921875" y="0" font-family="Helvetica, Segoe UI Emoji" font-size="20px" fill="#f08c00" text-anchor="middle" style="white-space: pre;" direction="ltr" dominant-baseline="text-before-edge">Load Balancer</text><text x="64.4921875" y="23" font-family="Helvetica, Segoe UI Emoji" font-size="20px" fill="#f08c00" text-anchor="middle" style="white-space: pre;" direction="ltr" dominant-baseline="text-before-edge">(HA Proxy)</text></g><g stroke-linecap="round" transform="translate(531.067138671875 341.228515625) rotate(0 111.50683593750011 40)"><path d="M20 0 C60.26 4.47, 105.58 2.53, 203.01 0 C217.05 3.6, 224.62 9.32, 223.01 20 C219.9 31.58, 222.68 43.2, 223.01 60 C225.71 72.78, 213.29 76.8, 203.01 80 C151.3 79.99, 108.98 85.12, 20 80 C6.44 78.85, -0.04 76.07, 0 60 C-0.62 44.06, -2.2 35.95, 0 20 C-3.37 8.15, 8.34 3.03, 20 0" stroke="none" stroke-width="0" fill="#ffffff"></path><path d="M20 0 C58.31 0.67, 94 -0.15, 203.01 0 M20 0 C68.43 0.16, 116.76 0.62, 203.01 0 M203.01 0 C216.96 -0.23, 222.89 6.18, 223.01 20 M203.01 0 C214.67 -1.63, 224.49 7.78, 223.01 20 M223.01 20 C221.12 35.87, 223.97 48.97, 223.01 60 M223.01 20 C222.51 30.49, 223.15 40.62, 223.01 60 M223.01 60 C223.4 72.48, 217.04 80.96, 203.01 80 M223.01 60 C222.09 73.2, 215.77 80.11, 203.01 80 M203.01 80 C133.52 81.09, 68.45 80.36, 20 80 M203.01 80 C161.64 79.44, 121.96 80.54, 20 80 M20 80 C7.92 80.58, -0.6 74.65, 0 60 M20 80 C5.06 82.23, -0.24 72.6, 0 60 M0 60 C1.93 46.54, -0.2 30.22, 0 20 M0 60 C0.04 47.38, 0.04 36.86, 0 20 M0 20 C0.89 7.01, 4.93 0.61, 20 0 M0 20 C0.49 7.46, 4.43 0.94, 20 0" stroke="#2f9e44" stroke-width="2" fill="none"></path></g><g transform="translate(574.8845214843751 349.02851562499995) rotate(0 67.689453125 32.19999999999999)"><text x="67.689453125" y="0" font-family="Helvetica, Segoe UI Emoji" font-size="28px" fill="#2f9e44" text-anchor="middle" style="white-space: pre;" direction="ltr" dominant-baseline="text-before-edge">infrahub</text><text x="67.689453125" y="32.199999999999996" font-family="Helvetica, Segoe UI Emoji" font-size="28px" fill="#2f9e44" text-anchor="middle" style="white-space: pre;" direction="ltr" dominant-baseline="text-before-edge">API Server</text></g><g transform="translate(1225.5681001502398 340.84733072916674) rotate(0 7.0048828125 20.69999999999999)"><text x="0" y="0" font-family="Helvetica, Segoe UI Emoji" font-size="36px" fill="#e03131" text-anchor="start" style="white-space: pre;" direction="ltr" dominant-baseline="text-before-edge">*</text></g><g transform="translate(1283.411178763521 346.40201822916674) rotate(0 63.3642578125 23)"><text x="63.3642578125" y="0" font-family="Helvetica, Segoe UI Emoji" font-size="20px" fill="#e03131" text-anchor="middle" style="white-space: pre;" direction="ltr" dominant-baseline="text-before-edge">System needs</text><text x="63.3642578125" y="23" font-family="Helvetica, Segoe UI Emoji" font-size="20px" fill="#e03131" text-anchor="middle" style="white-space: pre;" direction="ltr" dominant-baseline="text-before-edge">backup</text></g><g transform="translate(437.7957307654742 624.9723307291667) rotate(0 7.0048828125 20.69999999999999)"><text x="0" y="0" font-family="Helvetica, Segoe UI Emoji" font-size="36px" fill="#e03131" text-anchor="start" style="white-space: pre;" direction="ltr" dominant-baseline="text-before-edge">*</text></g><g transform="translate(1411.2683870154742 622.3238932291667) rotate(0 7.0048828125 20.69999999999999)"><text x="0" y="0" font-family="Helvetica, Segoe UI Emoji" font-size="36px" fill="#e03131" text-anchor="start" style="white-space: pre;" direction="ltr" dominant-baseline="text-before-edge">*</text></g><g stroke-linecap="round"><g transform="translate(642.7516939002398 281.35123697916674) rotate(0 -0.27734375 22.193359375)"><path d="M0.29 0.19 C0.2 7.59, -0.24 36.98, -0.39 44.32 M-0.22 -0.19 C-0.38 7.3, -0.61 37.5, -0.73 44.99" stroke="#846358" stroke-width="2" fill="none"></path></g><g transform="translate(642.7516939002398 281.35123697916674) rotate(0 -0.27734375 22.193359375)"><path d="M-8.08 24.05 C-5.32 31.29, -3.33 37.87, -0.73 44.99 M-8.08 24.05 C-5.81 30.09, -3.68 35.36, -0.73 44.99" stroke="#846358" stroke-width="2" fill="none"></path></g><g transform="translate(642.7516939002398 281.35123697916674) rotate(0 -0.27734375 22.193359375)"><path d="M7.1 24.22 C4.83 31.44, 1.77 37.97, -0.73 44.99 M7.1 24.22 C5.19 30.16, 3.14 35.38, -0.73 44.99" stroke="#846358" stroke-width="2" fill="none"></path></g></g><mask></mask><g stroke-linecap="round" transform="translate(10 628.732421875) rotate(0 111.85156249999999 44.0703125)"><path d="M22.04 0 C85.3 -0.67, 148.54 -2.01, 201.67 0 M22.04 0 C64.09 -1.39, 104.59 -1.72, 201.67 0 M201.67 0 C216.8 1.17, 221.82 6.59, 223.7 22.04 M201.67 0 C214.17 1, 223.42 7.32, 223.7 22.04 M223.7 22.04 C222.68 38.23, 224.49 52.25, 223.7 66.11 M223.7 22.04 C224.29 34.89, 224.06 47.09, 223.7 66.11 M223.7 66.11 C223.94 81.71, 215.87 86.59, 201.67 88.14 M223.7 66.11 C222.52 80.57, 214.93 87.26, 201.67 88.14 M201.67 88.14 C140.18 88.67, 78.85 87.87, 22.04 88.14 M201.67 88.14 C131.09 87.68, 59.83 88.55, 22.04 88.14 M22.04 88.14 C8.74 87.99, -0.07 80.83, 0 66.11 M22.04 88.14 C8.72 86.59, 0.65 79.51, 0 66.11 M0 66.11 C-0.09 49.89, 0.17 37.58, 0 22.04 M0 66.11 C-0.21 51.71, -0.18 35.81, 0 22.04 M0 22.04 C1.38 6.85, 7.65 0.39, 22.04 0 M0 22.04 C2.3 8.37, 9.04 -0.43, 22.04 0" stroke="#f08c00" stroke-width="2" fill="none"></path></g><g transform="translate(67.37890624999999 649.802734375) rotate(0 54.47265625 23)"><text x="54.47265625" y="0" font-family="Helvetica, Segoe UI Emoji" font-size="20px" fill="#f08c00" text-anchor="middle" style="white-space: pre;" direction="ltr" dominant-baseline="text-before-edge">object store </text><text x="54.47265625" y="23" font-family="Helvetica, Segoe UI Emoji" font-size="20px" fill="#f08c00" text-anchor="middle" style="white-space: pre;" direction="ltr" dominant-baseline="text-before-edge">(s3 bucket)</text></g><g stroke-linecap="round"><g transform="translate(517.3297424316406 405.86285400390625) rotate(0 -199.00172424316406 103.03683471679688)"><path d="M-0.07 -0.29 C-66.61 33.93, -332.69 170.73, -398.88 205.23 M-1.57 -1.49 C-67.77 32.88, -330.62 171.97, -396.63 206.32" stroke="#846358" stroke-width="2" fill="none"></path></g><g transform="translate(517.3297424316406 405.86285400390625) rotate(0 -199.00172424316406 103.03683471679688)"><path d="M-376.44 184.12 C-383.63 189.99, -391.23 200.07, -396.63 206.32 M-376.44 184.12 C-383.12 190.91, -390.1 200.07, -396.63 206.32" stroke="#846358" stroke-width="2" fill="none"></path></g><g transform="translate(517.3297424316406 405.86285400390625) rotate(0 -199.00172424316406 103.03683471679688)"><path d="M-366.9 202.29 C-377.22 202.15, -387.97 206.22, -396.63 206.32 M-366.9 202.29 C-377.06 202.7, -387.36 205.53, -396.63 206.32" stroke="#846358" stroke-width="2" fill="none"></path></g></g><mask></mask><g transform="translate(200.86268633188047 625.3900553385417) rotate(0 7.0048828125 20.69999999999999)"><text x="0" y="0" font-family="Helvetica, Segoe UI Emoji" font-size="36px" fill="#e03131" text-anchor="start" style="white-space: pre;" direction="ltr" dominant-baseline="text-before-edge">*</text></g></svg>