<svg version="1.1" xmlns="http://www.w3.org/2000/svg" viewBox="0 0 1608.3096770565871 539.6757369761713" width="3216.6193541131743" height="1079.3514739523425">
  <!-- svg-source:excalidraw -->
  
  <defs>
    <style class="style-fonts">
      @font-face {
        font-family: "Virgil";
        src: url("https://excalidraw.com/Virgil.woff2");
      }
      @font-face {
        font-family: "Cascadia";
        src: url("https://excalidraw.com/Cascadia.woff2");
      }
      @font-face {
        font-family: "Assistant";
        src: url("https://excalidraw.com/Assistant-Regular.woff2");
      }
    </style>
    
  </defs>
  <rect x="0" y="0" width="1608.3096770565871" height="539.6757369761713" fill="#ffffff"></rect><g stroke-linecap="round"><g transform="translate(506.6067244878297 150.50165763005043) rotate(0 127.45638333332704 70.30975482620192)"><path d="M-0.21 -0.88 C41.97 22.53, 211.32 116.53, 253.74 140.23 M-1.78 1.27 C40.69 24.87, 213.34 118.54, 255.84 141.57" stroke="#1e1e1e" stroke-width="2" fill="none"></path></g><g transform="translate(506.6067244878297 150.50165763005043) rotate(0 127.45638333332704 70.30975482620192)"><path d="M231.12 137.88 C238.4 137.28, 247.97 139.55, 255.84 141.57 M231.12 137.88 C239.7 138.78, 249.58 140.22, 255.84 141.57" stroke="#1e1e1e" stroke-width="2" fill="none"></path></g><g transform="translate(506.6067244878297 150.50165763005043) rotate(0 127.45638333332704 70.30975482620192)"><path d="M239.27 122.85 C243.64 127.56, 250.33 135.15, 255.84 141.57 M239.27 122.85 C244.9 129.17, 251.83 136.05, 255.84 141.57" stroke="#1e1e1e" stroke-width="2" fill="none"></path></g></g><mask></mask><g stroke-linecap="round" transform="translate(765.8001166152021 292.55972342538917) rotate(0 130.21875000000006 115.607421875)"><path d="M7.86 8.16 C7.86 8.16, 7.86 8.16, 7.86 8.16 M7.86 8.16 C7.86 8.16, 7.86 8.16, 7.86 8.16 M2.75 26.24 C5.19 21.97, 10.96 17.74, 21.12 5.11 M2.75 26.24 C7.1 20.89, 11.66 16.97, 21.12 5.11 M2.88 38.28 C12.67 27.06, 20.31 17.87, 34.37 2.05 M2.88 38.28 C8.91 31.45, 15.31 23.74, 34.37 2.05 M2.36 51.07 C14.07 38.24, 25.5 26.35, 45 2.02 M2.36 51.07 C15.25 37.21, 24.99 23.72, 45 2.02 M2.49 63.11 C18.36 47.91, 30.95 28.31, 55.63 1.98 M2.49 63.11 C14.81 49.93, 25.62 35.44, 55.63 1.98 M2.62 75.16 C15.35 61.41, 31.66 44.19, 66.26 1.95 M2.62 75.16 C24.02 50.2, 45.93 25.43, 66.26 1.95 M2.76 87.2 C20.67 62.54, 43.56 42.78, 76.89 1.91 M2.76 87.2 C19.15 67.54, 35.49 48.39, 76.89 1.91 M2.23 99.99 C24.14 74.49, 46.83 48.02, 87.52 1.88 M2.23 99.99 C34.27 63.98, 66.2 26.76, 87.52 1.88 M2.37 112.03 C38.64 69.33, 73.59 27.46, 98.15 1.85 M2.37 112.03 C40.2 67.79, 79.3 22.53, 98.15 1.85 M2.5 124.07 C40.94 77.75, 81.21 34.16, 108.78 1.81 M2.5 124.07 C25.42 97.49, 48.94 70.98, 108.78 1.81 M2.63 136.11 C45.78 84.61, 91.94 34.02, 119.41 1.78 M2.63 136.11 C33.92 101.34, 65.07 66.45, 119.41 1.78 M2.11 148.91 C38.66 106.63, 75.38 67.9, 130.04 1.74 M2.11 148.91 C40.89 104.42, 78.11 61.96, 130.04 1.74 M2.24 160.95 C31.96 126.93, 63.99 92.78, 140.67 1.71 M2.24 160.95 C55.01 99.48, 107.66 39.54, 140.67 1.71 M2.38 172.99 C51.76 113.83, 98.92 59.3, 150.65 2.43 M2.38 172.99 C49.58 117.84, 97.17 61.72, 150.65 2.43 M2.51 185.03 C58.5 120.42, 111.96 56.98, 161.28 2.39 M2.51 185.03 C43.94 139.43, 83.39 92.58, 161.28 2.39 M0.67 199.34 C50.14 146.48, 95.49 89.52, 171.91 2.36 M0.67 199.34 C37.66 157.26, 74.61 114.67, 171.91 2.36 M2.12 209.87 C38.45 168.34, 74.12 128.54, 182.54 2.32 M2.12 209.87 C41.93 167.73, 79.96 123.04, 182.54 2.32 M6.19 217.38 C79.57 134.14, 152.99 49.57, 193.17 2.29 M6.19 217.38 C73.5 139.48, 141.43 62.74, 193.17 2.29 M10.26 224.89 C65.47 159.34, 122.1 93.87, 203.8 2.26 M10.26 224.89 C75.04 152.95, 139.09 78.62, 203.8 2.26 M16.95 229.39 C60.44 180.84, 102.37 131.54, 214.43 2.22 M16.95 229.39 C83.19 154.45, 150.08 78.29, 214.43 2.22 M23.65 233.88 C92.11 159.09, 158.27 81.09, 225.06 2.19 M23.65 233.88 C90.9 158.08, 158.01 82.83, 225.06 2.19 M34.28 233.85 C110.1 144.9, 189.63 56.57, 233.72 4.42 M34.28 233.85 C78.14 182.52, 121.4 133.29, 233.72 4.42 M44.91 233.81 C105.15 164.14, 163.77 97.2, 245 3.63 M44.91 233.81 C97.04 174.51, 150.37 113.43, 245 3.63 M55.54 233.78 C96.13 184.4, 140.95 134.49, 251.7 8.12 M55.54 233.78 C109.25 173.33, 161.99 112.94, 251.7 8.12 M66.17 233.74 C136.83 151.46, 207.84 69.43, 258.39 12.61 M66.17 233.74 C107.68 185.84, 150.11 137.87, 258.39 12.61 M76.8 233.71 C139.33 162.02, 201.96 91.68, 261.8 20.88 M76.8 233.71 C121.49 182.15, 166.4 131.26, 261.8 20.88 M87.43 233.68 C125.86 190.92, 165.19 145.58, 261.94 32.92 M87.43 233.68 C127.99 187.57, 170.23 139.49, 261.94 32.92 M98.06 233.64 C132.32 195.14, 167.7 156.72, 262.07 44.96 M98.06 233.64 C143.19 182.53, 185.62 132.97, 262.07 44.96 M108.69 233.61 C153.07 180.83, 197.93 131.67, 261.55 57.76 M108.69 233.61 C166.95 167.27, 225.76 99.13, 261.55 57.76 M119.32 233.57 C149.74 196.59, 184.82 157.12, 261.68 69.8 M119.32 233.57 C173.89 169.72, 228.6 107.64, 261.68 69.8 M129.95 233.54 C172.76 187.88, 211.95 137.62, 261.81 81.84 M129.95 233.54 C164.83 192.28, 200.38 152.24, 261.81 81.84 M140.58 233.5 C173.96 198.97, 201.21 165.47, 261.95 93.88 M140.58 233.5 C167.04 204.83, 191.33 175.66, 261.95 93.88 M151.21 233.47 C173.98 206.09, 195.58 181.83, 261.42 106.68 M151.21 233.47 C190.17 188.57, 229.55 143.82, 261.42 106.68 M161.84 233.43 C186.93 203.17, 209.52 178.31, 261.56 118.72 M161.84 233.43 C184.6 206.38, 207.76 179.79, 261.56 118.72 M172.47 233.4 C208.64 195.49, 239.36 154.81, 261.69 130.76 M172.47 233.4 C190.98 211.49, 208.42 190.06, 261.69 130.76 M183.1 233.36 C198.7 214.42, 215.91 194.11, 261.82 142.8 M183.1 233.36 C214.01 199.8, 241.74 165.49, 261.82 142.8 M193.73 233.33 C207.36 217.06, 222.73 198.84, 261.96 154.84 M193.73 233.33 C212.92 212.33, 231.59 190.09, 261.96 154.84 M204.36 233.3 C221.98 213.59, 238.18 193.03, 261.43 167.64 M204.36 233.3 C214.76 219.24, 228.08 207.4, 261.43 167.64 M214.99 233.26 C232.72 212.45, 252.13 189.54, 261.57 179.68 M214.99 233.26 C228.82 217.31, 244.15 200.64, 261.57 179.68 M225.62 233.23 C238.87 219, 249.51 206.38, 261.7 191.72 M225.62 233.23 C236 220.13, 247.37 208.49, 261.7 191.72 M233.62 236.21 C244.14 222.81, 255.63 210.21, 263.8 201.49 M233.62 236.21 C242.68 224.81, 252.8 213.96, 263.8 201.49" stroke="#ffffff" stroke-width="1" fill="none"></path><path d="M32 0 C76.52 1.27, 123.17 -0.59, 228.44 0 M32 0 C72.51 0.98, 113.55 0.17, 228.44 0 M228.44 0 C248.75 0.1, 261.07 11.09, 260.44 32 M228.44 0 C248.99 -1.76, 258.29 12.72, 260.44 32 M260.44 32 C263.09 69.35, 262.12 104.85, 260.44 199.21 M260.44 32 C260.33 90.07, 259.39 145.8, 260.44 199.21 M260.44 199.21 C261.57 219.99, 249.39 230.61, 228.44 231.21 M260.44 199.21 C260.69 221.58, 250.54 232.65, 228.44 231.21 M228.44 231.21 C152.62 231.56, 81.88 228.25, 32 231.21 M228.44 231.21 C173.58 231.96, 118.39 230.67, 32 231.21 M32 231.21 C8.7 229.97, -1.49 219.82, 0 199.21 M32 231.21 C12.38 231.99, -2.04 218.29, 0 199.21 M0 199.21 C0.55 136.46, -1.22 70.78, 0 32 M0 199.21 C0.04 162.74, -0.09 126.21, 0 32 M0 32 C-0.22 9.69, 9.75 0.96, 32 0 M0 32 C-1.28 12.14, 11.7 -1.2, 32 0" stroke="#1e1e1e" stroke-width="2" fill="none"></path></g><g transform="translate(802.0649176405927 390.66714530038917) rotate(0 93.95394897460943 17.5)"><text x="93.95394897460938" y="24.528" font-family="Virgil, Segoe UI Emoji" font-size="28px" fill="#1e1e1e" text-anchor="middle" style="white-space: pre;" direction="ltr" dominant-baseline="alphabetic">Infrahub Sync</text></g><g stroke-linecap="round" transform="translate(1337.8721770565871 298.46089322617127) rotate(0 130.21875 115.607421875)"><path d="M7.86 8.16 C7.86 8.16, 7.86 8.16, 7.86 8.16 M7.86 8.16 C7.86 8.16, 7.86 8.16, 7.86 8.16 M1.43 27.75 C7.15 20.21, 16.38 11.57, 24.4 1.33 M1.43 27.75 C7.19 20.97, 13.29 14.19, 24.4 1.33 M0.91 40.54 C8.34 29.96, 18.85 18.29, 36.34 -0.21 M0.91 40.54 C14.29 24.37, 27.38 9.61, 36.34 -0.21 M1.04 52.58 C14.4 34.78, 27.56 22.07, 46.97 -0.25 M1.04 52.58 C11.48 41.51, 22.91 30.34, 46.97 -0.25 M1.18 64.62 C21.09 39.33, 44.5 16.06, 57.6 -0.28 M1.18 64.62 C20 42.62, 39.2 20.05, 57.6 -0.28 M0.65 77.42 C27.56 45.41, 54.08 15.36, 67.57 0.44 M0.65 77.42 C19.34 55.94, 38.54 32.76, 67.57 0.44 M0.79 89.46 C15.51 70.93, 35.1 51.33, 78.2 0.41 M0.79 89.46 C22.49 64.59, 45.32 38.21, 78.2 0.41 M0.92 101.5 C35.96 61.53, 69.1 24.63, 88.83 0.37 M0.92 101.5 C36.4 61.97, 70.34 21.39, 88.83 0.37 M1.05 113.54 C30.56 82.37, 57.14 51.06, 99.46 0.34 M1.05 113.54 C35.19 74.72, 69.3 35.73, 99.46 0.34 M0.53 126.34 C27.2 91.65, 58.15 58.89, 110.09 0.3 M0.53 126.34 C33.49 90.62, 64.45 52.9, 110.09 0.3 M0.66 138.38 C28.97 104.13, 58.05 70.03, 120.72 0.27 M0.66 138.38 C33.92 97.83, 67.57 59.03, 120.72 0.27 M0.8 150.42 C27.35 116.8, 55.05 87.08, 131.35 0.23 M0.8 150.42 C26.93 120.49, 53.76 90.12, 131.35 0.23 M0.93 162.46 C49.96 107.28, 95.77 51.52, 141.98 0.2 M0.93 162.46 C31.29 127.73, 61.36 93.34, 141.98 0.2 M0.41 175.26 C34.28 139.13, 65.69 100.97, 152.61 0.16 M0.41 175.26 C52.61 117.46, 103.52 59.56, 152.61 0.16 M0.54 187.3 C52.31 127.56, 102.94 70.24, 163.24 0.13 M0.54 187.3 C45.26 136.54, 90.06 86.65, 163.24 0.13 M0.67 199.34 C68.29 122.16, 138.68 43.99, 173.87 0.09 M0.67 199.34 C66.49 119.39, 134.73 41.07, 173.87 0.09 M2.12 209.87 C44.26 159.45, 86.24 112.91, 184.5 0.06 M2.12 209.87 C67.28 135.61, 130.85 61.07, 184.5 0.06 M5.53 218.14 C69.88 145.08, 132.4 73.35, 195.13 0.03 M5.53 218.14 C56.17 158.91, 108.98 98.19, 195.13 0.03 M10.26 224.89 C75.61 149.21, 138.78 74.61, 205.76 -0.01 M10.26 224.89 C85.35 138.44, 161 53.54, 205.76 -0.01 M17.61 228.63 C78.04 158.43, 138.61 87.59, 216.39 -0.04 M17.61 228.63 C88.41 145.57, 159.72 64.22, 216.39 -0.04 M26.27 230.86 C95.75 150.09, 164.33 69.05, 227.02 -0.08 M26.27 230.86 C70.59 179.83, 113.2 129.15, 227.02 -0.08 M36.24 231.58 C87.67 168.32, 144.2 106.49, 236.34 1.4 M36.24 231.58 C80.14 181.34, 124.09 131.23, 236.34 1.4 M46.87 231.55 C86.24 185.49, 126.2 138.77, 245 3.63 M46.87 231.55 C117.17 150.31, 189.47 66.58, 245 3.63 M57.5 231.51 C111.87 166.81, 168.32 103.53, 251.7 8.12 M57.5 231.51 C118.23 162.17, 177.83 91.86, 251.7 8.12 M68.13 231.48 C122.32 169.59, 176.75 107.18, 256.42 14.88 M68.13 231.48 C116.07 174.11, 164.89 117.59, 256.42 14.88 M78.76 231.45 C125.68 174.48, 175.82 119.3, 259.84 23.15 M78.76 231.45 C128.51 172.52, 180.59 112.5, 259.84 23.15 M89.39 231.41 C156.68 151.7, 225.46 71.76, 261.28 33.68 M89.39 231.41 C155.69 152.88, 223.59 75.07, 261.28 33.68 M100.02 231.38 C138.94 184.19, 180.8 139.48, 260.76 46.47 M100.02 231.38 C146.51 178.89, 191.69 126.65, 260.76 46.47 M110.65 231.34 C141.92 194.74, 171.03 158.25, 260.89 58.51 M110.65 231.34 C168.24 166.12, 225.75 98.81, 260.89 58.51 M121.28 231.31 C167.83 179.67, 212.38 127.49, 261.03 70.55 M121.28 231.31 C152.49 195.03, 183.29 160, 261.03 70.55 M131.91 231.27 C180.12 178.3, 228.85 121.95, 261.16 82.6 M131.91 231.27 C168 187.5, 204.14 147.26, 261.16 82.6 M142.54 231.24 C177.21 188.24, 215.46 150.7, 261.29 94.64 M142.54 231.24 C179.91 186.55, 220.19 141.92, 261.29 94.64 M153.18 231.2 C180.77 199.95, 206.94 170.97, 260.77 107.43 M153.18 231.2 C183.01 195.53, 215.76 159.9, 260.77 107.43 M163.81 231.17 C184.87 206, 206.23 179.89, 260.9 119.47 M163.81 231.17 C184.78 208.28, 204.3 187.55, 260.9 119.47 M174.44 231.14 C202.9 196.89, 235.56 162.72, 261.04 131.51 M174.44 231.14 C196.16 206.99, 217.72 181.29, 261.04 131.51 M184.41 231.86 C208.56 205.29, 229.86 182.95, 261.17 143.55 M184.41 231.86 C210.09 201.95, 236.74 171.75, 261.17 143.55 M195.04 231.82 C214.68 207.52, 236.16 186.11, 261.3 155.6 M195.04 231.82 C216.89 207.41, 237.85 181.47, 261.3 155.6 M205.67 231.79 C221.93 212.29, 241.39 189.36, 260.78 168.39 M205.67 231.79 C218.19 218.22, 229.71 203.35, 260.78 168.39 M216.3 231.75 C230.67 215.43, 245.21 197.88, 260.91 180.43 M216.3 231.75 C232.14 213.94, 248.37 195.95, 260.91 180.43 M226.93 231.72 C236.09 221.11, 245.11 209.52, 261.04 192.47 M226.93 231.72 C235.21 223.64, 240.99 213.94, 261.04 192.47 M238.87 230.17 C245.37 223.77, 249.87 215.28, 259.21 206.78 M238.87 230.17 C245.13 224.21, 249.5 218.12, 259.21 206.78" stroke="#ffffff" stroke-width="1" fill="none"></path><path d="M32 0 C102.78 1.02, 176.3 0.35, 228.44 0 M32 0 C90.56 1.63, 150.46 1.79, 228.44 0 M228.44 0 C249.09 -1.53, 258.57 12.45, 260.44 32 M228.44 0 C247.75 1.04, 261.93 12.84, 260.44 32 M260.44 32 C262.07 96.77, 262.97 164.82, 260.44 199.21 M260.44 32 C260.58 94.58, 259.82 157.41, 260.44 199.21 M260.44 199.21 C260.66 221.45, 250.44 232.46, 228.44 231.21 M260.44 199.21 C262.18 221.57, 248.22 228.94, 228.44 231.21 M228.44 231.21 C152.66 230.72, 77.82 228.97, 32 231.21 M228.44 231.21 C155.01 229.43, 82.8 229.69, 32 231.21 M32 231.21 C12.16 231.89, -1.77 218.59, 0 199.21 M32 231.21 C12.57 231.02, 0.91 221.02, 0 199.21 M0 199.21 C-0.45 138.5, 0.38 77.98, 0 32 M0 199.21 C0.48 141.92, 0.14 86.09, 0 32 M0 32 C-1.12 11.95, 11.56 -1.05, 32 0 M0 32 C1.53 8.92, 9.89 0.54, 32 0" stroke="#1e1e1e" stroke-width="2" fill="none"></path></g><g transform="translate(1375.6629561703567 396.56831510117127) rotate(0 92.42797088623047 17.5)"><text x="92.42797088623047" y="24.528" font-family="Virgil, Segoe UI Emoji" font-size="28px" fill="#1e1e1e" text-anchor="middle" style="white-space: pre;" direction="ltr" dominant-baseline="alphabetic">SoT &amp; CMDB</text></g><g stroke-linecap="round" transform="translate(10 283.0434737890496) rotate(0 130.21875 115.607421875)"><path d="M7.86 8.16 C7.86 8.16, 7.86 8.16, 7.86 8.16 M7.86 8.16 C7.86 8.16, 7.86 8.16, 7.86 8.16 M1.43 27.75 C8.33 19.74, 18.03 9.62, 24.4 1.33 M1.43 27.75 C8.57 18.71, 16.71 9.39, 24.4 1.33 M0.91 40.54 C13.06 26.89, 23.47 15.87, 36.34 -0.21 M0.91 40.54 C9.78 30.66, 18.99 20.47, 36.34 -0.21 M1.04 52.58 C10.2 38.31, 20.3 27.72, 46.97 -0.25 M1.04 52.58 C16.53 34.85, 30.04 16.58, 46.97 -0.25 M1.18 64.62 C16.12 46.8, 28.39 30.13, 57.6 -0.28 M1.18 64.62 C18.11 47.64, 33.04 29.82, 57.6 -0.28 M0.65 77.42 C15.95 59.72, 31.4 40.6, 67.57 0.44 M0.65 77.42 C21.67 53.52, 45.05 27.33, 67.57 0.44 M0.79 89.46 C28.01 57.26, 55.82 23.92, 78.2 0.41 M0.79 89.46 C27.78 58.55, 54.45 29.37, 78.2 0.41 M0.92 101.5 C22.6 78.4, 41.33 56.01, 88.83 0.37 M0.92 101.5 C32.4 64.2, 64.25 29.49, 88.83 0.37 M1.05 113.54 C27.63 84.24, 51.47 53.98, 99.46 0.34 M1.05 113.54 C22.16 88.47, 45.11 61.75, 99.46 0.34 M0.53 126.34 C23.18 100.43, 45.66 75.39, 110.09 0.3 M0.53 126.34 C41.17 80.49, 82.02 32.49, 110.09 0.3 M0.66 138.38 C38.14 96.9, 76.23 53.47, 120.72 0.27 M0.66 138.38 C30.03 105.03, 60.68 70.87, 120.72 0.27 M0.8 150.42 C25.23 118.8, 53.52 87.49, 131.35 0.23 M0.8 150.42 C38.11 109.28, 75.26 67.39, 131.35 0.23 M0.93 162.46 C53.11 100.49, 108.85 40.42, 141.98 0.2 M0.93 162.46 C48.58 104.45, 99.07 48.75, 141.98 0.2 M0.41 175.26 C59.11 107.13, 116.04 42.65, 152.61 0.16 M0.41 175.26 C45.44 120.95, 91.79 68.08, 152.61 0.16 M0.54 187.3 C47.64 132.45, 93.21 79.4, 163.24 0.13 M0.54 187.3 C39.72 141.46, 76.96 96.43, 163.24 0.13 M0.67 199.34 C61.43 130.92, 120.88 59.18, 173.87 0.09 M0.67 199.34 C42.97 151.63, 85.43 103.88, 173.87 0.09 M2.12 209.87 C43.66 164.6, 81.27 120.71, 184.5 0.06 M2.12 209.87 C47.6 159.29, 91.89 109.26, 184.5 0.06 M5.53 218.14 C48.94 168.83, 93.88 115.69, 195.13 0.03 M5.53 218.14 C76.88 135.12, 148.88 52.27, 195.13 0.03 M10.26 224.89 C59.62 170.91, 105.34 116.92, 205.76 -0.01 M10.26 224.89 C56.02 171, 101.92 116.99, 205.76 -0.01 M17.61 228.63 C65.25 177.43, 110.71 123.44, 216.39 -0.04 M17.61 228.63 C59.6 180.89, 99.72 133.19, 216.39 -0.04 M26.27 230.86 C69.42 182.78, 114.8 134.95, 227.02 -0.08 M26.27 230.86 C94.06 154.73, 161.89 75.76, 227.02 -0.08 M36.24 231.58 C83.42 174.74, 133.84 117.56, 236.34 1.4 M36.24 231.58 C93.14 164.63, 151.39 98.12, 236.34 1.4 M46.87 231.55 C104.11 169.32, 158.21 103.16, 245 3.63 M46.87 231.55 C123.88 144.54, 200.47 55.45, 245 3.63 M57.5 231.51 C101.94 180.89, 146.39 130.61, 251.7 8.12 M57.5 231.51 C132.31 145.92, 206.71 60.78, 251.7 8.12 M68.13 231.48 C138.6 151.51, 209.76 70.05, 256.42 14.88 M68.13 231.48 C121.57 170.37, 175.45 108.36, 256.42 14.88 M78.76 231.45 C124.61 179.13, 171.15 122.55, 259.84 23.15 M78.76 231.45 C140.81 162.04, 201.11 91.95, 259.84 23.15 M89.39 231.41 C142.91 174.21, 192.92 112.76, 261.28 33.68 M89.39 231.41 C133.58 182.59, 177 132, 261.28 33.68 M100.02 231.38 C140.87 180.77, 184.37 134.02, 260.76 46.47 M100.02 231.38 C161.04 160.35, 223.7 89.61, 260.76 46.47 M110.65 231.34 C152.07 185.88, 190.1 140.02, 260.89 58.51 M110.65 231.34 C165.82 170.35, 219.36 108.49, 260.89 58.51 M121.28 231.31 C159.58 185.42, 201.03 139.25, 261.03 70.55 M121.28 231.31 C157.91 189.32, 191.98 148.72, 261.03 70.55 M131.91 231.27 C177.18 178.42, 225.09 125.11, 261.16 82.6 M131.91 231.27 C161.33 196.62, 190.66 163.89, 261.16 82.6 M142.54 231.24 C170.23 199.26, 196.41 164.33, 261.29 94.64 M142.54 231.24 C172.54 195.18, 204.32 160.61, 261.29 94.64 M153.18 231.2 C178.19 203.21, 202.94 170.63, 260.77 107.43 M153.18 231.2 C180.95 196.39, 212 162.41, 260.77 107.43 M163.81 231.17 C194.57 193.83, 226.99 159.76, 260.9 119.47 M163.81 231.17 C183.73 206.76, 202.67 182.99, 260.9 119.47 M174.44 231.14 C197.63 201.14, 221.48 172.93, 261.04 131.51 M174.44 231.14 C202.11 200.35, 228.51 170.75, 261.04 131.51 M184.41 231.86 C202.77 209.33, 219.46 188.37, 261.17 143.55 M184.41 231.86 C206.63 207, 227.74 181.38, 261.17 143.55 M195.04 231.82 C210.49 215.46, 223.3 197.45, 261.3 155.6 M195.04 231.82 C219.21 204.22, 242.49 177.43, 261.3 155.6 M205.67 231.79 C223.27 212.05, 245.35 190.08, 260.78 168.39 M205.67 231.79 C226.57 208.26, 246.54 183.92, 260.78 168.39 M216.3 231.75 C230.74 217.68, 243.69 201.66, 260.91 180.43 M216.3 231.75 C231.82 213.19, 248.35 194.31, 260.91 180.43 M226.93 231.72 C235.98 220.25, 248.02 209.25, 261.04 192.47 M226.93 231.72 C239.29 217.34, 251.84 204.21, 261.04 192.47 M238.87 230.17 C244.94 222.14, 252.29 216.58, 259.21 206.78 M238.87 230.17 C246.43 222.75, 252.15 214.19, 259.21 206.78" stroke="#ffffff" stroke-width="1" fill="none"></path><path d="M32 0 C96.45 0.94, 159.27 -0.92, 228.44 0 M32 0 C91.59 -1.18, 150.93 0.48, 228.44 0 M228.44 0 C248.02 0.9, 261.73 12.56, 260.44 32 M228.44 0 C251.91 1.06, 262.59 11.65, 260.44 32 M260.44 32 C263.43 73.73, 260.27 117.62, 260.44 199.21 M260.44 32 C260.23 77.93, 260.45 123.59, 260.44 199.21 M260.44 199.21 C261.96 221.44, 248.42 229.24, 228.44 231.21 M260.44 199.21 C262.36 221.85, 247.88 230.7, 228.44 231.21 M228.44 231.21 C159.96 228.65, 87.54 228.63, 32 231.21 M228.44 231.21 C182.47 230.84, 134.13 229.52, 32 231.21 M32 231.21 C12.32 231.04, 0.79 220.96, 0 199.21 M32 231.21 C12.07 229.65, -0.55 218.72, 0 199.21 M0 199.21 C1.43 151, 2.13 103.99, 0 32 M0 199.21 C0.21 157.85, 1.21 114.69, 0 32 M0 32 C1.33 9.14, 9.99 0.47, 32 0 M0 32 C-0.72 8.62, 10.4 0.29, 32 0" stroke="#1e1e1e" stroke-width="2" fill="none"></path></g><g transform="translate(81.90878295898438 381.1508956640496) rotate(0 58.309967041015625 17.5)"><text x="58.309967041015625" y="24.528" font-family="Virgil, Segoe UI Emoji" font-size="28px" fill="#1e1e1e" text-anchor="middle" style="white-space: pre;" direction="ltr" dominant-baseline="alphabetic">Infrahub</text></g><g mask="url(#mask-iFdk-5CJ0jGGAUGudxC4D)" stroke-linecap="round"><g transform="translate(1038.2018203542643 405.9819550827335) rotate(0 149.11261539327108 -0.7018799864608809)"><path d="M-0.61 0.06 C49.07 0.03, 248.87 -0.75, 298.61 -1.15 M1.27 -0.95 C50.78 -1.28, 248.6 -3.05, 297.86 -3.14" stroke="#1e1e1e" stroke-width="2" fill="none"></path></g><g transform="translate(1038.2018203542643 405.9819550827335) rotate(0 149.11261539327108 -0.7018799864608809)"><path d="M274.42 5.55 C282.61 3.33, 290.94 -0.96, 297.86 -3.14 M274.42 5.55 C278.86 3.85, 285.62 2.4, 297.86 -3.14" stroke="#1e1e1e" stroke-width="2" fill="none"></path></g><g transform="translate(1038.2018203542643 405.9819550827335) rotate(0 149.11261539327108 -0.7018799864608809)"><path d="M274.32 -11.55 C282.4 -7.92, 290.77 -6.36, 297.86 -3.14 M274.32 -11.55 C278.62 -9.43, 285.41 -7.06, 297.86 -3.14" stroke="#1e1e1e" stroke-width="2" fill="none"></path></g></g><mask id="mask-iFdk-5CJ0jGGAUGudxC4D"><rect x="0" y="0" fill="#fff" width="1436.4270511408065" height="507.3857150556553"></rect><rect x="1160.494458940895" y="392.78007509627264" fill="#000" width="53.63995361328125" height="25" opacity="1"></rect></mask><g transform="translate(1160.4944589408947 392.78007509627264) rotate(0 26.70455671362572 11.661609802618614)"><text x="26.819976806640625" y="17.52" font-family="Virgil, Segoe UI Emoji" font-size="20px" fill="#1e1e1e" text-anchor="middle" style="white-space: pre;" direction="ltr" dominant-baseline="alphabetic">Fetch</text></g><g mask="url(#mask-2YiFjaJKNFuFbyQHu0MKB)" stroke-linecap="round"><g transform="translate(763.4757410754914 400.0706878519966) rotate(0 -243.12101257068537 -1.9667532741691502)"><path d="M-0.41 -0.92 C-81.7 -1.44, -406.21 -2.45, -487.36 -2.86 M1.58 1.21 C-79.39 0.36, -404.15 -3.31, -485.24 -4.42" stroke="#1e1e1e" stroke-width="2" fill="none"></path></g><g transform="translate(763.4757410754914 400.0706878519966) rotate(0 -243.12101257068537 -1.9667532741691502)"><path d="M-461.64 -12.68 C-470.99 -11.89, -475.5 -9.03, -485.24 -4.42 M-461.64 -12.68 C-468.8 -9.14, -476.94 -6.33, -485.24 -4.42" stroke="#1e1e1e" stroke-width="2" fill="none"></path></g><g transform="translate(763.4757410754914 400.0706878519966) rotate(0 -243.12101257068537 -1.9667532741691502)"><path d="M-461.85 4.42 C-471.16 -0.46, -475.6 -3.28, -485.24 -4.42 M-461.85 4.42 C-469.05 2.05, -477.12 -1.04, -485.24 -4.42" stroke="#1e1e1e" stroke-width="2" fill="none"></path></g></g><mask id="mask-2YiFjaJKNFuFbyQHu0MKB"><rect x="0" y="0" fill="#fff" width="1349.7177662168622" height="504.0041944003349"></rect><rect x="497.6947553602747" y="385.60393457782743" fill="#000" width="45.3199462890625" height="25" opacity="1"></rect></mask><g transform="translate(497.6947553602748 385.60393457782743) rotate(0 22.889232579395156 12.862338811829659)"><text x="22.65997314453125" y="17.52" font-family="Virgil, Segoe UI Emoji" font-size="20px" fill="#1e1e1e" text-anchor="middle" style="white-space: pre;" direction="ltr" dominant-baseline="alphabetic">Push</text></g><g stroke-linecap="round" transform="translate(560.8210961365269 135.04764045794104) rotate(0 21.549747375065806 21)"><path d="M24.84 0.59 C29.12 1.07, 34.87 3.97, 37.89 7.37 C40.91 10.77, 42.88 16.47, 42.95 21.01 C43.02 25.55, 41.2 31.12, 38.31 34.63 C35.43 38.14, 30.2 41.35, 25.65 42.05 C21.1 42.76, 15.18 41.11, 11.04 38.87 C6.9 36.64, 2.4 32.88, 0.82 28.64 C-0.76 24.41, -0.07 17.71, 1.57 13.45 C3.2 9.2, 6.51 5.3, 10.62 3.11 C14.74 0.93, 23.44 0.75, 26.25 0.34 C29.05 -0.06, 27.57 0.37, 27.44 0.66 M18.77 0.51 C23.04 -0.5, 28.05 0.01, 32.01 2.28 C35.98 4.55, 40.9 9.72, 42.56 14.13 C44.21 18.53, 43.64 24.58, 41.95 28.71 C40.26 32.83, 36.55 36.82, 32.43 38.87 C28.31 40.92, 21.85 41.84, 17.23 41.01 C12.6 40.18, 7.56 37.26, 4.66 33.9 C1.76 30.55, -0.23 25.26, -0.16 20.9 C-0.1 16.54, 1.99 11.26, 5.04 7.76 C8.09 4.25, 15.98 1.01, 18.13 -0.11 C20.28 -1.23, 17.94 0.54, 17.93 1.03" stroke="#1e1e1e" stroke-width="2" fill="none"></path></g><g transform="translate(579.9648717422485 146.19839805302354) rotate(0 2.167999267578125 10)"><text x="2.167999267578125" y="14.016" font-family="Virgil, Segoe UI Emoji" font-size="16px" fill="#1e1e1e" text-anchor="middle" style="white-space: pre;" direction="ltr" dominant-baseline="alphabetic">1</text></g><g stroke-linecap="round" transform="translate(490.97556769548424 421.62499759350976) rotate(0 21.549747375065806 21)"><path d="M24.44 0.27 C28.88 0.65, 34.66 3.74, 37.82 7.15 C40.98 10.55, 43.25 16.28, 43.4 20.69 C43.55 25.1, 41.71 30.08, 38.73 33.63 C35.74 37.17, 30 41.05, 25.49 41.97 C20.98 42.88, 15.68 41.26, 11.68 39.11 C7.67 36.97, 3.21 33.24, 1.44 29.1 C-0.33 24.97, -0.43 18.72, 1.08 14.31 C2.59 9.91, 6.57 5.1, 10.51 2.68 C14.46 0.26, 22.31 0.17, 24.74 -0.21 C27.17 -0.6, 25.13 -0.1, 25.09 0.39 M23.98 0.01 C28.53 0.25, 33.79 3.16, 37.03 6.26 C40.28 9.35, 43.13 14.23, 43.47 18.59 C43.81 22.95, 41.8 28.66, 39.06 32.39 C36.33 36.13, 31.53 39.65, 27.07 40.98 C22.62 42.31, 16.55 42.11, 12.34 40.36 C8.12 38.61, 3.73 34.68, 1.78 30.49 C-0.17 26.31, -0.53 19.65, 0.63 15.26 C1.8 10.88, 5.07 6.65, 8.79 4.2 C12.51 1.75, 20.46 1.24, 22.94 0.56 C25.42 -0.13, 23.54 -0.07, 23.66 0.1" stroke="#1e1e1e" stroke-width="2" fill="none"></path></g><g transform="translate(507.1673474515965 432.77575518859226) rotate(0 5.1199951171875 10)"><text x="5.1199951171875" y="14.016" font-family="Virgil, Segoe UI Emoji" font-size="16px" fill="#1e1e1e" text-anchor="middle" style="white-space: pre;" direction="ltr" dominant-baseline="alphabetic">4</text></g><g stroke-opacity="0" fill-opacity="0" stroke-linecap="round" transform="translate(377.4645569394292 61.85506128154543) rotate(0 58.378661581835615 58.37866158183567)"><path d="M56.8 0.17 C65.1 -1.03, 74.59 1.34, 82.63 5.33 C90.67 9.31, 99.51 16.78, 105.04 24.09 C110.56 31.41, 114.43 40.37, 115.79 49.23 C117.16 58.09, 116.02 68.79, 113.24 77.26 C110.47 85.73, 105.71 94.01, 99.14 100.04 C92.57 106.08, 82.4 110.99, 73.83 113.46 C65.27 115.92, 56.49 116.59, 47.76 114.85 C39.03 113.11, 28.68 108.41, 21.45 103 C14.22 97.6, 7.81 90.6, 4.38 82.42 C0.95 74.24, 0.01 63.05, 0.87 53.92 C1.73 44.79, 4.97 35.49, 9.54 27.66 C14.11 19.83, 19.92 11.72, 28.31 6.95 C36.7 2.18, 53.87 -0.04, 59.87 -0.96 C65.87 -1.88, 64.29 0.25, 64.3 1.43 M78.88 4.28 C87.66 6.42, 97.7 12.97, 103.73 19.91 C109.76 26.86, 113.02 37.02, 115.07 45.95 C117.12 54.89, 118.09 65.14, 116.04 73.53 C113.99 81.93, 109.07 89.84, 102.76 96.33 C96.44 102.82, 86.68 109.23, 78.15 112.47 C69.62 115.7, 60.53 116.84, 51.59 115.74 C42.65 114.63, 31.89 111.05, 24.49 105.83 C17.09 100.62, 11.04 92.39, 7.2 84.44 C3.36 76.49, 1.7 67.18, 1.45 58.14 C1.21 49.11, 1.67 38.47, 5.72 30.21 C9.77 21.96, 18.16 13.56, 25.72 8.62 C33.29 3.67, 42.19 1.53, 51.11 0.53 C60.04 -0.46, 74.67 1.8, 79.27 2.66 C83.87 3.51, 79.09 4.41, 78.73 5.67" stroke="#1e1e1e" stroke-width="1" fill="none"></path></g><g stroke-linecap="round"><g transform="translate(407.15070086665213 141.6954109967471) rotate(0 27.17391304347825 -24.197589173934944)"><path d="M-0.11 1.09 C0.83 -4.01, 1.17 -22.51, 5.55 -30.87 C9.94 -39.24, 19.51 -48.33, 26.22 -49.08 C32.93 -49.84, 40.95 -43.02, 45.83 -35.42 C50.71 -27.83, 63.05 -9.32, 55.5 -3.54 C47.95 2.25, 9.65 -1.32, 0.52 -0.69 M-1.62 0.62 C-0.88 -4.77, -0.2 -24.24, 4.33 -32.37 C8.85 -40.49, 18.59 -47.82, 25.52 -48.13 C32.46 -48.44, 41.08 -41.72, 45.94 -34.24 C50.79 -26.77, 62.54 -9.22, 54.64 -3.25 C46.74 2.72, 7.36 1.19, -1.46 1.56" stroke="#1e1e1e" stroke-width="1" fill="none"></path></g></g><mask></mask><g stroke-linecap="round" transform="translate(420.8964648398933 68.0617583593646) rotate(0 13.913043478260875 12.173913043478365)"><path d="M14.36 0.49 C17.23 0.45, 20.89 1.58, 23.06 3.28 C25.23 4.99, 26.92 8.17, 27.39 10.69 C27.85 13.21, 27.44 16.31, 25.85 18.41 C24.25 20.5, 20.58 22.47, 17.81 23.26 C15.04 24.04, 11.92 24.05, 9.22 23.11 C6.51 22.17, 3.11 19.75, 1.59 17.6 C0.07 15.45, -0.58 12.7, 0.09 10.21 C0.76 7.72, 3.08 4.32, 5.62 2.64 C8.15 0.97, 13.68 0.65, 15.29 0.18 C16.91 -0.28, 15.41 -0.25, 15.29 -0.15 M11.3 0.8 C13.94 0.28, 17.27 0.74, 19.81 1.92 C22.34 3.1, 25.2 5.51, 26.53 7.86 C27.86 10.2, 28.69 13.43, 27.79 15.97 C26.89 18.51, 23.71 21.66, 21.15 23.09 C18.59 24.53, 15.28 25.15, 12.43 24.58 C9.57 24.02, 6.11 21.77, 4 19.7 C1.89 17.64, -0.14 14.74, -0.24 12.18 C-0.35 9.62, 1.5 6.36, 3.36 4.34 C5.23 2.33, 9.58 0.78, 10.94 0.08 C12.31 -0.61, 11.34 -0.09, 11.54 0.16" stroke="#1e1e1e" stroke-width="1" fill="none"></path></g><g transform="translate(412.46952723905287 147.40568736739738) rotate(0 22.339981079101562 12.5)"><text x="22.339981079101562" y="17.52" font-family="Virgil, Segoe UI Emoji" font-size="20px" fill="#1e1e1e" text-anchor="middle" style="white-space: pre;" direction="ltr" dominant-baseline="alphabetic">User</text></g><g stroke-opacity="0" fill-opacity="0" stroke-linecap="round" transform="translate(403.0229274428638 237.9242439980071) rotate(0 58.378661581835615 58.37866158183556)"><path d="M66.65 0.17 C75.01 0.42, 84.48 5.36, 91.83 10.87 C99.18 16.39, 106.5 25.11, 110.75 33.26 C115 41.41, 117.43 50.93, 117.35 59.76 C117.26 68.59, 114.58 78.26, 110.24 86.25 C105.9 94.23, 98.92 102.59, 91.31 107.67 C83.71 112.76, 73.9 115.83, 64.63 116.75 C55.36 117.66, 44.23 116.74, 35.69 113.18 C27.15 109.63, 19.2 102.52, 13.37 95.44 C7.54 88.36, 2.43 79.4, 0.7 70.7 C-1.03 62, 0.53 51.8, 3 43.24 C5.46 34.69, 9.55 26.06, 15.49 19.36 C21.43 12.67, 28.27 5.7, 38.62 3.09 C48.96 0.48, 69.65 2.73, 77.56 3.69 C85.47 4.64, 86.58 7.95, 86.07 8.82 M63.95 0.65 C72.79 0.57, 82.84 3.66, 90.3 8.53 C97.75 13.4, 104.42 21.83, 108.68 29.86 C112.93 37.89, 115.28 47.91, 115.82 56.7 C116.37 65.49, 115.59 74.66, 111.93 82.62 C108.26 90.58, 101.31 98.77, 93.84 104.47 C86.38 110.16, 75.96 115.31, 67.15 116.77 C58.34 118.24, 49.67 116.34, 41 113.28 C32.32 110.22, 21.75 104.69, 15.12 98.42 C8.48 92.14, 3.55 84.46, 1.18 75.63 C-1.2 66.81, -1.1 54.79, 0.88 45.48 C2.85 36.17, 7.03 26.68, 13.04 19.79 C19.05 12.9, 28.66 7.45, 36.93 4.13 C45.19 0.81, 58.11 0.5, 62.65 -0.11 C67.19 -0.73, 64.26 -0.78, 64.18 0.46" stroke="#1e1e1e" stroke-width="1" fill="none"></path></g><g transform="translate(524.5136013895901 253.6139572027878) rotate(0 43.679954528808594 25)"><text x="43.679954528808594" y="17.52" font-family="Virgil, Segoe UI Emoji" font-size="20px" fill="#1e1e1e" text-anchor="middle" style="white-space: pre;" direction="ltr" dominant-baseline="alphabetic">Write </text><text x="43.679954528808594" y="42.519999999999996" font-family="Virgil, Segoe UI Emoji" font-size="20px" fill="#1e1e1e" text-anchor="middle" style="white-space: pre;" direction="ltr" dominant-baseline="alphabetic">config.yml</text></g><g stroke-linecap="round"><g transform="translate(546.6788385016703 202.34279318894323) rotate(0 19.16027036697119 23.471331199539804)"><path d="M0 0 C0.88 17.54, 0.01 33.57, 0 46.94 M0 0 C0.32 10.41, -0.07 20.62, 0 46.94 M0 46.94 C10.22 47.12, 18.56 47.58, 38.32 46.94 M0 46.94 C9.81 47.55, 20 47.01, 38.32 46.94 M38.32 46.94 C38.63 34.97, 37.86 22.14, 38.32 13.41 M38.32 46.94 C38 39.63, 38.44 33.06, 38.32 13.41 M38.32 13.41 C34.44 13.02, 30.41 13.8, 25.99 13.41 M38.32 13.41 C35.53 13.52, 33.13 13.31, 25.99 13.41 M25.99 13.41 C26.6 10.12, 25.64 7, 25.99 0.48 M25.99 13.41 C25.76 10.62, 26.12 7.78, 25.99 0.48 M25.99 0.48 C28.89 3.4, 31.69 6.57, 38.32 13.41 M25.99 0.48 C30.25 5.13, 33.77 8.68, 38.32 13.41 M38.32 13.41 C36.6 11.15, 32.8 7.8, 25.55 0 M38.32 13.41 C33.65 8.25, 28.96 3.87, 25.55 0 M25.55 0 C16.24 0.6, 6.36 0.34, 0 0 M25.55 0 C19.18 0, 12.19 -0.16, 0 0" stroke="#1e1e1e" stroke-width="1" fill="none"></path></g></g><mask></mask><g stroke-linecap="round"><g transform="translate(999.4720176905216 270.9647239218291) rotate(0 -94.77550877258955 -64.05083828246563)"><path d="M0.94 -0.82 C-15.33 -22.46, -66.04 -129.08, -97.98 -128.68 C-129.93 -128.27, -175.47 -19.94, -190.71 1.63 M-0.02 1.37 C-16.4 -20.12, -67.4 -130.2, -98.8 -130.51 C-130.2 -130.81, -173.38 -22.47, -188.43 -0.46" stroke="#1e1e1e" stroke-width="2" fill="none"></path></g><g transform="translate(999.4720176905216 270.9647239218291) rotate(0 -94.77550877258955 -64.05083828246563)"><path d="M-18.89 -16.04 C-14.76 -11.68, -7.14 -9.93, 0.94 -0.82 M-18.89 -16.04 C-12.76 -10.46, -5.36 -5.11, 0.94 -0.82" stroke="#1e1e1e" stroke-width="2" fill="none"></path></g><g transform="translate(999.4720176905216 270.9647239218291) rotate(0 -94.77550877258955 -64.05083828246563)"><path d="M-4.46 -25.22 C-4.13 -18.28, -0.39 -14.06, 0.94 -0.82 M-4.46 -25.22 C-3.25 -16.56, -0.78 -8.07, 0.94 -0.82" stroke="#1e1e1e" stroke-width="2" fill="none"></path></g></g><mask></mask><g stroke-opacity="0" fill-opacity="0" stroke-linecap="round" transform="translate(847.4219413286148 10.000000000000227) rotate(0 58.37866158183556 58.37866158183567)"><path d="M65.59 0.41 C74.06 0.82, 83.79 5.83, 91.39 11.05 C98.98 16.26, 106.86 23.58, 111.14 31.72 C115.43 39.85, 117.51 50.64, 117.12 59.85 C116.72 69.07, 113.07 79.06, 108.78 87.02 C104.5 94.98, 98.72 102.69, 91.4 107.61 C84.08 112.54, 73.94 115.89, 64.86 116.58 C55.77 117.27, 45.21 115.07, 36.89 111.76 C28.58 108.44, 20.95 103.37, 14.96 96.69 C8.97 90.02, 3.23 80.6, 0.96 71.71 C-1.32 62.82, -0.95 52.25, 1.3 43.35 C3.54 34.45, 8.3 24.82, 14.42 18.33 C20.55 11.83, 28.92 7.31, 38.05 4.38 C47.18 1.44, 63.7 0.93, 69.19 0.72 C74.67 0.52, 71.23 2.17, 70.97 3.14 M42.74 0.92 C50.9 -2.2, 63.31 -1.1, 72.09 1.03 C80.88 3.15, 88.51 7.66, 95.45 13.69 C102.38 19.72, 110.16 28.87, 113.7 37.2 C117.25 45.53, 118.07 54.94, 116.72 63.66 C115.37 72.39, 110.75 81.84, 105.59 89.55 C100.42 97.27, 93.69 105.34, 85.73 109.97 C77.78 114.6, 67.02 117.29, 57.85 117.34 C48.68 117.39, 38.5 114.63, 30.74 110.27 C22.98 105.91, 16.08 98.75, 11.29 91.19 C6.51 83.62, 3.35 73.77, 2.01 64.89 C0.68 56, 0.66 46.05, 3.31 37.87 C5.95 29.69, 11.37 21.71, 17.87 15.81 C24.36 9.91, 37.74 4.81, 42.27 2.45 C46.81 0.08, 44.39 0.55, 45.07 1.64" stroke="#1e1e1e" stroke-width="1" fill="none"></path></g><g stroke-linecap="round"><g transform="translate(884.2858854937219 30.79168976527012) rotate(0 19.16027036697119 23.471331199539804)"><path d="M0 0 C0.05 16.41, -0.67 33.58, 0 46.94 M0 0 C0.01 10.92, 0.47 20.99, 0 46.94 M0 46.94 C15.1 46.96, 29.82 45.83, 38.32 46.94 M0 46.94 C14.28 46.77, 28.33 46.7, 38.32 46.94 M38.32 46.94 C38.37 39.39, 37.37 32.75, 38.32 13.41 M38.32 46.94 C38.39 38.57, 38.04 29.71, 38.32 13.41 M38.32 13.41 C34.04 13.78, 30.26 13.49, 25.99 13.41 M38.32 13.41 C35.38 13.4, 32.35 13.48, 25.99 13.41 M25.99 13.41 C25.58 11.18, 25.45 7.55, 25.99 0.48 M25.99 13.41 C25.73 10.08, 26.27 6.21, 25.99 0.48 M25.99 0.48 C31.08 5.47, 35.56 10.41, 38.32 13.41 M25.99 0.48 C30.19 5.04, 35.03 9.52, 38.32 13.41 M38.32 13.41 C34.24 8.59, 29.15 3.68, 25.55 0 M38.32 13.41 C34.13 9.4, 30.26 5.23, 25.55 0 M25.55 0 C18.26 -0.94, 13.16 0.8, 0 0 M25.55 0 C16.2 0.49, 5.65 -0.23, 0 0" stroke="#1e1e1e" stroke-width="1" fill="none"></path></g></g><mask></mask><g transform="translate(849.8006639456066 82.06285377911445) rotate(0 55.99993896484375 25)"><text x="55.99993896484375" y="17.52" font-family="Virgil, Segoe UI Emoji" font-size="20px" fill="#1e1e1e" text-anchor="middle" style="white-space: pre;" direction="ltr" dominant-baseline="alphabetic">Generate</text><text x="55.99993896484375" y="42.519999999999996" font-family="Virgil, Segoe UI Emoji" font-size="20px" fill="#1e1e1e" text-anchor="middle" style="white-space: pre;" direction="ltr" dominant-baseline="alphabetic">python files</text></g><g stroke-linecap="round" transform="translate(879.7731818297668 163.5116655824968) rotate(0 21.549747375065863 21)"><path d="M17.38 0.83 C21.71 -0.33, 27.97 0.3, 32.1 2.42 C36.22 4.54, 40.5 9.34, 42.13 13.54 C43.76 17.75, 43.51 23.33, 41.86 27.64 C40.2 31.95, 36.21 37.08, 32.18 39.41 C28.16 41.74, 22.19 42.41, 17.7 41.61 C13.22 40.8, 8.23 37.92, 5.27 34.58 C2.31 31.23, 0.02 25.94, -0.07 21.53 C-0.16 17.12, 1.65 11.7, 4.72 8.12 C7.8 4.54, 15.96 1.27, 18.38 0.03 C20.81 -1.2, 19.23 0.31, 19.27 0.69 M16.95 1.08 C21.11 -0.07, 26.82 0.45, 30.9 2.31 C34.98 4.17, 39.5 8.17, 41.41 12.25 C43.32 16.33, 43.62 22.36, 42.34 26.78 C41.06 31.19, 37.59 36.32, 33.71 38.72 C29.84 41.12, 23.7 41.72, 19.1 41.16 C14.5 40.59, 9.21 38.44, 6.11 35.34 C3.01 32.24, 0.81 27.1, 0.48 22.55 C0.15 18.01, 1.35 11.85, 4.13 8.09 C6.91 4.34, 15.14 1.17, 17.15 0.02 C19.16 -1.13, 16.08 0.71, 16.19 1.18" stroke="#1e1e1e" stroke-width="2" fill="none"></path></g><g transform="translate(895.3889575575588 174.66242317757929) rotate(0 5.6959991455078125 10)"><text x="5.6959991455078125" y="14.016" font-family="Virgil, Segoe UI Emoji" font-size="16px" fill="#1e1e1e" text-anchor="middle" style="white-space: pre;" direction="ltr" dominant-baseline="alphabetic">2</text></g><g stroke-linecap="round" transform="translate(1166.5279607491607 335.85618780880554) rotate(0 21.549747375065863 21)"><path d="M18.51 0 C22.97 -0.93, 29.45 0.4, 33.29 2.81 C37.14 5.22, 40.25 10.09, 41.57 14.46 C42.89 18.84, 42.92 24.83, 41.23 29.06 C39.54 33.29, 35.36 37.77, 31.42 39.84 C27.48 41.9, 21.99 42.43, 17.58 41.43 C13.16 40.43, 7.96 37.41, 4.95 33.84 C1.94 30.26, -0.64 24.5, -0.48 19.97 C-0.31 15.43, 2.68 9.86, 5.93 6.62 C9.18 3.38, 16.86 1.5, 19.03 0.53 C21.2 -0.45, 18.92 0.42, 18.94 0.77 M19.24 -0.1 C23.42 -0.98, 28.93 0.48, 32.84 3.04 C36.75 5.59, 41.35 10.83, 42.7 15.22 C44.06 19.61, 42.79 25.43, 40.98 29.39 C39.17 33.34, 35.79 36.99, 31.83 38.95 C27.87 40.91, 21.88 41.92, 17.22 41.15 C12.56 40.37, 6.82 37.83, 3.88 34.32 C0.94 30.81, -0.77 24.63, -0.42 20.08 C-0.07 15.53, 2.8 10.29, 5.98 7.03 C9.16 3.76, 16.56 1.51, 18.66 0.51 C20.76 -0.49, 18.61 0.72, 18.59 1.03" stroke="#1e1e1e" stroke-width="2" fill="none"></path></g><g transform="translate(1182.3917375755855 347.00694540388804) rotate(0 5.447998046875 10)"><text x="5.447998046875" y="14.016" font-family="Virgil, Segoe UI Emoji" font-size="16px" fill="#1e1e1e" text-anchor="middle" style="white-space: pre;" direction="ltr" dominant-baseline="alphabetic">3</text></g></svg>