<svg version="1.1" xmlns="http://www.w3.org/2000/svg" viewBox="0 0 580.1399688720703 262.84999084472656" width="580.1399688720703" height="262.84999084472656">
  <!-- svg-source:excalidraw -->
  
  <defs>
    <style class="style-fonts">
      @font-face {
        font-family: "Virgil";
        src: url("https://file%2B.vscode-resource.vscode-cdn.net/Users/pete/.vscode/extensions/pomdtr.excalidraw-editor-3.7.4/public//dist/excalidraw-assets/Virgil.woff2");
      }
      @font-face {
        font-family: "Cascadia";
        src: url("https://file%2B.vscode-resource.vscode-cdn.net/Users/pete/.vscode/extensions/pomdtr.excalidraw-editor-3.7.4/public//dist/excalidraw-assets/Cascadia.woff2");
      }
      @font-face {
        font-family: "Assistant";
        src: url("https://file%2B.vscode-resource.vscode-cdn.net/Users/pete/.vscode/extensions/pomdtr.excalidraw-editor-3.7.4/public//dist/excalidraw-assets/Assistant-Regular.woff2");
      }
    </style>
    
  </defs>
  <g stroke-linecap="round" transform="translate(62.53996276855469 10) rotate(0 57.40000915527344 46.399993896484375)"><path d="M23.2 0 C41.5 0.59, 62.4 1.19, 91.6 0 M23.2 0 C45.55 0.23, 65.98 0.61, 91.6 0 M91.6 0 C105.6 -1.04, 113.02 6.49, 114.8 23.2 M91.6 0 C108.36 0.71, 113.77 9.63, 114.8 23.2 M114.8 23.2 C116.64 37.07, 116.26 50.45, 114.8 69.6 M114.8 23.2 C115.41 34.46, 115.74 45.79, 114.8 69.6 M114.8 69.6 C116.06 86.18, 107.57 91.86, 91.6 92.8 M114.8 69.6 C114.93 85.15, 108.89 91.36, 91.6 92.8 M91.6 92.8 C78.52 91.71, 64.81 93.31, 23.2 92.8 M91.6 92.8 C63.52 91.58, 36.36 92.71, 23.2 92.8 M23.2 92.8 C9.11 91.46, 1.4 86.14, 0 69.6 M23.2 92.8 C6.76 94.78, -1.13 84.43, 0 69.6 M0 69.6 C0.27 55.42, 1.68 36.52, 0 23.2 M0 69.6 C0.9 58.19, 0.99 48.16, 0 23.2 M0 23.2 C-1.77 9.64, 7.07 -1.83, 23.2 0 M0 23.2 C1.72 8.03, 9.14 2.28, 23.2 0" stroke="#846358" stroke-width="2" fill="none"></path></g><g transform="translate(80.46731567382812 21.899993896484375) rotate(0 39.47265625 34.5)"><text x="39.47265625" y="0" font-family="Helvetica, Segoe UI Emoji" font-size="20px" fill="#846358" text-anchor="middle" style="white-space: pre;" direction="ltr" dominant-baseline="text-before-edge">Infrahub </text><text x="39.47265625" y="23" font-family="Helvetica, Segoe UI Emoji" font-size="20px" fill="#846358" text-anchor="middle" style="white-space: pre;" direction="ltr" dominant-baseline="text-before-edge">Web </text><text x="39.47265625" y="46" font-family="Helvetica, Segoe UI Emoji" font-size="20px" fill="#846358" text-anchor="middle" style="white-space: pre;" direction="ltr" dominant-baseline="text-before-edge">Server</text></g><g stroke-linecap="round" transform="translate(304.5399627685547 15.999984741210938) rotate(0 50.30000305175781 40.40000915527344)"><path d="M20.2 0 C42.77 1.45, 64.9 0.31, 80.4 0 M20.2 0 C32.91 -0.09, 47.67 -0.08, 80.4 0 M80.4 0 C93.9 -1.17, 99.4 7.59, 100.6 20.2 M80.4 0 C92.05 -1.44, 99.97 5.34, 100.6 20.2 M100.6 20.2 C99.69 33.67, 99.96 46.78, 100.6 60.6 M100.6 20.2 C101.73 31.11, 101.75 39.6, 100.6 60.6 M100.6 60.6 C102.59 72.85, 92.96 81.95, 80.4 80.8 M100.6 60.6 C102.26 76.12, 93.82 80.47, 80.4 80.8 M80.4 80.8 C65.64 83.15, 47.69 82.32, 20.2 80.8 M80.4 80.8 C66.59 81.29, 54.5 80.5, 20.2 80.8 M20.2 80.8 C7.96 80.19, -1.36 72.62, 0 60.6 M20.2 80.8 C4.6 81.13, -1.96 73.07, 0 60.6 M0 60.6 C1.33 50.31, -0.37 37.64, 0 20.2 M0 60.6 C0.64 52.53, 0.75 44.48, 0 20.2 M0 20.2 C-0.98 7.4, 7.28 1.39, 20.2 0 M0 20.2 C-0.92 8.07, 4.94 0.87, 20.2 0" stroke="#846358" stroke-width="2" fill="none"></path></g><g transform="translate(311.4854736328125 33.399993896484375) rotate(0 43.3544921875 23)"><text x="43.3544921875" y="0" font-family="Helvetica, Segoe UI Emoji" font-size="20px" fill="#846358" text-anchor="middle" style="white-space: pre;" direction="ltr" dominant-baseline="text-before-edge">Message </text><text x="43.3544921875" y="23" font-family="Helvetica, Segoe UI Emoji" font-size="20px" fill="#846358" text-anchor="middle" style="white-space: pre;" direction="ltr" dominant-baseline="text-before-edge">Broker</text></g><g stroke-linecap="round" transform="translate(187.73997497558594 168.34999084472656) rotate(0 54.09999084472656 42)"><path d="M21 0 C41.79 0.93, 64.57 1.15, 87.2 0 M21 0 C34.87 1.31, 49.35 1.02, 87.2 0 M87.2 0 C102.52 0.47, 107.26 8.19, 108.2 21 M87.2 0 C99.62 1.67, 107.76 6.58, 108.2 21 M108.2 21 C108.04 29.3, 108.49 42.02, 108.2 63 M108.2 21 C107.34 30.11, 108.02 39.83, 108.2 63 M108.2 63 C106.66 75.64, 101.48 82.38, 87.2 84 M108.2 63 C106.77 75.83, 101.48 82.81, 87.2 84 M87.2 84 C63.62 85.39, 42.85 83.12, 21 84 M87.2 84 C62.92 84.26, 37.94 84.21, 21 84 M21 84 C6.4 82.25, 0.57 78.63, 0 63 M21 84 C8.32 82.74, 1.11 79.28, 0 63 M0 63 C-1.51 47.72, -0.46 32.72, 0 21 M0 63 C-0.9 50.26, -0.15 38.9, 0 21 M0 21 C1.13 7.46, 6.22 1.66, 21 0 M0 21 C1.87 6.14, 7.5 -0.25, 21 0" stroke="#846358" stroke-width="2" fill="none"></path></g><g transform="translate(200.1505126953125 198.84999084472656) rotate(0 41.689453125 11.5)"><text x="41.689453125" y="0" font-family="Helvetica, Segoe UI Emoji" font-size="20px" fill="#846358" text-anchor="middle" style="white-space: pre;" direction="ltr" dominant-baseline="text-before-edge">Git Agent</text></g><g stroke-linecap="round" transform="translate(433.7399444580078 167.84999084472656) rotate(0 68.20001220703125 42.5)"><path d="M21.25 0 C43.1 0.54, 63.12 -2.37, 115.15 0 M21.25 0 C46.19 0.96, 71.5 -0.76, 115.15 0 M115.15 0 C128.77 0.32, 135.49 8.74, 136.4 21.25 M115.15 0 C131.62 -0.76, 138.14 5.63, 136.4 21.25 M136.4 21.25 C137.73 31.37, 135.93 42.96, 136.4 63.75 M136.4 21.25 C135.95 31.2, 136.18 39.8, 136.4 63.75 M136.4 63.75 C134.62 77.27, 127.4 84.95, 115.15 85 M136.4 63.75 C134.32 79.44, 128.18 85.94, 115.15 85 M115.15 85 C79.85 85.71, 48.07 85.94, 21.25 85 M115.15 85 C77.93 85.17, 42.24 86.04, 21.25 85 M21.25 85 C6.79 83.7, 1.62 77.95, 0 63.75 M21.25 85 C8.78 85.25, 0.14 77.17, 0 63.75 M0 63.75 C-0.81 54.01, -1.74 46, 0 21.25 M0 63.75 C-0.21 54.72, -0.54 43.19, 0 21.25 M0 21.25 C1.47 6.83, 6.93 0.82, 21.25 0 M0 21.25 C0.35 5.64, 8.64 -1.01, 21.25 0" stroke="#846358" stroke-width="2" fill="none"></path></g><g transform="translate(446.35890197753906 187.34999084472656) rotate(0 55.5810546875 23)"><text x="55.5810546875" y="0" font-family="Helvetica, Segoe UI Emoji" font-size="20px" fill="#846358" text-anchor="middle" style="white-space: pre;" direction="ltr" dominant-baseline="text-before-edge">Remote </text><text x="55.5810546875" y="23" font-family="Helvetica, Segoe UI Emoji" font-size="20px" fill="#846358" text-anchor="middle" style="white-space: pre;" direction="ltr" dominant-baseline="text-before-edge">Repositories</text></g><g mask="url(#mask-b0_vxkeQYfHofXpjrYiA4)" stroke-linecap="round"><g transform="translate(180.93995666503906 56.87091300435134) rotate(0 61.70002746582031 -0.1999969482421875)"><path d="M0.99 0.36 C21.51 0.26, 101.88 -1.35, 122.3 -1.3 M0.06 -0.5 C21 -0.42, 103.98 -0.13, 124.44 -0.23" stroke="#846358" stroke-width="2" fill="none"></path></g><g transform="translate(180.93995666503906 56.87091300435134) rotate(0 61.70002746582031 -0.1999969482421875)"><path d="M96.25 10.03 C103.43 5.59, 107.86 5.23, 124.44 -0.23 M96.25 10.03 C107.73 5.75, 119.06 2.82, 124.44 -0.23" stroke="#846358" stroke-width="2" fill="none"></path></g><g transform="translate(180.93995666503906 56.87091300435134) rotate(0 61.70002746582031 -0.1999969482421875)"><path d="M96.25 -10.49 C103.32 -10.18, 107.75 -5.79, 124.44 -0.23 M96.25 -10.49 C107.63 -6.79, 118.97 -1.75, 124.44 -0.23" stroke="#846358" stroke-width="2" fill="none"></path></g></g><mask id="mask-b0_vxkeQYfHofXpjrYiA4"><rect x="0" y="0" fill="#fff" width="404.3400115966797" height="157.2709069008357"></rect><rect x="221.52670288085938" y="45.17091605610915" fill="#000" width="42.2265625" height="23" opacity="1"></rect></mask><g transform="translate(221.52670288085938 45.17091605610915) rotate(0 21.661204923661444 11.229077840375226)"><text x="21.11328125" y="0" font-family="Helvetica, Segoe UI Emoji" font-size="20px" fill="#846358" text-anchor="middle" style="white-space: pre;" direction="ltr" dominant-baseline="text-before-edge">RPC</text></g><g stroke-linecap="round"><g transform="translate(357.7399444580078 96) rotate(0 -31.5999755859375 43.600006103515625)"><path d="M-0.69 0.82 C-1.32 14.01, 7.59 65.01, -2.65 79.59 C-12.89 94.17, -51.86 86.87, -62.12 88.3 M1.15 0.2 C0.34 13.53, 7.48 66.52, -3.1 80.91 C-13.67 95.3, -52.09 85.67, -62.31 86.54" stroke="#846358" stroke-width="2" fill="none"></path></g><g transform="translate(357.7399444580078 96) rotate(0 -31.5999755859375 43.600006103515625)"><path d="M-33.45 78.36 C-43.53 83.03, -57.05 86.5, -62.31 86.54 M-33.45 78.36 C-45.71 81.88, -55.68 84.28, -62.31 86.54" stroke="#846358" stroke-width="2" fill="none"></path></g><g transform="translate(357.7399444580078 96) rotate(0 -31.5999755859375 43.600006103515625)"><path d="M-34.94 98.83 C-44.5 95.38, -57.42 90.71, -62.31 86.54 M-34.94 98.83 C-46.45 94.31, -55.84 88.69, -62.31 86.54" stroke="#846358" stroke-width="2" fill="none"></path></g></g><mask></mask><g stroke-linecap="round"><g transform="translate(184.93995666503906 205.20001220703125) rotate(0 -35.69999694824219 -51.600006103515625)"><path d="M-0.85 0.79 C-12.17 -0.77, -56.02 6.67, -67.91 -10.55 C-79.8 -27.76, -71.8 -86.88, -72.2 -102.49 M0.91 0.15 C-10.55 -1.11, -56.93 8.35, -68.7 -9.09 C-80.48 -26.52, -68.98 -88.7, -69.73 -104.46" stroke="#846358" stroke-width="2" fill="none"></path></g><g transform="translate(184.93995666503906 205.20001220703125) rotate(0 -35.69999694824219 -51.600006103515625)"><path d="M-61.43 -75.63 C-62.35 -83.94, -66.42 -94.51, -69.73 -104.46 M-61.43 -75.63 C-65.25 -86.02, -67.53 -97.07, -69.73 -104.46" stroke="#846358" stroke-width="2" fill="none"></path></g><g transform="translate(184.93995666503906 205.20001220703125) rotate(0 -35.69999694824219 -51.600006103515625)"><path d="M-81.9 -77.04 C-76.63 -84.78, -74.49 -94.92, -69.73 -104.46 M-81.9 -77.04 C-78.36 -86.75, -73.27 -97.3, -69.73 -104.46" stroke="#846358" stroke-width="2" fill="none"></path></g></g><mask></mask><g mask="url(#mask-sTNJbDD1ie-80AmqIHiBS)" stroke-linecap="round"><g transform="translate(296.93995666503906 211.54859362002458) rotate(0 67.80001831054688 -0.9678627376164854)"><path d="M-0.08 -1.19 C22.64 -1.31, 114.23 -1.16, 136.7 -1.37 M-1.58 0.81 C21.04 0.38, 113.2 -2.83, 136.32 -3.2" stroke="#846358" stroke-width="2" fill="none"></path></g><g transform="translate(296.93995666503906 211.54859362002458) rotate(0 67.80001831054688 -0.9678627376164854)"><path d="M108.42 7.8 C115.83 5.97, 128.07 -0.96, 136.32 -3.2 M108.42 7.8 C114.61 5.25, 122.96 2.98, 136.32 -3.2" stroke="#846358" stroke-width="2" fill="none"></path></g><g transform="translate(296.93995666503906 211.54859362002458) rotate(0 67.80001831054688 -0.9678627376164854)"><path d="M107.87 -12.71 C115.36 -7.68, 127.78 -7.76, 136.32 -3.2 M107.87 -12.71 C114.31 -10.03, 122.79 -7.07, 136.32 -3.2" stroke="#846358" stroke-width="2" fill="none"></path></g></g><mask id="mask-sTNJbDD1ie-80AmqIHiBS"><rect x="0" y="0" fill="#fff" width="532.5399932861328" height="313.48431909525755"></rect><rect x="338.63157653808594" y="199.08073088240803" fill="#000" width="52.216796875" height="23" opacity="1"></rect></mask><g transform="translate(338.63157653808594 199.0807308824081) rotate(0 25.867993708909523 11.269259962318472)"><text x="26.1083984375" y="0" font-family="Helvetica, Segoe UI Emoji" font-size="20px" fill="#846358" text-anchor="middle" style="white-space: pre;" direction="ltr" dominant-baseline="text-before-edge">HTTP</text></g><g transform="translate(363.65995025634766 127.60000610351562) rotate(0 29.4482421875 11.5)"><text x="29.4482421875" y="0" font-family="Helvetica, Segoe UI Emoji" font-size="20px" fill="#846358" text-anchor="middle" style="white-space: pre;" direction="ltr" dominant-baseline="text-before-edge">AMQP</text></g><g transform="translate(10 136.39999389648438) rotate(0 43.3544921875 23)"><text x="43.3544921875" y="0" font-family="Helvetica, Segoe UI Emoji" font-size="20px" fill="#846358" text-anchor="middle" style="white-space: pre;" direction="ltr" dominant-baseline="text-before-edge">GraphQL</text><text x="43.3544921875" y="23" font-family="Helvetica, Segoe UI Emoji" font-size="20px" fill="#846358" text-anchor="middle" style="white-space: pre;" direction="ltr" dominant-baseline="text-before-edge">Mutations</text></g></svg>