<svg version="1.1" xmlns="http://www.w3.org/2000/svg" viewBox="0 0 1295.5057962104354 279.5767078833794" width="1295.5057962104354" height="279.5767078833794">
  <!-- svg-source:excalidraw -->
  
  <defs>
    <style class="style-fonts">
      @font-face {
        font-family: "Virgil";
        src: url("https://file%2B.vscode-resource.vscode-cdn.net/Users/pete/.vscode/extensions/pomdtr.excalidraw-editor-3.7.4/public//dist/excalidraw-assets/Virgil.woff2");
      }
      @font-face {
        font-family: "Cascadia";
        src: url("https://file%2B.vscode-resource.vscode-cdn.net/Users/pete/.vscode/extensions/pomdtr.excalidraw-editor-3.7.4/public//dist/excalidraw-assets/Cascadia.woff2");
      }
      @font-face {
        font-family: "Assistant";
        src: url("https://file%2B.vscode-resource.vscode-cdn.net/Users/pete/.vscode/extensions/pomdtr.excalidraw-editor-3.7.4/public//dist/excalidraw-assets/Assistant-Regular.woff2");
      }
    </style>
    
  </defs>
  <g stroke-linecap="round" transform="translate(10 10) rotate(0 637.7528981052177 129.7883539416897)"><path d="M0 0 C441.52 -2.53, 882.22 -3.11, 1275.51 0 M0 0 C457.27 3.83, 914.23 4.2, 1275.51 0 M1275.51 0 C1277.74 94.89, 1276.08 187.2, 1275.51 259.58 M1275.51 0 C1274.25 100.61, 1275.44 200.98, 1275.51 259.58 M1275.51 259.58 C926.79 257.75, 578.74 256.46, 0 259.58 M1275.51 259.58 C798.11 259.43, 321.62 259.68, 0 259.58 M0 259.58 C-2.56 192.01, -1.85 127.72, 0 0 M0 259.58 C0.88 204.67, 1.88 147.7, 0 0" stroke="#846358" stroke-width="2" fill="none"></path></g><g stroke-linecap="round" transform="translate(356.36008000588333 75.90165563343078) rotate(0 295.56587179139393 62.812383439015264)"><path d="M-0.45 -0.09 L591.31 -1.98 L591.82 123.95 L1.33 125.52" stroke="none" stroke-width="0" fill="#ced4da"></path><path d="M0 0 C201.6 1.53, 403.18 2.83, 591.13 0 M0 0 C231.59 0.99, 462.82 1.08, 591.13 0 M591.13 0 C589.12 39.54, 590.56 75.38, 591.13 125.62 M591.13 0 C589.54 39.47, 590.83 79.49, 591.13 125.62 M591.13 125.62 C467.85 123.83, 346.57 124.34, 0 125.62 M591.13 125.62 C425.26 126.86, 258.91 127.01, 0 125.62 M0 125.62 C-2.11 80.73, -0.28 33.17, 0 0 M0 125.62 C0.43 95.49, 1.27 65.2, 0 0" stroke="#846358" stroke-width="1" fill="none"></path></g><g stroke-linecap="round" transform="translate(401.13046069090365 116.44346050073159) rotate(0 103 30.5)"><path d="M15.25 0 C66.99 0.14, 123.13 -0.74, 190.75 0 C204.15 3.29, 209.42 4.41, 206 15.25 C205.44 26.57, 203.61 35.86, 206 45.75 C203.28 54.35, 200.56 57.83, 190.75 61 C121.13 64.84, 57.14 62.53, 15.25 61 C4.02 58.26, -2 55.91, 0 45.75 C1.74 34.79, 2.42 25.01, 0 15.25 C-1.25 3.45, 7.94 -1.25, 15.25 0" stroke="none" stroke-width="0" fill="#fab005"></path><path d="M15.25 0 C71.4 1.42, 129.33 2.39, 190.75 0 M15.25 0 C71.01 1.28, 124.93 0.48, 190.75 0 M190.75 0 C200.8 -1.8, 206.54 4.51, 206 15.25 M190.75 0 C199.59 -0.03, 207.69 4.6, 206 15.25 M206 15.25 C204.72 26.06, 204.49 33.69, 206 45.75 M206 15.25 C205.08 22.57, 206.09 28.49, 206 45.75 M206 45.75 C207.39 57.36, 200.08 59.42, 190.75 61 M206 45.75 C205.13 54.56, 202.44 59.85, 190.75 61 M190.75 61 C129.57 62.89, 65.47 63.7, 15.25 61 M190.75 61 C143.54 59.65, 94.34 60.77, 15.25 61 M15.25 61 C5.57 62.73, 0.96 55.25, 0 45.75 M15.25 61 C6.22 59.95, -1.88 58.13, 0 45.75 M0 45.75 C1.06 38.31, -0.4 29.14, 0 15.25 M0 45.75 C-0.35 38.32, 0.95 31.1, 0 15.25 M0 15.25 C-1.52 3.95, 3.27 1.43, 15.25 0 M0 15.25 C1.13 6.02, 7.16 0.52, 15.25 0" stroke="#846358" stroke-width="1" fill="none"></path></g><g transform="translate(432.98788256590365 135.4434605007316) rotate(0 71.142578125 11.5)"><text x="71.142578125" y="0" font-family="Helvetica, Segoe UI Emoji" font-size="20px" fill="#846358" text-anchor="middle" style="white-space: pre;" direction="ltr" dominant-baseline="text-before-edge">GraphQL Query</text></g><g stroke-linecap="round" transform="translate(718.0078284715169 119.17123787886158) rotate(0 97.5 30.5)"><path d="M15.25 0 C63.7 0.02, 116.55 -0.86, 179.75 0 C193.15 3.29, 198.42 4.41, 195 15.25 C194.44 26.57, 192.61 35.86, 195 45.75 C192.28 54.35, 189.56 57.83, 179.75 61 C114.29 64.67, 54.47 62.36, 15.25 61 C4.02 58.26, -2 55.91, 0 45.75 C1.74 34.79, 2.42 25.01, 0 15.25 C-1.25 3.45, 7.94 -1.25, 15.25 0" stroke="none" stroke-width="0" fill="#82c91e"></path><path d="M15.25 0 C67.83 1.37, 122.18 2.35, 179.75 0 M15.25 0 C67.57 1.22, 118.04 0.43, 179.75 0 M179.75 0 C189.8 -1.8, 195.54 4.51, 195 15.25 M179.75 0 C188.59 -0.03, 196.69 4.6, 195 15.25 M195 15.25 C193.72 26.06, 193.49 33.69, 195 45.75 M195 15.25 C194.08 22.57, 195.09 28.49, 195 45.75 M195 45.75 C196.39 57.36, 189.08 59.42, 179.75 61 M195 45.75 C194.13 54.56, 191.44 59.85, 179.75 61 M179.75 61 C122.49 62.79, 62.31 63.6, 15.25 61 M179.75 61 C135.56 59.72, 89.37 60.84, 15.25 61 M15.25 61 C5.57 62.73, 0.96 55.25, 0 45.75 M15.25 61 C6.22 59.95, -1.88 58.13, 0 45.75 M0 45.75 C1.06 38.31, -0.4 29.14, 0 15.25 M0 45.75 C-0.35 38.32, 0.95 31.1, 0 15.25 M0 15.25 C-1.52 3.95, 3.27 1.43, 15.25 0 M0 15.25 C1.13 6.02, 7.16 0.52, 15.25 0" stroke="#846358" stroke-width="1" fill="none"></path></g><g transform="translate(748.6279456590169 126.67123787886158) rotate(0 66.8798828125 23)"><text x="66.8798828125" y="0" font-family="Helvetica, Segoe UI Emoji" font-size="20px" fill="#846358" text-anchor="middle" style="white-space: pre;" direction="ltr" dominant-baseline="text-before-edge">Transformation</text><text x="66.8798828125" y="23" font-family="Helvetica, Segoe UI Emoji" font-size="20px" fill="#846358" text-anchor="middle" style="white-space: pre;" direction="ltr" dominant-baseline="text-before-edge">Logic</text></g><g transform="translate(364.3218734343868 78.92630722205115) rotate(0 66.8798828125 11.5)"><text x="0" y="0" font-family="Helvetica, Segoe UI Emoji" font-size="20px" fill="#846358" text-anchor="start" style="white-space: pre;" direction="ltr" dominant-baseline="text-before-edge">Transformation</text></g><g stroke-linecap="round"><g transform="translate(611.972512612441 147.04144772596226) rotate(0 50.92401071513348 0.44786822054732056)"><path d="M0 0 C40.22 2.93, 77.94 -0.5, 101.85 0.9 M0 0 C37.29 0.7, 77.01 0.28, 101.85 0.9" stroke="#846358" stroke-width="2" fill="none"></path></g><g transform="translate(611.972512612441 147.04144772596226) rotate(0 50.92401071513348 0.44786822054732056)"><path d="M73.53 10.79 C85.24 8.95, 94.35 1.32, 101.85 0.9 M73.53 10.79 C83.2 7.07, 95.39 2.62, 101.85 0.9" stroke="#846358" stroke-width="2" fill="none"></path></g><g transform="translate(611.972512612441 147.04144772596226) rotate(0 50.92401071513348 0.44786822054732056)"><path d="M73.79 -9.73 C85.22 -3.59, 94.22 -3.23, 101.85 0.9 M73.79 -9.73 C83.56 -5.77, 95.65 -2.54, 101.85 0.9" stroke="#846358" stroke-width="2" fill="none"></path></g></g><mask></mask><g stroke-linecap="round" transform="translate(51.56071773962162 84.92055350339808) rotate(0 97.14150079685328 55.52880539825708)"><path d="M130.87 2.57 C143.19 4.5, 156.51 11.37, 165.85 16.91 C175.19 22.45, 182.02 28.82, 186.91 35.82 C191.8 42.82, 195.54 51.43, 195.17 58.91 C194.81 66.38, 190.67 74.16, 184.72 80.69 C178.76 87.22, 169.81 93.39, 159.45 98.08 C149.1 102.78, 135.4 106.72, 122.57 108.86 C109.74 111, 95.32 112, 82.47 110.94 C69.61 109.89, 56.65 106.53, 45.43 102.52 C34.21 98.51, 22.51 93.31, 15.14 86.87 C7.78 80.44, 3.23 71.31, 1.24 63.9 C-0.75 56.49, -0.19 49.52, 3.21 42.42 C6.62 35.33, 13.35 27.46, 21.66 21.33 C29.97 15.2, 41.33 9.25, 53.06 5.65 C64.79 2.05, 78.65 -0.02, 92.04 -0.27 C105.43 -0.53, 126.24 3.04, 133.41 4.11 C140.57 5.19, 135.53 5.22, 135.04 6.16 M122.31 2.37 C134.89 3.1, 147.55 7.19, 158.04 11.91 C168.53 16.63, 179.14 23.89, 185.25 30.71 C191.35 37.52, 194.25 45.35, 194.66 52.8 C195.06 60.24, 192.73 68.42, 187.68 75.38 C182.62 82.34, 173.9 89.02, 164.34 94.55 C154.78 100.07, 142.22 105.9, 130.32 108.55 C118.41 111.21, 105.93 110.87, 92.91 110.47 C79.89 110.06, 64.27 109.31, 52.22 106.12 C40.17 102.93, 29.03 97.47, 20.62 91.3 C12.21 85.14, 4.98 76.41, 1.76 69.15 C-1.46 61.9, -0.99 55.27, 1.31 47.8 C3.62 40.33, 8.61 30.76, 15.58 24.32 C22.55 17.88, 31.83 13.05, 43.13 9.16 C54.43 5.27, 70.21 2.13, 83.37 1.01 C96.54 -0.11, 115.78 1.98, 122.12 2.45 C128.46 2.91, 121.62 2.81, 121.41 3.79" stroke="#846358" stroke-width="2" fill="none"></path></g><g transform="translate(111.81846865088153 117.6845640533594) rotate(0 36.6943359375 23)"><text x="36.6943359375" y="0" font-family="Helvetica, Segoe UI Emoji" font-size="20px" fill="#846358" text-anchor="middle" style="white-space: pre;" direction="ltr" dominant-baseline="text-before-edge">Infrahub</text><text x="36.6943359375" y="23" font-family="Helvetica, Segoe UI Emoji" font-size="20px" fill="#846358" text-anchor="middle" style="white-space: pre;" direction="ltr" dominant-baseline="text-before-edge">Graph</text></g><g stroke-linecap="round"><g transform="translate(394.86827632422785 143.38892631651117) rotate(0 -67.94389927494495 0.22851404963608957)"><path d="M0 0 C-52.27 0.91, -107.05 -2.69, -135.89 0.46 M0 0 C-51.69 -0.68, -100.96 -1.26, -135.89 0.46" stroke="#846358" stroke-width="2" fill="none"></path></g><g transform="translate(394.86827632422785 143.38892631651117) rotate(0 -67.94389927494495 0.22851404963608957)"><path d="M-108 -10.59 C-118.34 -4.72, -131.11 -4.2, -135.89 0.46 M-108 -10.59 C-119.17 -6.76, -128.01 -3.37, -135.89 0.46" stroke="#846358" stroke-width="2" fill="none"></path></g><g transform="translate(394.86827632422785 143.38892631651117) rotate(0 -67.94389927494495 0.22851404963608957)"><path d="M-107.42 9.92 C-117.8 7.81, -130.79 0.35, -135.89 0.46 M-107.42 9.92 C-119 6.07, -128.06 1.78, -135.89 0.46" stroke="#846358" stroke-width="2" fill="none"></path></g></g><mask></mask><g transform="translate(210.49500130126034 185.45668245039758) rotate(0 62.7978515625 11.5)"><text x="0" y="0" font-family="Helvetica, Segoe UI Emoji" font-size="20px" fill="#846358" text-anchor="start" style="white-space: pre;" direction="ltr" dominant-baseline="text-before-edge">(parameters?)</text></g><g transform="translate(630.7210226517857 94.79007922028791) rotate(0 22.2412109375 23)"><text x="22.2412109375" y="0" font-family="Helvetica, Segoe UI Emoji" font-size="20px" fill="#846358" text-anchor="middle" style="white-space: pre;" direction="ltr" dominant-baseline="text-before-edge">Input</text><text x="22.2412109375" y="23" font-family="Helvetica, Segoe UI Emoji" font-size="20px" fill="#846358" text-anchor="middle" style="white-space: pre;" direction="ltr" dominant-baseline="text-before-edge">data</text></g><g stroke-linecap="round"><g transform="translate(922.5330723636978 144.60914688667515) rotate(0 64.09571642841433 0.34597175476039865)"><path d="M0 0 C50.48 3.05, 98.44 -0.46, 128.19 0.69 M0 0 C47.15 0.75, 96.73 0.26, 128.19 0.69" stroke="#846358" stroke-width="2" fill="none"></path></g><g transform="translate(922.5330723636978 144.60914688667515) rotate(0 64.09571642841433 0.34597175476039865)"><path d="M99.94 10.78 C111.63 8.86, 120.71 1.16, 128.19 0.69 M99.94 10.78 C109.58 6.99, 121.75 2.46, 128.19 0.69" stroke="#846358" stroke-width="2" fill="none"></path></g><g transform="translate(922.5330723636978 144.60914688667515) rotate(0 64.09571642841433 0.34597175476039865)"><path d="M100.06 -9.74 C111.52 -3.67, 120.55 -3.39, 128.19 0.69 M100.06 -9.74 C109.86 -5.85, 121.98 -2.7, 128.19 0.69" stroke="#846358" stroke-width="2" fill="none"></path></g></g><mask></mask><g transform="translate(962.5244682173334 104.79673179137535) rotate(0 30.01953125 11.5)"><text x="30.01953125" y="0" font-family="Helvetica, Segoe UI Emoji" font-size="20px" fill="#846358" text-anchor="middle" style="white-space: pre;" direction="ltr" dominant-baseline="text-before-edge">Output</text></g><g stroke-linecap="round" transform="translate(1149.1276905744426 73.56825708861754) rotate(0 19.661243212132035 29.834844055844087)"><path d="M0.93 0.91 L37.56 -0.47 L37.45 60.94 L-0.99 60.32" stroke="none" stroke-width="0" fill="#fff"></path><path d="M0 0 C17.06 -1.39, 32.11 0.38, 39.32 0 M0 0 C12.59 0.9, 23.4 1.12, 39.32 0 M39.32 0 C37.86 14.33, 39.32 33.51, 39.32 59.67 M39.32 0 C40.17 17.73, 38.8 33.83, 39.32 59.67 M39.32 59.67 C28.57 58.77, 18.86 58.99, 0 59.67 M39.32 59.67 C25.51 59.65, 10.34 58.57, 0 59.67 M0 59.67 C-0.25 36.49, -1.9 16.54, 0 0 M0 59.67 C0.41 42.73, 0.27 25.56, 0 0" stroke="#846358" stroke-width="2" fill="none"></path></g><g stroke-linecap="round"><g transform="translate(1155.7964166882045 100.68909834304179) rotate(0 12.957496777877395 -0.8164997969621481)"><path d="M-0.35 0.21 C3.39 0.16, 18.29 0.46, 22.63 0.07 C26.97 -0.32, 25.07 -1.88, 25.7 -2.12 M0.48 -0.16 C4.14 -0.15, 18.15 1.02, 22.27 0.76 C26.4 0.5, 24.76 -1.2, 25.24 -1.72" stroke="#846358" stroke-width="1" fill="none"></path></g></g><mask></mask><g stroke-linecap="round"><g transform="translate(1156.8285982944199 83.18318183278507) rotate(0 12.675863514577486 -0.779816472750781)"><path d="M0.14 -0.02 C1.72 -0.38, 4.86 -1.99, 9.15 -1.96 C13.43 -1.93, 23.15 -0.22, 25.85 0.16 M-0.45 -0.5 C1.07 -0.82, 4.23 -1.42, 8.6 -1.46 C12.97 -1.5, 22.95 -0.87, 25.76 -0.74" stroke="#846358" stroke-width="1" fill="none"></path></g></g><mask></mask><g stroke-linecap="round"><g transform="translate(1156.7859816570585 120.67847873037351) rotate(0 13.446213323015627 0.09738604829925634)"><path d="M-0.22 -0.4 C2.29 -0.36, 11.67 -0.16, 15.2 0.2 C18.72 0.55, 19.03 1.93, 20.95 1.75 C22.87 1.57, 25.65 -0.35, 26.71 -0.9 M0.67 0.59 C3.14 0.47, 11.7 -0.65, 15.02 -0.6 C18.35 -0.54, 18.66 0.87, 20.61 0.92 C22.57 0.97, 25.69 0.13, 26.73 -0.3" stroke="#846358" stroke-width="1" fill="none"></path></g></g><mask></mask><g stroke-linecap="round"><g transform="translate(1155.014516372308 126.93367721238519) rotate(0 15.134829569776343 -0.468599883473928)"><path d="M0.5 0.34 C1.48 0.37, 4.3 -0.09, 5.68 -0.19 C7.06 -0.29, 5.38 -0.29, 8.8 -0.27 C12.21 -0.26, 22.68 0.06, 26.18 -0.12 C29.68 -0.3, 29.07 -1.13, 29.82 -1.34 M0.09 0.04 C1.03 -0.04, 3.88 -0.7, 5.26 -0.92 C6.63 -1.13, 4.81 -1.42, 8.36 -1.24 C11.9 -1.06, 22.82 0.14, 26.52 0.15 C30.23 0.15, 30.02 -0.85, 30.58 -1.19" stroke="#846358" stroke-width="1" fill="none"></path></g></g><mask></mask><g stroke-linecap="round"><g transform="translate(1155.1729905632778 91.56224511231744) rotate(0 13.054530087081616 0.3597332438790204)"><path d="M0.02 0.46 C1.6 0.38, 5.52 -0.16, 9.94 -0.13 C14.37 -0.11, 23.93 0.4, 26.55 0.59 M-0.63 0.22 C0.81 -0.05, 4.91 -1.12, 9.42 -1 C13.93 -0.88, 23.74 0.54, 26.43 0.95" stroke="#846358" stroke-width="1" fill="none"></path></g></g><mask></mask><g stroke-linecap="round"><g transform="translate(1155.2327923178202 110.74726870240568) rotate(0 13.054530087081616 0.3597332438790204)"><path d="M-0.18 0.19 C0.64 0.17, 3.3 0.43, 4.95 0.33 C6.59 0.24, 6.07 -0.49, 9.67 -0.39 C13.27 -0.28, 23.78 0.72, 26.54 0.95 M0.73 -0.18 C1.52 0.09, 3.07 0.74, 4.74 0.8 C6.41 0.86, 7.07 0.08, 10.76 0.18 C14.45 0.28, 24.39 1.24, 26.88 1.4" stroke="#846358" stroke-width="1" fill="none"></path></g></g><mask></mask><g transform="translate(1136.66445061976 146.8694655373332) rotate(0 49.63709259033203 31.599620928178354)"><text x="0" y="0" font-family="Helvetica, Segoe UI Emoji" font-size="13.73896562094711px" fill="#846358" text-anchor="start" style="white-space: pre;" direction="ltr" dominant-baseline="text-before-edge">{</text><text x="0" y="15.799810464089175" font-family="Helvetica, Segoe UI Emoji" font-size="13.73896562094711px" fill="#846358" text-anchor="start" style="white-space: pre;" direction="ltr" dominant-baseline="text-before-edge">    "any": "data",</text><text x="0" y="31.59962092817835" font-family="Helvetica, Segoe UI Emoji" font-size="13.73896562094711px" fill="#846358" text-anchor="start" style="white-space: pre;" direction="ltr" dominant-baseline="text-before-edge">    "format": True</text><text x="0" y="47.39943139226752" font-family="Helvetica, Segoe UI Emoji" font-size="13.73896562094711px" fill="#846358" text-anchor="start" style="white-space: pre;" direction="ltr" dominant-baseline="text-before-edge"> }</text></g><g transform="translate(1054.8141334263303 82.58683887686652) rotate(0 25.0146484375 23)"><text x="25.0146484375" y="0" font-family="Helvetica, Segoe UI Emoji" font-size="20px" fill="#846358" text-anchor="middle" style="white-space: pre;" direction="ltr" dominant-baseline="text-before-edge">Plain </text><text x="25.0146484375" y="23" font-family="Helvetica, Segoe UI Emoji" font-size="20px" fill="#846358" text-anchor="middle" style="white-space: pre;" direction="ltr" dominant-baseline="text-before-edge">Text</text></g><g transform="translate(1053.3273440444293 165.72269623537284) rotate(0 26.669921875 11.5)"><text x="26.669921875" y="0" font-family="Helvetica, Segoe UI Emoji" font-size="20px" fill="#846358" text-anchor="middle" style="white-space: pre;" direction="ltr" dominant-baseline="text-before-edge">JSON</text></g></svg>