<svg xmlns="http://www.w3.org/2000/svg" fill="none" viewBox="0 0 285 294">
  <path fill="#0D3F54" d="M3.986 252.569h6.883v29.743H3.986v-29.743Zm47.595 0v29.743h-5.652L31.1 264.254v18.058h-6.798v-29.743h5.693l14.787 18.058v-18.058h6.799Zm20.294 5.524v7.86h13.767v5.524H71.875v10.835H64.99v-29.743H87.47v5.524H71.875Zm45.579 24.219-5.737-8.285H105.386v8.285h-6.883v-29.743h12.874c2.635 0 4.915.439 6.841 1.317 1.955.878 3.456 2.125 4.504 3.739 1.048 1.615 1.573 3.527 1.573 5.736 0 2.21-.539 4.122-1.615 5.737-1.048 1.586-2.55 2.804-4.504 3.654l6.671 9.56h-7.393Zm-.128-18.951c0-1.671-.538-2.946-1.615-3.824-1.076-.906-2.648-1.359-4.716-1.359h-5.609v10.367h5.609c2.068 0 3.64-.453 4.716-1.359 1.077-.907 1.615-2.182 1.615-3.825Zm38.384 12.578h-13.809l-2.635 6.373h-7.053l13.257-29.743h6.798l13.3 29.743h-7.223l-2.635-6.373Zm-2.167-5.227-4.716-11.387-4.717 11.387h9.433Zm48.764-18.143v29.743h-6.884v-12.195h-13.512v12.195h-6.884v-29.743h6.884v11.727h13.512v-11.727h6.884Zm26.625 30.253c-4.249 0-7.563-1.175-9.943-3.527-2.351-2.351-3.527-5.707-3.527-10.07v-16.656h6.884v16.401c0 5.326 2.209 7.988 6.628 7.988 2.153 0 3.796-.637 4.929-1.912 1.133-1.303 1.7-3.328 1.7-6.076v-16.401h6.799v16.656c0 4.363-1.19 7.719-3.57 10.07-2.351 2.352-5.651 3.527-9.9 3.527Zm48.486-15.976c1.699.538 3.031 1.444 3.994 2.719.963 1.246 1.444 2.79 1.444 4.632 0 2.606-1.019 4.617-3.059 6.033-2.011 1.388-4.957 2.082-8.838 2.082h-15.382v-29.743h14.532c3.626 0 6.402.694 8.328 2.082 1.955 1.388 2.932 3.272 2.932 5.651 0 1.445-.354 2.734-1.062 3.867-.68 1.133-1.643 2.025-2.889 2.677Zm-15-9.093v7.011h6.841c1.7 0 2.989-.298 3.867-.893.878-.595 1.317-1.473 1.317-2.634 0-1.162-.439-2.026-1.317-2.592-.878-.595-2.167-.892-3.867-.892h-6.841Zm8.031 19.375c1.813 0 3.173-.297 4.079-.892.935-.595 1.402-1.515 1.402-2.762 0-2.464-1.827-3.696-5.481-3.696h-8.031v7.35h8.031Z"/>
  <path fill="#0B97BB" fill-rule="evenodd" d="m142.181 8.469 79.227 52.044V164.6l-79.227 52.044L62.954 164.6V60.513l79.227-52.044Z" clip-rule="evenodd"/>
  <mask id="a" width="160" height="209" x="62" y="8" maskUnits="userSpaceOnUse" style="mask-type:luminance">
    <path fill="#fff" d="m142.18 8.469 79.227 52.044V164.6l-79.227 52.044L62.953 164.6V60.513L142.18 8.469Z"/>
  </mask>
  <g fill-rule="evenodd" clip-rule="evenodd" mask="url(#a)">
    <path fill="url(#b)" d="M142.18 44.656 221.407 96.7v104.087l-79.227 52.044-79.227-52.044V96.699l79.227-52.043Z"/>
    <path fill="url(#c)" d="m142.529 309.396 79.226-52.044V153.264l-79.226-52.043-79.227 52.043v104.088l79.227 52.044Z"/>
    <path fill="#000" d="m142.18 124.755 79.227 52.043v104.088L142.18 332.93l-79.227-52.044V176.798l79.227-52.043Z"/>
  </g>
  <path fill="url(#d)" fill-rule="evenodd" d="m146.831 1.391 79.227 52.044a8.462 8.462 0 0 1 3.82 7.078V164.6a8.47 8.47 0 0 1-3.82 7.08l-79.227 52.044a8.472 8.472 0 0 1-9.301 0L58.303 171.68a8.47 8.47 0 0 1-3.82-7.08V60.513a8.462 8.462 0 0 1 3.82-7.078L137.53 1.39a8.47 8.47 0 0 1 9.301 0Zm-4.65 7.078L62.954 60.513V164.6l79.227 52.044 79.227-52.044V60.513L142.181 8.469Z" clip-rule="evenodd"/>
  <path fill="#fff" fill-rule="evenodd" d="m142.181 8.469 79.227 52.044V164.6l-79.227 52.044L62.954 164.6V60.513l79.227-52.044Zm0 12.161L73.119 65.997v93.119l69.062 45.367 69.062-45.367V65.997L142.181 20.63Z" clip-rule="evenodd"/>
  <path fill="#fff" fill-rule="evenodd" d="m145.098 58.846 35.154 20.297a5.835 5.835 0 0 1 2.918 5.054v40.592a5.833 5.833 0 0 1-2.918 5.054l-35.154 20.296a5.834 5.834 0 0 1-5.836 0l-35.154-20.296a5.835 5.835 0 0 1-2.918-5.054V84.197a5.837 5.837 0 0 1 2.918-5.054l35.154-20.297a5.838 5.838 0 0 1 5.836 0Zm-2.918 5.055-35.153 20.296v40.592l35.153 20.296 35.154-20.296V84.197L142.18 63.901Z" clip-rule="evenodd"/>
  <path fill="#fff" d="M148.279 146.102h-12.198v14.23h12.198v-14.23ZM125.602 75.647l-14.172 8.01 14.172 8.009 14.172-8.01-14.172-8.01ZM142.505 85.201l-14.172 8.01 14.172 8.01 14.172-8.01-14.172-8.01ZM142.552 66.067l-14.172 8.01 14.172 8.01 14.172-8.01-14.172-8.01ZM159.456 75.62l-14.172 8.01 14.172 8.01 14.173-8.01-14.173-8.01Z"/>
  <defs>
    <linearGradient id="b" x1="139.74" x2="139.74" y1="54.822" y2="136.141" gradientUnits="userSpaceOnUse">
      <stop stop-color="#0B97BB"/>
      <stop offset="1" stop-color="#0B1828"/>
    </linearGradient>
    <linearGradient id="c" x1="140.089" x2="140.089" y1="299.229" y2="217.911" gradientUnits="userSpaceOnUse">
      <stop stop-color="#0B97BB"/>
      <stop offset="1" stop-color="#0B1828"/>
    </linearGradient>
    <linearGradient id="d" x1="50.697" x2="233.664" y1="112.557" y2="112.557" gradientUnits="userSpaceOnUse">
      <stop stop-color="#264D59"/>
      <stop offset="1" stop-color="#0C3E54"/>
    </linearGradient>
  </defs>
</svg>
