<svg xmlns="http://www.w3.org/2000/svg" xmlns:xlink="http://www.w3.org/1999/xlink" xml:space="preserve" style="fill-rule:evenodd;clip-rule:evenodd;stroke-linejoin:round;stroke-miterlimit:2" viewBox="0 0 2471 538">
  <defs>
    <path id="reuse-0" d="m50.001 4.829 45.171 29.673v59.346l-45.171 29.673L4.829 93.848V34.502L50.001 4.829Z" style="fill:#0b97bb"/>
  </defs>
  <g transform="translate(-.005) scale(4.16667)">
    <use xlink:href="#reuse-0" style="fill:#0b97bb"/>
    <clipPath id="a">
      <use xlink:href="#reuse-0"/>
    </clipPath>
    <g clip-path="url(#a)">
      <path d="m50 25.461 45.171 29.673v59.346L50 144.153 4.828 114.48V55.134L50 25.461Z" style="fill:url(#b)"/>
      <path d="m50.198 176.403 45.171-29.673V87.384L50.198 57.711 5.026 87.384v59.346l45.172 29.673Z" style="fill:url(#c)"/>
      <path d="m50 71.129 45.171 29.673v59.346L50 189.821 4.828 160.148v-59.346L50 71.129Z"/>
    </g>
    <path d="m52.653.793 45.171 29.673a4.825 4.825 0 0 1 2.178 4.036v59.346a4.83 4.83 0 0 1-2.178 4.036l-45.171 29.673a4.832 4.832 0 0 1-5.304 0L2.178 97.884A4.83 4.83 0 0 1 0 93.848V34.502c0-1.628.819-3.145 2.178-4.036L47.349.793a4.832 4.832 0 0 1 5.304 0Zm-2.652 4.036L4.829 34.502v59.346l45.172 29.672 45.171-29.672V34.502L50.001 4.829Z" style="fill:url(#d)"/>
    <path d="m50.001 4.829 45.171 29.673v59.346l-45.171 29.673L4.829 93.848V34.502L50.001 4.829Zm0 6.933L10.625 37.629v53.092l39.376 25.866 39.375-25.866V37.629L50.001 11.762Z" style="fill:#fff"/>
    <path d="m51.663 33.552 20.043 11.572a3.327 3.327 0 0 1 1.664 2.882v23.143a3.327 3.327 0 0 1-1.664 2.882L51.663 85.603a3.329 3.329 0 0 1-3.327 0L28.293 74.031a3.327 3.327 0 0 1-1.664-2.882V48.006c0-1.189.634-2.288 1.664-2.882l20.043-11.572a3.324 3.324 0 0 1 3.327 0ZM50 36.433 29.956 48.006v23.143L50 82.721l20.043-11.572V48.006L50 36.433Z" style="fill:#fff"/>
    <path d="M46.522 83.3h6.955v8.114h-6.955zM40.548 43.131l-8.08 4.566 8.08 4.567 8.08-4.567-8.08-4.566ZM50.184 48.578l-8.081 4.567 8.081 4.566 8.08-4.566-8.08-4.567ZM50.212 37.669l-8.08 4.567 8.08 4.567 8.08-4.567-8.08-4.567ZM59.851 43.115l-8.08 4.567 8.08 4.567 8.08-4.567-8.08-4.567ZM132.638 39.922h11.256v48.637h-11.256V39.922Zm77.828 0v48.637h-9.241l-24.249-29.53v29.53h-11.117V39.922h9.31l24.18 29.529V39.922h11.117Zm33.185 9.032v12.854h22.512v9.033h-22.512v17.718h-11.256V39.922h36.756v9.032h-25.5Zm74.531 39.605-9.38-13.549h-10.353v13.549h-11.256V39.922h21.053c4.308 0 8.036.718 11.186 2.154 3.196 1.436 5.651 3.474 7.365 6.114 1.714 2.64 2.571 5.767 2.571 9.38 0 3.613-.88 6.74-2.64 9.38-1.714 2.594-4.169 4.586-7.365 5.975l10.908 15.634h-12.089Zm-.209-30.989c0-2.733-.88-4.817-2.64-6.253-1.76-1.482-4.331-2.224-7.713-2.224h-9.171v16.954h9.171c3.382 0 5.953-.741 7.713-2.224 1.76-1.482 2.64-3.566 2.64-6.253Zm62.766 20.566h-22.581l-4.308 10.423h-11.534l21.678-48.637h11.117l21.748 48.637h-11.812l-4.308-10.423Zm-3.544-8.546-7.712-18.621-7.712 18.621h15.424Zm79.739-29.668v48.637h-11.256V68.618h-22.095v19.941h-11.256V39.922h11.256v19.177h22.095V39.922h11.256Zm43.538 49.47c-6.948 0-12.368-1.922-16.259-5.767-3.844-3.844-5.767-9.333-5.767-16.467V39.922h11.256v26.82c0 8.708 3.613 13.062 10.839 13.062 3.521 0 6.207-1.042 8.06-3.127 1.853-2.13 2.779-5.442 2.779-9.935v-26.82h11.117v27.236c0 7.134-1.945 12.623-5.836 16.467-3.845 3.845-9.241 5.767-16.189 5.767Zm79.284-26.124c2.779.88 4.956 2.362 6.531 4.446 1.575 2.038 2.362 4.563 2.362 7.574 0 4.261-1.667 7.55-5.002 9.866-3.289 2.27-8.107 3.405-14.453 3.405h-25.152V39.922h23.763c5.929 0 10.468 1.135 13.618 3.404 3.196 2.27 4.794 5.35 4.794 9.241 0 2.363-.579 4.47-1.737 6.323-1.111 1.853-2.686 3.312-4.724 4.378Zm-24.527-14.869v11.464h11.186c2.779 0 4.887-.486 6.323-1.459 1.436-.973 2.154-2.409 2.154-4.308s-.718-3.312-2.154-4.238c-1.436-.973-3.544-1.459-6.323-1.459h-11.186Zm13.132 31.683c2.964 0 5.188-.486 6.67-1.459 1.528-.973 2.293-2.478 2.293-4.516 0-4.03-2.988-6.045-8.963-6.045h-13.132v12.02h13.132Z" style="fill:#fff;fill-rule:nonzero"/>
  </g>
  <defs>
    <linearGradient id="b" x1="0" x2="1" y1="0" y2="0" gradientTransform="rotate(90 8.676 39.933) scale(46.3641)" gradientUnits="userSpaceOnUse">
      <stop offset="0" style="stop-color:#0b97bb;stop-opacity:1"/>
      <stop offset="1" style="stop-color:#0b1828;stop-opacity:1"/>
    </linearGradient>
    <linearGradient id="c" x1="0" x2="1" y1="0" y2="0" gradientTransform="rotate(-90 109.707 60.9) scale(46.364)" gradientUnits="userSpaceOnUse">
      <stop offset="0" style="stop-color:#0b97bb;stop-opacity:1"/>
      <stop offset="1" style="stop-color:#0b1828;stop-opacity:1"/>
    </linearGradient>
    <linearGradient id="d" x1="0" x2="1" y1="0" y2="0" gradientTransform="translate(-2.159 64.174) scale(104.319)" gradientUnits="userSpaceOnUse">
      <stop offset="0" style="stop-color:#264d59;stop-opacity:1"/>
      <stop offset="1" style="stop-color:#0c3e54;stop-opacity:1"/>
    </linearGradient>
  </defs>
</svg>
