<svg xmlns="http://www.w3.org/2000/svg" fill="none" viewBox="0 0 717 156">
  <path fill="#0D3F54" d="M160.079 48.836h13.658v59.017h-13.658V48.836Zm94.437 0v59.017h-11.213l-29.424-35.832v35.832h-13.49V48.836h11.298l29.34 35.832V48.836h13.489Zm40.268 10.96v15.598H322.1v10.96h-27.316v21.499h-13.658V48.836h44.6v10.96h-30.942Zm90.437 48.057-11.382-16.44h-12.562v16.44h-13.658V48.836h25.546c5.227 0 9.751.871 13.573 2.614 3.879 1.742 6.858 4.215 8.937 7.419 2.08 3.204 3.12 6.998 3.12 11.382 0 4.384-1.068 8.178-3.204 11.381-2.08 3.148-5.059 5.565-8.937 7.251l13.237 18.97h-14.67Zm-.253-37.602c0-3.317-1.068-5.846-3.204-7.588-2.136-1.799-5.255-2.698-9.358-2.698h-11.129v20.572h11.129c4.103 0 7.222-.9 9.358-2.698 2.136-1.799 3.204-4.328 3.204-7.588Zm76.161 24.955h-27.4l-5.227 12.647h-13.996l26.305-59.017H454.3l26.389 59.017h-14.332l-5.228-12.647Zm-4.299-10.37-9.359-22.595-9.358 22.595h18.717Zm96.756-36v59.017h-13.658V83.656h-26.811v24.197h-13.658V48.836h13.658v23.27h26.811v-23.27h13.658Zm52.83 60.029c-8.431 0-15.007-2.333-19.729-6.998-4.665-4.665-6.997-11.326-6.997-19.982V48.836h13.658V81.38c0 10.566 4.384 15.85 13.152 15.85 4.272 0 7.532-1.265 9.78-3.794 2.248-2.586 3.372-6.604 3.372-12.056V48.836h13.49v33.05c0 8.655-2.361 15.316-7.082 19.981-4.665 4.665-11.213 6.998-19.644 6.998Zm96.205-31.7c3.372 1.067 6.014 2.866 7.925 5.395 1.911 2.473 2.866 5.536 2.866 9.19 0 5.17-2.023 9.161-6.07 11.972-3.991 2.754-9.836 4.131-17.536 4.131h-30.521V48.836h28.834c7.195 0 12.703 1.377 16.525 4.131 3.878 2.754 5.817 6.492 5.817 11.213 0 2.867-.702 5.424-2.107 7.673-1.349 2.248-3.26 4.018-5.733 5.311Zm-29.762-18.043v13.91h13.574c3.373 0 5.93-.59 7.672-1.77 1.743-1.18 2.614-2.922 2.614-5.227 0-2.304-.871-4.019-2.614-5.143-1.742-1.18-4.299-1.77-7.672-1.77h-13.574Zm15.935 38.445c3.597 0 6.295-.59 8.094-1.77 1.854-1.18 2.782-3.007 2.782-5.48 0-4.89-3.626-7.335-10.876-7.335h-15.935v14.585h15.935Z"/>
  <path fill="#0B97BB" fill-rule="evenodd" d="m60.506 5.843 54.663 35.908v71.815l-54.663 35.908-54.662-35.908V41.751L60.506 5.843Z" clip-rule="evenodd"/>
  <mask id="a" width="111" height="145" x="5" y="5" maskUnits="userSpaceOnUse" style="mask-type:luminance">
    <path fill="#fff" d="m60.507 5.843 54.663 35.908v71.815l-54.663 35.908-54.662-35.908V41.751L60.507 5.843Z"/>
  </mask>
  <g fill-rule="evenodd" clip-rule="evenodd" mask="url(#a)">
    <path fill="url(#b)" d="m60.507 30.81 54.663 35.908v71.815l-54.663 35.908-54.662-35.908V66.718L60.507 30.81Z"/>
    <path fill="url(#c)" d="m60.748 213.468 54.662-35.908v-71.815L60.748 69.837 6.085 105.745v71.815l54.663 35.908Z"/>
    <path fill="#000" d="m60.507 86.075 54.663 35.907v71.816l-54.663 35.907-54.662-35.907v-71.816l54.662-35.907Z"/>
  </g>
  <path fill="url(#d)" fill-rule="evenodd" d="m63.716.96 54.662 35.907a5.839 5.839 0 0 1 2.636 4.884v71.815a5.846 5.846 0 0 1-2.636 4.885l-54.662 35.908a5.846 5.846 0 0 1-6.418 0L2.635 118.451A5.846 5.846 0 0 1 0 113.566V41.751c0-1.97.99-3.805 2.635-4.884L57.298.96a5.844 5.844 0 0 1 6.418 0Zm-3.21 4.883L5.845 41.751v71.815l54.663 35.908 54.662-35.908V41.751L60.507 5.843Z" clip-rule="evenodd"/>
  <path fill="#fff" fill-rule="evenodd" d="m60.506 5.843 54.663 35.908v71.815l-54.663 35.908-54.662-35.908V41.751L60.506 5.843Zm0 8.39L12.857 45.536v64.247l47.65 31.301 47.649-31.301V45.535l-47.65-31.301Z" clip-rule="evenodd"/>
  <path fill="#fff" fill-rule="evenodd" d="m62.52 40.601 24.254 14.004a4.026 4.026 0 0 1 2.014 3.487V86.1a4.025 4.025 0 0 1-2.014 3.486L62.52 103.59a4.028 4.028 0 0 1-4.027 0L34.24 89.585a4.025 4.025 0 0 1-2.013-3.486V58.092c0-1.438.767-2.768 2.013-3.487L58.493 40.6a4.028 4.028 0 0 1 4.027 0Zm-2.013 3.488L36.252 58.092V86.1l24.255 14.003L84.76 86.099V58.092L60.507 44.09Z" clip-rule="evenodd"/>
  <path fill="#fff" d="M64.714 100.803h-8.416v9.818h8.416v-9.818ZM49.068 52.192 39.29 57.72l9.778 5.526 9.778-5.526-9.778-5.527ZM60.73 58.785l-9.778 5.526 9.778 5.526 9.778-5.526-9.778-5.526ZM60.763 45.583l-9.779 5.526 9.779 5.527 9.778-5.527-9.778-5.526ZM72.426 52.174 62.647 57.7l9.779 5.527 9.778-5.526-9.778-5.527Z"/>
  <defs>
    <linearGradient id="b" x1="58.824" x2="58.824" y1="37.825" y2="93.93" gradientUnits="userSpaceOnUse">
      <stop stop-color="#0B97BB"/>
      <stop offset="1" stop-color="#0B1828"/>
    </linearGradient>
    <linearGradient id="c" x1="59.064" x2="59.064" y1="206.454" y2="150.348" gradientUnits="userSpaceOnUse">
      <stop stop-color="#0B97BB"/>
      <stop offset="1" stop-color="#0B1828"/>
    </linearGradient>
    <linearGradient id="d" x1="-2.612" x2="123.626" y1="77.659" y2="77.659" gradientUnits="userSpaceOnUse">
      <stop stop-color="#264D59"/>
      <stop offset="1" stop-color="#0C3E54"/>
    </linearGradient>
  </defs>
</svg>
