<svg version="1.1" xmlns="http://www.w3.org/2000/svg" viewBox="0 0 1640.5555577263776 517.1358418927972" width="1640.5555577263776" height="517.1358418927972">
  <!-- svg-source:excalidraw -->
  
  <defs>
    <style class="style-fonts">
      @font-face {
        font-family: "Virgil";
        src: url("https://excalidraw.com/Virgil.woff2");
      }
      @font-face {
        font-family: "Cascadia";
        src: url("https://excalidraw.com/Cascadia.woff2");
      }
      @font-face {
        font-family: "Assistant";
        src: url("https://excalidraw.com/Assistant-Regular.woff2");
      }
    </style>
    
  </defs>
  <rect x="0" y="0" width="1640.5555577263776" height="517.1358418927972" fill="#ffffff"></rect><g stroke-linecap="round" transform="translate(10 10) rotate(0 353.2176733271294 247.5679209463986)"><path d="M0 0 C240.9 1.94, 481.78 3.24, 706.44 0 M706.44 0 C705.27 193.5, 705.23 387.39, 706.44 495.14 M706.44 495.14 C491.57 495.41, 277.67 494.49, 0 495.14 M0 495.14 C1.33 335.92, 2.38 177.16, 0 0" stroke="#000000" stroke-width="1.5" fill="none" stroke-dasharray="8 9"></path></g><g transform="translate(227.16298582712932 15) rotate(0 136.0546875 20.69999999999999)"><text x="136.0546875" y="0" font-family="Helvetica, Segoe UI Emoji" font-size="36px" fill="#000000" text-anchor="middle" style="white-space: pre;" direction="ltr" dominant-baseline="text-before-edge">Artifact Definition</text></g><g stroke-linecap="round" transform="translate(366.24459629241414 112.9709956692825) rotate(0 155.8292304641273 183.76461889456033)"><path d="M-0.45 -0.09 L311.84 -1.98 L312.35 365.85 L1.33 367.43" stroke="none" stroke-width="0" fill="#ced4da"></path><path d="M0 0 C106.43 0.94, 212.85 3.26, 311.66 0 M0 0 C122.52 0.85, 244.41 1.01, 311.66 0 M311.66 0 C309.16 112.45, 310.05 222.61, 311.66 367.53 M311.66 0 C309.38 117.24, 310.18 234.82, 311.66 367.53 M311.66 367.53 C245.81 366.01, 183.54 366.93, 0 367.53 M311.66 367.53 C224.6 368.79, 136.67 369.05, 0 367.53 M0 367.53 C-2.16 233.96, -1.02 98.74, 0 0 M0 367.53 C1.24 278.91, 1.76 190.2, 0 0" stroke="#000000" stroke-width="1" fill="none"></path></g><g transform="translate(428.4419908190415 117.9709956692825) rotate(0 93.6318359375 16.100000000000023)"><text x="93.6318359375" y="0" font-family="Helvetica, Segoe UI Emoji" font-size="28px" fill="#000000" text-anchor="middle" style="white-space: pre;" direction="ltr" dominant-baseline="text-before-edge">Transformation</text></g><g stroke-linecap="round" transform="translate(411.825227765186 276.99739764382684) rotate(0 117.5 30.5)"><path d="M15.25 0 C75.75 0.4, 140.17 -0.38, 219.75 0 C233.15 3.29, 238.42 4.41, 235 15.25 C234.44 26.57, 232.61 35.86, 235 45.75 C232.28 54.35, 229.56 57.83, 219.75 61 C139.49 64.81, 64.26 62.75, 15.25 61 C4.02 58.26, -2 55.91, 0 45.75 C1.74 34.79, 2.42 25.01, 0 15.25 C-1.25 3.45, 7.94 -1.25, 15.25 0" stroke="none" stroke-width="0" fill="#fab005"></path><path d="M15.25 0 C80.93 1.37, 148.19 2.24, 219.75 0 M15.25 0 C80.01 1.27, 143.13 0.56, 219.75 0 M219.75 0 C229.8 -1.8, 235.54 4.51, 235 15.25 M219.75 0 C228.59 -0.03, 236.69 4.6, 235 15.25 M235 15.25 C233.72 26.06, 233.49 33.69, 235 45.75 M235 15.25 C234.08 22.57, 235.09 28.49, 235 45.75 M235 45.75 C236.39 57.36, 229.08 59.42, 219.75 61 M235 45.75 C234.13 54.56, 231.44 59.85, 219.75 61 M219.75 61 C148.09 62.94, 73.81 63.66, 15.25 61 M219.75 61 C164.51 59.64, 107.49 60.64, 15.25 61 M15.25 61 C5.57 62.73, 0.96 55.25, 0 45.75 M15.25 61 C6.22 59.95, -1.88 58.13, 0 45.75 M0 45.75 C1.06 38.31, -0.4 29.14, 0 15.25 M0 45.75 C-0.35 38.32, 0.95 31.1, 0 15.25 M0 15.25 C-1.52 3.95, 3.27 1.43, 15.25 0 M0 15.25 C1.13 6.02, 7.16 0.52, 15.25 0" stroke="#000000" stroke-width="1" fill="none"></path></g><g transform="translate(458.182649640186 295.99739764382684) rotate(0 71.142578125 11.5)"><text x="71.142578125" y="0" font-family="Helvetica, Segoe UI Emoji" font-size="20px" fill="#000000" text-anchor="middle" style="white-space: pre;" direction="ltr" dominant-baseline="text-before-edge">GraphQL Query</text></g><g stroke-linecap="round" transform="translate(414.25638711012857 369.4928167027375) rotate(0 117.5 30.5)"><path d="M15.25 0 C75.75 0.4, 140.17 -0.38, 219.75 0 C233.15 3.29, 238.42 4.41, 235 15.25 C234.44 26.57, 232.61 35.86, 235 45.75 C232.28 54.35, 229.56 57.83, 219.75 61 C139.49 64.81, 64.26 62.75, 15.25 61 C4.02 58.26, -2 55.91, 0 45.75 C1.74 34.79, 2.42 25.01, 0 15.25 C-1.25 3.45, 7.94 -1.25, 15.25 0" stroke="none" stroke-width="0" fill="#82c91e"></path><path d="M15.25 0 C80.93 1.37, 148.19 2.24, 219.75 0 M15.25 0 C80.01 1.27, 143.13 0.56, 219.75 0 M219.75 0 C229.8 -1.8, 235.54 4.51, 235 15.25 M219.75 0 C228.59 -0.03, 236.69 4.6, 235 15.25 M235 15.25 C233.72 26.06, 233.49 33.69, 235 45.75 M235 15.25 C234.08 22.57, 235.09 28.49, 235 45.75 M235 45.75 C236.39 57.36, 229.08 59.42, 219.75 61 M235 45.75 C234.13 54.56, 231.44 59.85, 219.75 61 M219.75 61 C148.09 62.94, 73.81 63.66, 15.25 61 M219.75 61 C164.51 59.64, 107.49 60.64, 15.25 61 M15.25 61 C5.57 62.73, 0.96 55.25, 0 45.75 M15.25 61 C6.22 59.95, -1.88 58.13, 0 45.75 M0 45.75 C1.06 38.31, -0.4 29.14, 0 15.25 M0 45.75 C-0.35 38.32, 0.95 31.1, 0 15.25 M0 15.25 C-1.52 3.95, 3.27 1.43, 15.25 0 M0 15.25 C1.13 6.02, 7.16 0.52, 15.25 0" stroke="#000000" stroke-width="1" fill="none"></path></g><g transform="translate(464.87650429762857 376.9928167027375) rotate(0 66.8798828125 23)"><text x="66.8798828125" y="0" font-family="Helvetica, Segoe UI Emoji" font-size="20px" fill="#000000" text-anchor="middle" style="white-space: pre;" direction="ltr" dominant-baseline="text-before-edge">Transformation</text><text x="66.8798828125" y="23" font-family="Helvetica, Segoe UI Emoji" font-size="20px" fill="#000000" text-anchor="middle" style="white-space: pre;" direction="ltr" dominant-baseline="text-before-edge">Logic</text></g><g stroke-linecap="round" transform="translate(45.293889656138276 115.54721980652403) rotate(0 142.5 182.5)"><path d="M-0.57 1.67 L285.49 1.73 L285.96 364.34 L0.99 364.09" stroke="none" stroke-width="0" fill="#ced4da"></path><path d="M0 0 C91.97 1.41, 185.28 2.15, 285 0 M0 0 C89.87 1.37, 178.35 0.77, 285 0 M285 0 C282.59 106.62, 282.93 215.61, 285 365 M285 0 C284.93 101.44, 285.46 203.12, 285 365 M285 365 C194.28 362.19, 103.89 363.72, 0 365 M285 365 C198.77 365.96, 112.88 366.11, 0 365 M0 365 C0.69 232.51, 2.01 97.72, 0 0 M0 365 C-1.21 257.87, -0.61 151.32, 0 0" stroke="#000000" stroke-width="1" fill="none"></path></g><g transform="translate(148.88373340613828 120.54721980652403) rotate(0 38.91015625 16.100000000000023)"><text x="38.91015625" y="0" font-family="Helvetica, Segoe UI Emoji" font-size="28px" fill="#000000" text-anchor="middle" style="white-space: pre;" direction="ltr" dominant-baseline="text-before-edge">Group</text></g><g stroke-linecap="round" transform="translate(67.43774727139635 179.67667441071876) rotate(0 117.5 30.5)"><path d="M15.25 0 C75.75 0.4, 140.17 -0.38, 219.75 0 C233.15 3.29, 238.42 4.41, 235 15.25 C234.44 26.57, 232.61 35.86, 235 45.75 C232.28 54.35, 229.56 57.83, 219.75 61 C139.49 64.81, 64.26 62.75, 15.25 61 C4.02 58.26, -2 55.91, 0 45.75 C1.74 34.79, 2.42 25.01, 0 15.25 C-1.25 3.45, 7.94 -1.25, 15.25 0" stroke="none" stroke-width="0" fill="#228be6"></path><path d="M15.25 0 C80.93 1.37, 148.19 2.24, 219.75 0 M15.25 0 C80.01 1.27, 143.13 0.56, 219.75 0 M219.75 0 C229.8 -1.8, 235.54 4.51, 235 15.25 M219.75 0 C228.59 -0.03, 236.69 4.6, 235 15.25 M235 15.25 C233.72 26.06, 233.49 33.69, 235 45.75 M235 15.25 C234.08 22.57, 235.09 28.49, 235 45.75 M235 45.75 C236.39 57.36, 229.08 59.42, 219.75 61 M235 45.75 C234.13 54.56, 231.44 59.85, 219.75 61 M219.75 61 C148.09 62.94, 73.81 63.66, 15.25 61 M219.75 61 C164.51 59.64, 107.49 60.64, 15.25 61 M15.25 61 C5.57 62.73, 0.96 55.25, 0 45.75 M15.25 61 C6.22 59.95, -1.88 58.13, 0 45.75 M0 45.75 C1.06 38.31, -0.4 29.14, 0 15.25 M0 45.75 C-0.35 38.32, 0.95 31.1, 0 15.25 M0 15.25 C-1.52 3.95, 3.27 1.43, 15.25 0 M0 15.25 C1.13 6.02, 7.16 0.52, 15.25 0" stroke="#000000" stroke-width="1" fill="none"></path></g><g transform="translate(146.58813789639635 198.67667441071876) rotate(0 38.349609375 11.5)"><text x="38.349609375" y="0" font-family="Helvetica, Segoe UI Emoji" font-size="20px" fill="#000000" text-anchor="middle" style="white-space: pre;" direction="ltr" dominant-baseline="text-before-edge">Object A</text></g><g stroke-linecap="round" transform="translate(72.11558257348747 269.84430330510713) rotate(0 117.5 30.5)"><path d="M15.25 0 C75.75 0.4, 140.17 -0.38, 219.75 0 C233.15 3.29, 238.42 4.41, 235 15.25 C234.44 26.57, 232.61 35.86, 235 45.75 C232.28 54.35, 229.56 57.83, 219.75 61 C139.49 64.81, 64.26 62.75, 15.25 61 C4.02 58.26, -2 55.91, 0 45.75 C1.74 34.79, 2.42 25.01, 0 15.25 C-1.25 3.45, 7.94 -1.25, 15.25 0" stroke="none" stroke-width="0" fill="#228be6"></path><path d="M15.25 0 C80.93 1.37, 148.19 2.24, 219.75 0 M15.25 0 C80.01 1.27, 143.13 0.56, 219.75 0 M219.75 0 C229.8 -1.8, 235.54 4.51, 235 15.25 M219.75 0 C228.59 -0.03, 236.69 4.6, 235 15.25 M235 15.25 C233.72 26.06, 233.49 33.69, 235 45.75 M235 15.25 C234.08 22.57, 235.09 28.49, 235 45.75 M235 45.75 C236.39 57.36, 229.08 59.42, 219.75 61 M235 45.75 C234.13 54.56, 231.44 59.85, 219.75 61 M219.75 61 C148.09 62.94, 73.81 63.66, 15.25 61 M219.75 61 C164.51 59.64, 107.49 60.64, 15.25 61 M15.25 61 C5.57 62.73, 0.96 55.25, 0 45.75 M15.25 61 C6.22 59.95, -1.88 58.13, 0 45.75 M0 45.75 C1.06 38.31, -0.4 29.14, 0 15.25 M0 45.75 C-0.35 38.32, 0.95 31.1, 0 15.25 M0 15.25 C-1.52 3.95, 3.27 1.43, 15.25 0 M0 15.25 C1.13 6.02, 7.16 0.52, 15.25 0" stroke="#000000" stroke-width="1" fill="none"></path></g><g transform="translate(151.26597319848747 288.84430330510713) rotate(0 38.349609375 11.5)"><text x="38.349609375" y="0" font-family="Helvetica, Segoe UI Emoji" font-size="20px" fill="#000000" text-anchor="middle" style="white-space: pre;" direction="ltr" dominant-baseline="text-before-edge">Object B</text></g><g stroke-linecap="round" transform="translate(72.05933187989058 361.903730671659) rotate(0 117.5 30.5)"><path d="M15.25 0 C75.75 0.4, 140.17 -0.38, 219.75 0 C233.15 3.29, 238.42 4.41, 235 15.25 C234.44 26.57, 232.61 35.86, 235 45.75 C232.28 54.35, 229.56 57.83, 219.75 61 C139.49 64.81, 64.26 62.75, 15.25 61 C4.02 58.26, -2 55.91, 0 45.75 C1.74 34.79, 2.42 25.01, 0 15.25 C-1.25 3.45, 7.94 -1.25, 15.25 0" stroke="none" stroke-width="0" fill="#228be6"></path><path d="M15.25 0 C80.93 1.37, 148.19 2.24, 219.75 0 M15.25 0 C80.01 1.27, 143.13 0.56, 219.75 0 M219.75 0 C229.8 -1.8, 235.54 4.51, 235 15.25 M219.75 0 C228.59 -0.03, 236.69 4.6, 235 15.25 M235 15.25 C233.72 26.06, 233.49 33.69, 235 45.75 M235 15.25 C234.08 22.57, 235.09 28.49, 235 45.75 M235 45.75 C236.39 57.36, 229.08 59.42, 219.75 61 M235 45.75 C234.13 54.56, 231.44 59.85, 219.75 61 M219.75 61 C148.09 62.94, 73.81 63.66, 15.25 61 M219.75 61 C164.51 59.64, 107.49 60.64, 15.25 61 M15.25 61 C5.57 62.73, 0.96 55.25, 0 45.75 M15.25 61 C6.22 59.95, -1.88 58.13, 0 45.75 M0 45.75 C1.06 38.31, -0.4 29.14, 0 15.25 M0 45.75 C-0.35 38.32, 0.95 31.1, 0 15.25 M0 15.25 C-1.52 3.95, 3.27 1.43, 15.25 0 M0 15.25 C1.13 6.02, 7.16 0.52, 15.25 0" stroke="#000000" stroke-width="1" fill="none"></path></g><g transform="translate(150.65796469239058 380.903730671659) rotate(0 38.9013671875 11.5)"><text x="38.9013671875" y="0" font-family="Helvetica, Segoe UI Emoji" font-size="20px" fill="#000000" text-anchor="middle" style="white-space: pre;" direction="ltr" dominant-baseline="text-before-edge">Object C</text></g><g stroke-linecap="round" transform="translate(939.6573763890377 141.89829664081128) rotate(0 117.5 30.5)"><path d="M15.25 0 C75.75 0.4, 140.17 -0.38, 219.75 0 C233.15 3.29, 238.42 4.41, 235 15.25 C234.44 26.57, 232.61 35.86, 235 45.75 C232.28 54.35, 229.56 57.83, 219.75 61 C139.49 64.81, 64.26 62.75, 15.25 61 C4.02 58.26, -2 55.91, 0 45.75 C1.74 34.79, 2.42 25.01, 0 15.25 C-1.25 3.45, 7.94 -1.25, 15.25 0" stroke="none" stroke-width="0" fill="#40c057"></path><path d="M15.25 0 C80.93 1.37, 148.19 2.24, 219.75 0 M15.25 0 C80.01 1.27, 143.13 0.56, 219.75 0 M219.75 0 C229.8 -1.8, 235.54 4.51, 235 15.25 M219.75 0 C228.59 -0.03, 236.69 4.6, 235 15.25 M235 15.25 C233.72 26.06, 233.49 33.69, 235 45.75 M235 15.25 C234.08 22.57, 235.09 28.49, 235 45.75 M235 45.75 C236.39 57.36, 229.08 59.42, 219.75 61 M235 45.75 C234.13 54.56, 231.44 59.85, 219.75 61 M219.75 61 C148.09 62.94, 73.81 63.66, 15.25 61 M219.75 61 C164.51 59.64, 107.49 60.64, 15.25 61 M15.25 61 C5.57 62.73, 0.96 55.25, 0 45.75 M15.25 61 C6.22 59.95, -1.88 58.13, 0 45.75 M0 45.75 C1.06 38.31, -0.4 29.14, 0 15.25 M0 45.75 C-0.35 38.32, 0.95 31.1, 0 15.25 M0 15.25 C-1.52 3.95, 3.27 1.43, 15.25 0 M0 15.25 C1.13 6.02, 7.16 0.52, 15.25 0" stroke="#000000" stroke-width="1" fill="none"></path></g><g transform="translate(984.9112826390377 160.89829664081128) rotate(0 72.24609375 11.5)"><text x="72.24609375" y="0" font-family="Helvetica, Segoe UI Emoji" font-size="20px" fill="#000000" text-anchor="middle" style="white-space: pre;" direction="ltr" dominant-baseline="text-before-edge">Artifact Object A</text></g><g stroke-linecap="round"><g transform="translate(763.2761849464283 174.31073903712445) rotate(0 57.268974883266765 0.09357737968076663)"><path d="M0 0 C25.75 -1.03, 53.83 2.4, 114.54 0.19 M0 0 C43.72 -1.76, 86.63 -1.07, 114.54 0.19" stroke="#000000" stroke-width="2" fill="none"></path></g><g transform="translate(763.2761849464283 174.31073903712445) rotate(0 57.268974883266765 0.09357737968076663)"><path d="M90.78 7.98 C94.54 4.67, 100.65 6.16, 114.54 0.19 M90.78 7.98 C100.47 4.04, 109.28 1.73, 114.54 0.19" stroke="#000000" stroke-width="2" fill="none"></path></g><g transform="translate(763.2761849464283 174.31073903712445) rotate(0 57.268974883266765 0.09357737968076663)"><path d="M91.33 -9.12 C94.99 -8.29, 100.97 -2.66, 114.54 0.19 M91.33 -9.12 C100.71 -6.63, 109.32 -2.52, 114.54 0.19" stroke="#000000" stroke-width="2" fill="none"></path></g></g><mask></mask><g stroke-linecap="round" transform="translate(943.4723629328397 238.23744883661777) rotate(0 117.5 30.5)"><path d="M15.25 0 C75.75 0.4, 140.17 -0.38, 219.75 0 C233.15 3.29, 238.42 4.41, 235 15.25 C234.44 26.57, 232.61 35.86, 235 45.75 C232.28 54.35, 229.56 57.83, 219.75 61 C139.49 64.81, 64.26 62.75, 15.25 61 C4.02 58.26, -2 55.91, 0 45.75 C1.74 34.79, 2.42 25.01, 0 15.25 C-1.25 3.45, 7.94 -1.25, 15.25 0" stroke="none" stroke-width="0" fill="#40c057"></path><path d="M15.25 0 C80.93 1.37, 148.19 2.24, 219.75 0 M15.25 0 C80.01 1.27, 143.13 0.56, 219.75 0 M219.75 0 C229.8 -1.8, 235.54 4.51, 235 15.25 M219.75 0 C228.59 -0.03, 236.69 4.6, 235 15.25 M235 15.25 C233.72 26.06, 233.49 33.69, 235 45.75 M235 15.25 C234.08 22.57, 235.09 28.49, 235 45.75 M235 45.75 C236.39 57.36, 229.08 59.42, 219.75 61 M235 45.75 C234.13 54.56, 231.44 59.85, 219.75 61 M219.75 61 C148.09 62.94, 73.81 63.66, 15.25 61 M219.75 61 C164.51 59.64, 107.49 60.64, 15.25 61 M15.25 61 C5.57 62.73, 0.96 55.25, 0 45.75 M15.25 61 C6.22 59.95, -1.88 58.13, 0 45.75 M0 45.75 C1.06 38.31, -0.4 29.14, 0 15.25 M0 45.75 C-0.35 38.32, 0.95 31.1, 0 15.25 M0 15.25 C-1.52 3.95, 3.27 1.43, 15.25 0 M0 15.25 C1.13 6.02, 7.16 0.52, 15.25 0" stroke="#000000" stroke-width="1" fill="none"></path></g><g transform="translate(988.7262691828397 257.2374488366178) rotate(0 72.24609375 11.5)"><text x="72.24609375" y="0" font-family="Helvetica, Segoe UI Emoji" font-size="20px" fill="#000000" text-anchor="middle" style="white-space: pre;" direction="ltr" dominant-baseline="text-before-edge">Artifact Object B</text></g><g stroke-linecap="round"><g transform="translate(767.0911714902301 270.64989123293105) rotate(0 57.268974883266765 0.09357737968076663)"><path d="M0 0 C25.75 -1.03, 53.83 2.4, 114.54 0.19 M0 0 C43.72 -1.76, 86.63 -1.07, 114.54 0.19" stroke="#000000" stroke-width="2" fill="none"></path></g><g transform="translate(767.0911714902301 270.64989123293105) rotate(0 57.268974883266765 0.09357737968076663)"><path d="M90.78 7.98 C94.54 4.67, 100.65 6.16, 114.54 0.19 M90.78 7.98 C100.47 4.04, 109.28 1.73, 114.54 0.19" stroke="#000000" stroke-width="2" fill="none"></path></g><g transform="translate(767.0911714902301 270.64989123293105) rotate(0 57.268974883266765 0.09357737968076663)"><path d="M91.33 -9.12 C94.99 -8.29, 100.97 -2.66, 114.54 0.19 M91.33 -9.12 C100.71 -6.63, 109.32 -2.52, 114.54 0.19" stroke="#000000" stroke-width="2" fill="none"></path></g></g><mask></mask><g stroke-linecap="round" transform="translate(943.6757687984965 327.73725046630625) rotate(0 117.5 30.5)"><path d="M15.25 0 C75.75 0.4, 140.17 -0.38, 219.75 0 C233.15 3.29, 238.42 4.41, 235 15.25 C234.44 26.57, 232.61 35.86, 235 45.75 C232.28 54.35, 229.56 57.83, 219.75 61 C139.49 64.81, 64.26 62.75, 15.25 61 C4.02 58.26, -2 55.91, 0 45.75 C1.74 34.79, 2.42 25.01, 0 15.25 C-1.25 3.45, 7.94 -1.25, 15.25 0" stroke="none" stroke-width="0" fill="#40c057"></path><path d="M15.25 0 C80.93 1.37, 148.19 2.24, 219.75 0 M15.25 0 C80.01 1.27, 143.13 0.56, 219.75 0 M219.75 0 C229.8 -1.8, 235.54 4.51, 235 15.25 M219.75 0 C228.59 -0.03, 236.69 4.6, 235 15.25 M235 15.25 C233.72 26.06, 233.49 33.69, 235 45.75 M235 15.25 C234.08 22.57, 235.09 28.49, 235 45.75 M235 45.75 C236.39 57.36, 229.08 59.42, 219.75 61 M235 45.75 C234.13 54.56, 231.44 59.85, 219.75 61 M219.75 61 C148.09 62.94, 73.81 63.66, 15.25 61 M219.75 61 C164.51 59.64, 107.49 60.64, 15.25 61 M15.25 61 C5.57 62.73, 0.96 55.25, 0 45.75 M15.25 61 C6.22 59.95, -1.88 58.13, 0 45.75 M0 45.75 C1.06 38.31, -0.4 29.14, 0 15.25 M0 45.75 C-0.35 38.32, 0.95 31.1, 0 15.25 M0 15.25 C-1.52 3.95, 3.27 1.43, 15.25 0 M0 15.25 C1.13 6.02, 7.16 0.52, 15.25 0" stroke="#000000" stroke-width="1" fill="none"></path></g><g transform="translate(988.3779172359965 346.73725046630625) rotate(0 72.7978515625 11.5)"><text x="72.7978515625" y="0" font-family="Helvetica, Segoe UI Emoji" font-size="20px" fill="#000000" text-anchor="middle" style="white-space: pre;" direction="ltr" dominant-baseline="text-before-edge">Artifact Object C</text></g><g stroke-linecap="round"><g transform="translate(767.2945773558873 360.1496928626193) rotate(0 57.268974883266765 0.09357737968076663)"><path d="M0 0 C25.75 -1.03, 53.83 2.4, 114.54 0.19 M0 0 C43.72 -1.76, 86.63 -1.07, 114.54 0.19" stroke="#000000" stroke-width="2" fill="none"></path></g><g transform="translate(767.2945773558873 360.1496928626193) rotate(0 57.268974883266765 0.09357737968076663)"><path d="M90.78 7.98 C94.54 4.67, 100.65 6.16, 114.54 0.19 M90.78 7.98 C100.47 4.04, 109.28 1.73, 114.54 0.19" stroke="#000000" stroke-width="2" fill="none"></path></g><g transform="translate(767.2945773558873 360.1496928626193) rotate(0 57.268974883266765 0.09357737968076663)"><path d="M91.33 -9.12 C94.99 -8.29, 100.97 -2.66, 114.54 0.19 M91.33 -9.12 C100.71 -6.63, 109.32 -2.52, 114.54 0.19" stroke="#000000" stroke-width="2" fill="none"></path></g></g><mask></mask><g stroke-linecap="round" transform="translate(1223.1202110721188 10) rotate(0 203.71767332712943 248.5679209463986)"><path d="M0 0 C118.35 1.83, 237.69 1.37, 407.44 0 M407.44 0 C406.29 151.15, 407.23 302.91, 407.44 497.14 M407.44 497.14 C308.5 496.34, 208.99 496.86, 0 497.14 M0 497.14 C1.54 322.95, 1.31 149.5, 0 0" stroke="#000000" stroke-width="1.5" fill="none" stroke-dasharray="8 9"></path></g><g transform="translate(1306.7878813474904 15) rotate(0 120.05000305175781 41.39999999999998)"><text x="120.05000305175781" y="0" font-family="Helvetica, Segoe UI Emoji" font-size="36px" fill="#000000" text-anchor="middle" style="white-space: pre;" direction="ltr" dominant-baseline="text-before-edge">Object Storage</text><text x="120.05000305175781" y="41.4" font-family="Helvetica, Segoe UI Emoji" font-size="36px" fill="#000000" text-anchor="middle" style="white-space: pre;" direction="ltr" dominant-baseline="text-before-edge"></text></g><g stroke-linecap="round" transform="translate(1305.3378843992482 143.56792094639877) rotate(0 117.5 30.5)"><path d="M15.25 0 C60.62 -1.06, 103.59 -5.88, 219.75 0 C228.26 0.27, 233.69 2.34, 235 15.25 C234.44 24.39, 231.22 29.46, 235 45.75 C234.1 54.83, 231.1 62.32, 219.75 61 C157.66 61.73, 102.33 63.77, 15.25 61 C2.58 58.71, -1.98 56.06, 0 45.75 C-0.53 39.14, 0.01 26.87, 0 15.25 C-1.46 1.89, 5.38 -0.58, 15.25 0" stroke="none" stroke-width="0" fill="#228be6"></path><path d="M15.25 0 C74 1.93, 134.99 0.04, 219.75 0 M15.25 0 C64.13 -0.47, 111.3 -0.51, 219.75 0 M219.75 0 C229.83 -1.03, 234.12 5.76, 235 15.25 M219.75 0 C228.17 -1.76, 233.59 3.2, 235 15.25 M235 15.25 C233.54 21.75, 234.85 27.01, 235 45.75 M235 15.25 C235.33 23.98, 233.78 31.75, 235 45.75 M235 45.75 C233.56 54.69, 229.1 62.54, 219.75 61 M235 45.75 C235.96 57.44, 229.57 62.08, 219.75 61 M219.75 61 C154.08 59.09, 88.41 58.89, 15.25 61 M219.75 61 C155.95 62.06, 93.08 60.86, 15.25 61 M15.25 61 C6.26 60.18, 1.37 57.65, 0 45.75 M15.25 61 C4.35 60.71, -1.82 56.13, 0 45.75 M0 45.75 C-0.52 37.09, -1.28 30.41, 0 15.25 M0 45.75 C-0.42 37.6, 0.06 31.37, 0 15.25 M0 15.25 C1.67 5.53, 4.23 -1.56, 15.25 0 M0 15.25 C1.88 3.13, 6.42 0.51, 15.25 0" stroke="#000000" stroke-width="1" fill="none"></path></g><g transform="translate(1346.7212156980763 162.56792094639877) rotate(0 76.11666870117188 11.5)"><text x="76.11666870117188" y="0" font-family="Helvetica, Segoe UI Emoji" font-size="20px" fill="#000000" text-anchor="middle" style="white-space: pre;" direction="ltr" dominant-baseline="text-before-edge">Storage Object A</text></g><g stroke-linecap="round"><g transform="translate(1186.5689091303411 175.25748256431189) rotate(0 57.268974883266765 0.09357737968076663)"><path d="M0 0 C23.65 -2.53, 52.32 0.36, 114.54 0.19 M0 0 C24.94 0.31, 49.73 0.17, 114.54 0.19" stroke="#000000" stroke-width="2" fill="none"></path></g><g transform="translate(1186.5689091303411 175.25748256431189) rotate(0 57.268974883266765 0.09357737968076663)"><path d="M91.05 8.74 C94.51 5.13, 103.07 6.09, 114.54 0.19 M91.05 8.74 C96.28 6.89, 101.3 4.86, 114.54 0.19" stroke="#000000" stroke-width="2" fill="none"></path></g><g transform="translate(1186.5689091303411 175.25748256431189) rotate(0 57.268974883266765 0.09357737968076663)"><path d="M91.04 -8.36 C94.64 -8.19, 103.2 -3.46, 114.54 0.19 M91.04 -8.36 C96.17 -6.49, 101.19 -4.82, 114.54 0.19" stroke="#000000" stroke-width="2" fill="none"></path></g></g><mask></mask><g stroke-linecap="round" transform="translate(1307.3378843992482 242.56792094639854) rotate(0 117.5 30.5)"><path d="M15.25 0 C72.85 -2.62, 126.79 -0.72, 219.75 0 C231.42 3.08, 236.82 1.9, 235 15.25 C238.63 25.48, 233.14 30.93, 235 45.75 C232.81 56.23, 233.42 60.94, 219.75 61 C171.98 64.38, 118.06 64.16, 15.25 61 C6.31 62.11, -1.33 53.89, 0 45.75 C0.93 33.68, -1.58 23.42, 0 15.25 C-2.63 1.68, 7.36 3.59, 15.25 0" stroke="none" stroke-width="0" fill="#228be6"></path><path d="M15.25 0 C65.5 -1.87, 115.48 -1.83, 219.75 0 M15.25 0 C59.42 0.07, 103.31 -0.03, 219.75 0 M219.75 0 C227.95 0.97, 235.44 6.49, 235 15.25 M219.75 0 C229.26 0.23, 233.55 4.94, 235 15.25 M235 15.25 C236.61 24.39, 235.31 32.3, 235 45.75 M235 15.25 C235.31 21.45, 234.56 29.08, 235 45.75 M235 45.75 C235.64 56.98, 231.83 59.63, 219.75 61 M235 45.75 C233.14 54.66, 231.51 61.03, 219.75 61 M219.75 61 C145.23 60.67, 69.13 62.64, 15.25 61 M219.75 61 C152.24 62.06, 85.01 61.57, 15.25 61 M15.25 61 C3.11 59.33, -0.18 57.9, 0 45.75 M15.25 61 C4.37 60.01, 1.52 56.93, 0 45.75 M0 45.75 C1.79 37.05, -0.15 27.8, 0 15.25 M0 45.75 C-0.93 34.57, 0.27 21.84, 0 15.25 M0 15.25 C0.01 4.11, 3.31 -1.05, 15.25 0 M0 15.25 C1.47 2.87, 3.66 -0.3, 15.25 0" stroke="#000000" stroke-width="1" fill="none"></path></g><g transform="translate(1348.7212156980763 261.56792094639854) rotate(0 76.11666870117188 11.5)"><text x="76.11666870117188" y="0" font-family="Helvetica, Segoe UI Emoji" font-size="20px" fill="#000000" text-anchor="middle" style="white-space: pre;" direction="ltr" dominant-baseline="text-before-edge">Storage Object B</text></g><g stroke-linecap="round" transform="translate(1309.3378843992482 329.59220694639873) rotate(0 117.5 30.5)"><path d="M15.25 0 C91.98 -1.49, 165.6 2.04, 219.75 0 C231.62 2.43, 232.4 5.13, 235 15.25 C237.96 22.57, 234.47 29.41, 235 45.75 C231.72 58.28, 228.36 60.68, 219.75 61 C157.58 58.74, 92.96 61.66, 15.25 61 C4.75 58.07, -3.37 56.01, 0 45.75 C3.96 35.67, 0.68 23.47, 0 15.25 C-0.54 1.79, 7.37 -0.13, 15.25 0" stroke="none" stroke-width="0" fill="#228be6"></path><path d="M15.25 0 C84.75 -1.46, 154.9 -0.87, 219.75 0 M15.25 0 C87.82 -0.84, 159.8 -0.7, 219.75 0 M219.75 0 C231.23 0.41, 233.08 5.25, 235 15.25 M219.75 0 C232.08 0.4, 234.31 5.18, 235 15.25 M235 15.25 C236.09 27.15, 235.89 35.36, 235 45.75 M235 15.25 C235.12 21.49, 234.25 28.76, 235 45.75 M235 45.75 C235.63 54.29, 228.26 61.77, 219.75 61 M235 45.75 C236.35 57.82, 229.97 62.32, 219.75 61 M219.75 61 C171.11 61.97, 121.89 59.47, 15.25 61 M219.75 61 C146.47 60.41, 72.81 58.64, 15.25 61 M15.25 61 C5.15 59.95, 1.03 55.26, 0 45.75 M15.25 61 C5.13 63.14, 2.2 57, 0 45.75 M0 45.75 C-1.58 35.75, -0.78 29.17, 0 15.25 M0 45.75 C0.03 39.26, 0.28 30.21, 0 15.25 M0 15.25 C-1.18 3.79, 4.3 0.07, 15.25 0 M0 15.25 C2.26 6.47, 6.79 -2.08, 15.25 0" stroke="#000000" stroke-width="1" fill="none"></path></g><g transform="translate(1350.1628813474904 348.59220694639873) rotate(0 76.67500305175781 11.5)"><text x="76.67500305175781" y="0" font-family="Helvetica, Segoe UI Emoji" font-size="20px" fill="#000000" text-anchor="middle" style="white-space: pre;" direction="ltr" dominant-baseline="text-before-edge">Storage Object C</text></g><g stroke-linecap="round"><g transform="translate(1185.6361485159814 270.4988283456943) rotate(0 57.268974883266765 0.09357737968076663)"><path d="M0 0 C24.41 1.39, 52.55 2.43, 114.54 0.19 M0 0 C27.19 1, 55.46 0.23, 114.54 0.19" stroke="#000000" stroke-width="2" fill="none"></path></g><g transform="translate(1185.6361485159814 270.4988283456943) rotate(0 57.268974883266765 0.09357737968076663)"><path d="M91.08 8.82 C94.57 7.45, 101.83 6.46, 114.54 0.19 M91.08 8.82 C96.12 6.82, 102.2 3.9, 114.54 0.19" stroke="#000000" stroke-width="2" fill="none"></path></g><g transform="translate(1185.6361485159814 270.4988283456943) rotate(0 57.268974883266765 0.09357737968076663)"><path d="M91.01 -8.28 C94.57 -5.73, 101.84 -2.8, 114.54 0.19 M91.01 -8.28 C95.98 -6.12, 102.08 -4.86, 114.54 0.19" stroke="#000000" stroke-width="2" fill="none"></path></g></g><mask></mask><g stroke-linecap="round"><g transform="translate(1186.5689095159814 357.3536802203639) rotate(0 57.268974883266765 -0.21856784560912956)"><path d="M0 0 C35.51 -1.86, 69.32 0.95, 114.54 -0.44 M0 0 C35.38 0.81, 70.44 -0.91, 114.54 -0.44" stroke="#000000" stroke-width="2" fill="none"></path></g><g transform="translate(1186.5689095159814 357.3536802203639) rotate(0 57.268974883266765 -0.21856784560912956)"><path d="M91.05 8.14 C98.76 3.89, 104.84 4.22, 114.54 -0.44 M91.05 8.14 C98.66 6.32, 105.96 2.13, 114.54 -0.44" stroke="#000000" stroke-width="2" fill="none"></path></g><g transform="translate(1186.5689095159814 357.3536802203639) rotate(0 57.268974883266765 -0.21856784560912956)"><path d="M91.04 -8.96 C98.9 -8, 104.99 -2.46, 114.54 -0.44 M91.04 -8.96 C98.68 -5.57, 105.99 -4.55, 114.54 -0.44" stroke="#000000" stroke-width="2" fill="none"></path></g></g><mask></mask></svg>