<svg width="21" height="16" viewBox="0 0 21 16" fill="none" xmlns="http://www.w3.org/2000/svg">
<path d="M9.33398 1.99984L8.00065 0.666504H2.66732C2.3137 0.666504 1.97456 0.80698 1.72451 1.05703C1.47446 1.30708 1.33398 1.64622 1.33398 1.99984V9.99984C1.33398 10.3535 1.47446 10.6926 1.72451 10.9426C1.97456 11.1927 2.3137 11.3332 2.66732 11.3332H7.33398V12.6665L10.0007 10.6665L7.33398 8.6665V9.99984H2.66732V1.99984H9.33398ZM14.0007 6.6665V13.9998C14.0007 14.3535 13.8602 14.6926 13.6101 14.9426C13.3601 15.1927 13.0209 15.3332 12.6673 15.3332H5.33398C4.98036 15.3332 4.64122 15.1927 4.39118 14.9426C4.14113 14.6926 4.00065 14.3535 4.00065 13.9998V12.6665H5.33398V13.9998H12.6673V7.99984H9.33398V4.6665H5.33398V8.6665H4.00065V4.6665C4.00065 4.31288 4.14113 3.97374 4.39118 3.72369C4.64122 3.47365 4.98036 3.33317 5.33398 3.33317H10.6673L14.0007 6.6665Z" fill="#00259E" fill-opacity="0.797"/>
<path d="M11.5 10C11.5 7.51472 13.5147 5.5 16 5.5C18.4853 5.5 20.5 7.51472 20.5 10C20.5 12.4853 18.4853 14.5 16 14.5C13.5147 14.5 11.5 12.4853 11.5 10Z" fill="#C6D4F9"/>
<rect width="8" height="8" transform="translate(12 6)" fill="white" fill-opacity="0.01"/>
<path d="M17.2658 10.0001C17.2658 10.6996 16.6987 11.2667 15.9991 11.2667C15.2995 11.2667 14.7324 10.6996 14.7324 10.0001C14.7324 9.3005 15.2995 8.7334 15.9991 8.7334C16.6987 8.7334 17.2658 9.3005 17.2658 10.0001Z" fill="#00259E" fill-opacity="0.797"/>
</svg>
